<svg xmlns="http://www.w3.org/2000/svg" viewBox="0 0 1014.86 454.75"><g id="Layer_2" data-name="Layer 2"><g id="Layer_1-2" data-name="Layer 1"><path d="M346.74,20.39c0-3.11,0-5.8,0-8.48,0-3.41,1-4.56,4.29-5.15a24.85,24.85,0,0,1,2.87-.21c16.43-.92,32.86-1.93,49.29-2.72,11.34-.55,22.69-.72,34-1.21,17.56-.75,35.12-1.8,52.69-2.4C500.93-.15,512,.05,523,.06q31.89,0,63.77.14c8.31,0,16.63.09,24.94.1,6.87,0,13.74-.12,20.61-.06,11.82.1,23.65.25,35.47.51a76.47,76.47,0,0,1,9.52,1A9,9,0,0,1,679.94,3c-2.27,10.67-2.33,21.16-2.72,31.6-.67,18.2-1,36.42-1.84,54.61-.33,7.32-1.77,14.57-2.44,21.88-.4,4.44-.29,8.92-.41,13.39a21.78,21.78,0,0,1-.15,3.8c-.81,3.83-1.57,4.43-5.55,4.32q-32.12-.91-64.22-1.91c-24.91-.81-49.82-1.78-74.74-2.51-12-.36-24-.72-35.95-.39-16.93.46-33.84,1.63-50.76,2.38-12,.52-24,.74-35.92,1.29-13.08.61-26.14,1.42-39.21,2.18-4.47.26-8.92.76-13.39.91-3.47.12-4.48-.9-4.8-4.46-.4-4.42-.66-8.86-1-13.71-1.75-.11-3.29-.31-4.83-.3-22.06.22-44.12.55-66.17.69-22.54.15-45.09,0-67.62.2-21.42.2-42.83.91-64.25,1-22.7.12-45.4-.18-68.1-.34-14.38-.1-28.77-.43-43.15-.36-7.82,0-15.63.65-23.45,1A5,5,0,0,1,3.74,113c.15-5.56.16-11.12.17-16.68q0-3.84-.23-7.66c-.42-6.69-.82-13.38-1.38-20.05C1.63,60.62.74,52.68.08,44.72c-.2-2.37,0-4.78.06-7.18s0-5,0-8C2.88,28,6.42,28,9.78,27.73q29.64-2.1,59.3-3.8a113.67,113.67,0,0,1,17.7.33c14.86,1.51,29.72.34,44.58.61,10.54.19,21.08.37,31.62.24,18.22-.24,36.43-.75,54.65-1.08,11.35-.21,22.7-.14,34-.46,30.52-.85,61-1.84,91.55-2.79C344.15,20.75,345.08,20.58,346.74,20.39Zm-.47,91.8c1.28-6.09,1.32-83.13.06-88.06-2,0-4.25-.06-6.44,0q-37.84,1.2-75.67,2.41-15.33.47-30.66.73c-26.84.51-53.68,1.05-80.53,1.42-12.29.17-24.59,0-36.89-.08-8.14,0-16.32.37-24.43-.19a304.41,304.41,0,0,0-50.7,1C30.68,30.46,20.3,31,10,31.71c-2.16.15-4.33.24-6.73.36.2,3.65.36,6.64.54,9.63.36,6.21.18,12.53,1.24,18.62,2.37,13.76,3,27.61,3.59,41.49.15,3.93.81,7.83,1.24,11.8C122.22,114.68,234.15,113.16,346.27,112.19Zm4.61-88.07c-.13,2.28-.36,4.15-.32,6,.16,7.66.57,15.33.57,23,0,8.46-.35,16.92-.51,25.38-.08,4.47-.14,8.94-.08,13.41.06,4.94.23,9.88.44,14.82.07,1.68.39,3.36.65,5.4,2.23,0,4,0,5.71,0,42.66.25,85.33-.86,128,1.53,22,1.24,44.08,1.56,66.12,2.25q27.55.85,55.11,1.6c11.17.29,22.36.29,33.53.62,3.54.1,7,.51,10.72-2.14-1.09-31.24,2-62.78,3.44-94.59a20.32,20.32,0,0,0-2.78-.54c-9.73-.49-19.46-1.21-29.2-1.35-16.61-.23-33.23-.09-49.85-.1-13.9,0-27.81-.18-41.71,0-15.81.23-31.62.95-47.43,1.17-19,.25-38-.07-57,.35-22.35.5-44.69,1.51-67,2.35C356.57,23.41,353.91,23.82,350.88,24.12Zm-.57-4.07a10.43,10.43,0,0,0,2.26.52c7.67-.27,15.38-.16,23-1,19.92-2.11,39.92-1.66,59.88-2.28,9.41-.3,18.86.48,28.28.35,16.78-.22,33.56-.94,50.34-1.14q30.69-.36,61.38-.18c23,.12,46,.48,69,.79,3.83.06,7.65.38,11.48.62,4,.27,4.6,1.1,2.84,4.66a13.51,13.51,0,0,0-1.55,7.37,26,26,0,0,1-.25,3.82c-.33,5.09-.61,10.18-1,15.27-.38,4.92-.85,9.83-1.36,14.73-.3,2.86-1,5.69-1.06,8.55-.11,7.67,0,15.34.1,23,0,2.37.22,4.74.23,7.12,0,3.64-.08,7.29-.06,10.94,0,1.43.35,2.87.24,4.29-.3,4-1.56,5-5.52,4.67-3.51-.3-7-.85-10.51-.93-8.62-.19-17.26,0-25.88-.28-42-1.27-84-2.7-126-4-23.32-.7-46.64-1.41-70-1.62-20.61-.19-41.23.28-61.85.5a19,19,0,0,0-3.21.68c.46,4.69.91,9.19,1.36,13.77,1.33,0,2.11,0,2.88,0,13.87-.88,27.73-1.95,41.61-2.64,17.39-.87,34.79-.77,52.2-1.91,20.83-1.36,41.76-2.64,62.74-1.69,19.47.87,39,.9,58.47,1.5,24.91.77,49.81,1.78,74.72,2.59,6.23.2,12.47,0,18.7,0a29.6,29.6,0,0,0,3.87-.54c.15-2.93.16-5.6.44-8.24,1-9.36,2.43-18.68,3.09-28.06,1-14,1.46-28.07,2.12-42.11.6-12.77,1.19-25.54,1.7-38.31.19-5-.49-5.68-5.54-6.24-.63-.07-1.27-.12-1.91-.13-23.33-.26-46.66-.62-70-.74-24.13-.12-48.27-.17-72.41.07-20.93.2-41.85.7-62.77,1.34-16.93.53-33.85,1.48-50.77,2.21-4.31.19-8.63.14-12.94.39Q378.83,8.95,359,10.25c-2.83.18-5.64.6-8.67.94Z"/><path d="M832.41,322.87c2.63-.33,5.12-.85,7.61-.93,11-.35,22-.89,33.05-.77,14.37.16,28.73,1,43.1,1.31,17.25.38,34.5.42,51.74.77,13.73.28,27.46.74,41.19,1.26,5,.19,5.62.72,5.71,5.64.16,7.81-.14,15.63-.27,23.44,0,1.12-.28,2.23-.28,3.34,0,15.62-.2,31.25,0,46.87.14,8.45.75,16.88-.11,25.33-.54,5.23-1,10.47-1.42,15.71-.14,1.78-1.28,2.51-2.78,2.8a93.28,93.28,0,0,1-11.28,2c-8.91.63-17.85.84-26.77,1.34-19.29,1.08-38.57,2.37-57.86,3.3-9.89.47-19.81.42-29.71.45-14.06,0-28.12-.11-42.18-.12-9.17,0-9.07,0-10.07-9.14-1.65-15.13-.83-30.26-.26-45.4.37-10,.19-20.12.81-30.14.82-13.29-.55-26.46-1.14-39.68C831.44,328.11,832,325.92,832.41,322.87Zm3.19,2.95c-.11,2.44-.35,4.48-.29,6.52.34,11.32,1.09,22.64,1,34-.07,14.68-.66,29.35-1.23,44-.46,11.8-.79,23.56,1.33,35.26.92,5.09.94,5.18,6,5.25.48,0,1,0,1.44,0,16.13,0,32.25.11,48.37,0,11-.08,22-.28,33-.77,18.35-.82,36.68-1.88,55-2.89q11.46-.63,22.91-1.46c3.88-.28,5.22-1.8,5.59-5.64.27-2.86.76-5.69,1.12-8.54A82.19,82.19,0,0,0,1011,422c.11-16.28-.06-32.57.09-48.85.11-11.66.57-23.31.84-35a34.29,34.29,0,0,0-.29-5.26c-.57-4.24-1.19-4.94-5.4-5.18-10-.58-20.08-1.39-30.13-1.43-26.2-.1-52.4-.05-78.58-1.44q-12.67-.67-25.38-.6c-10.06.06-20.11.51-30.16.85C840,325.21,838,325.56,835.6,325.82Z"/><path d="M481.41,364.71c.23-3.75.3-6.61.61-9.45.48-4.31,1.31-5.3,5.55-5.8a66.39,66.39,0,0,1,11.44-.53c5.57.32,11.11,1.14,16.66,1.82,1.67.21,4.16.24,3.54,2.69-.55,2.19-2.91,1.74-4.46.94-3.95-2-8.06-1.05-12.48-1.37-.25,5.4.75,10.61-.73,16.13-3.24-2.26-2.18-5.39-2.53-7.93a64.62,64.62,0,0,1-.08-8.4,21.69,21.69,0,0,0-11-.09c-2.22.49-3.17,1.7-3,4.09.24,2.85,0,5.74.19,8.61.1,1.8-.26,3.15-2.07,3.82s-3-.27-4.13-1.54c-3.3-3.61-6.71-7.12-10.35-11-3.4,5.16.19,10.95-3.12,15.95-.31-1.22-.64-2.43-.92-3.65a21.16,21.16,0,0,1,.79-12.22c1.73-4.74,2.73-5,6.54-1.45,2.33,2.17,4.44,4.58,6.68,6.85C479.28,363,480.14,363.61,481.41,364.71Z"/><path d="M381.4,363.61l-9.49,2.45c-.8,2.56,2.19,5.3-.5,7.8-2.2-.37-2.4-2.43-2.89-3.88a35.16,35.16,0,0,1-1.54-7.47c-.27-2.41-.58-4.5-4-4,2-1.67,3.51-2.94,5-4.18,3.2-2.6,11.51-3,15-.33a5.44,5.44,0,0,0,4.77,1.06c4.73-.78,10.9,5.22,10.22,10a5,5,0,0,1-2.33,3.22c-5.35,2.7-10.56,2-13.13-3.26A8.44,8.44,0,0,0,381.4,363.61Zm-.78-5.91c-3.62-2.44-6.05-2.43-11.37-.05.75,1.6.64,3.83,3.26,3.85C375.64,361.52,378.94,361.76,380.62,357.7Zm9.4-.56c-4.41,3.34-5,4.84-3.63,6.95a5,5,0,0,0,6,1.55c1.88-.81,2.33-2.13,1.17-3.78S391.27,358.8,390,357.14Z"/><path d="M129.06,236.52c-.16-2.71-.44-5-.41-7.34.12-9.73,0-19.48.61-29.19a147.9,147.9,0,0,0-.83-28.15,9.47,9.47,0,0,1,.66-4.58c.28-.69,1.7-.93,2.6-1.38a7.23,7.23,0,0,1,1.05,2.43q.4,15.3.66,30.6c.18,11,.26,22,.48,33C133.94,235.39,134.07,235.39,129.06,236.52Z"/><path d="M133.78,392.78c-.7-10.17-1.32-20.35-2.13-30.52-.6-7.64-1.49-15.25-2.16-22.89a17,17,0,0,1,.32-4.72c.1-.51,1.08-1,1.73-1.16.36-.06,1.09.67,1.26,1.17a12.64,12.64,0,0,1,.42,2.83q2.4,27.42,4.78,54.85a38.72,38.72,0,0,1,.15,4.31c-.05,2-1.26,2.87-3.13,2.75-1.68-.11-2-1.39-1.92-2.77s.13-2.55.21-3.82Z"/><path d="M489.45,212.53A112.31,112.31,0,0,1,485,191.61c-.29-2.47,2.09-4.77,5.33-5a23.08,23.08,0,0,1,14.6,3.71,9.21,9.21,0,0,1,2.45,12.76,15,15,0,0,1-3.22,3.49C500.7,209.46,494.88,211.75,489.45,212.53Zm-.39-17.69c.59,2.85,1.4,6.75,2.23,10.64.44,2.05,2,2.37,3.69,2.06a12.9,12.9,0,0,0,9.51-7.24c1.42-2.87.89-4.78-1.69-6.66a18.39,18.39,0,0,0-10.33-3.32C489.89,190.21,489.08,191.21,489.06,194.84Z"/><path d="M515,199.73h8.44c-1.52,4.16-5.74,2.6-7.61,4.86.64,5.09,2.49,6.26,7.19,4.33,1.28-.52,2.6-1.31,3,.46a3.7,3.7,0,0,1-1.43,3.08c-5,3.19-10.4.88-12.52-4.77s-1.46-11.64-2.35-17.44a4.34,4.34,0,0,1,1.94-3.41c4-2.29,13-1.18,16.81,1.86-.68,2-2.05,1.79-3.77,1.47-3.11-.6-6.28-1.1-9.74.6Z"/><path d="M402.68,201.77c-.55-7.48,7.06-12.12,12-12.69a3.47,3.47,0,0,1,4.12,2.42c1.59,4.32,3.55,8.52,4.83,12.93,1.16,4-.37,6.81-4.28,8.47C409.62,217,402.52,211.76,402.68,201.77Zm3.72.32a32.08,32.08,0,0,0,.76,4c1.19,3.57,4.7,5.28,8.46,4.22s5.13-3.51,4-7.79c-.44-1.69-.66-3.74-1.75-4.89-1.44-1.53-1.71-4.75-4.47-4.43-3,.36-5.08,2.57-6.22,5.39A20.11,20.11,0,0,0,406.4,202.09Z"/><path d="M554.38,211.88A29.57,29.57,0,0,0,557,213.8c2.9,1.66,8,.28,9.06-2.75a5.63,5.63,0,0,0-.65-4.35c-.89-1.38-2.57-2.27-3.94-3.34-2.12-1.64-4.5-3-6.36-4.94-3-3.09-2.86-6.79.5-9.56a33.3,33.3,0,0,1,6.56-3.87c1.48-.74,1.6-.55,4.2,2.23l-4.82,2.64a16.62,16.62,0,0,0-3.21,1.78,2.53,2.53,0,0,0,0,4.15,48.46,48.46,0,0,0,6.92,5,10.68,10.68,0,0,1,5,6.09c1.37,4,.36,7.47-3.35,9.31a25.29,25.29,0,0,1-7.72,2.29C554.66,219.13,553.31,217.22,554.38,211.88Z"/><path d="M589.85,367.47l-6.61-4.84a24.22,24.22,0,0,1-2.43,3.7c-.39.42-1.44.23-2.19.32-1.69-4.37-3.47-8.42-4.82-12.62-1.86-5.82.08-8.5,6.25-8.57a16.34,16.34,0,0,1,6.85,1.45c2.76,1.28,3,3.6.81,5.77-1.65,1.65-3.58,3-5.8,4.87,3.72,2.1,7.62,3.51,8.81,7.7C590.84,365.69,590.33,366.31,589.85,367.47Zm-10-13.34c2-1.53,4.71-1.22,4.63-4.88l-6.23-.78C578.88,350.61,579.28,352,579.87,354.13Z"/><path d="M530.53,213.38a32.27,32.27,0,0,1-1.06-5.17c-.11-7.13,1.69-13.92,4.21-20.5,1.3-3.39,3.69-3.6,5.43-.34a83.86,83.86,0,0,1,4.61,11.5c1.28,3.6,2.33,7.28,3.45,10.94.28.9.78,2,.53,2.75-.34,1-1.18,2.4-2.05,2.62-1.59.41-1.91-.94-2-2.41a32.81,32.81,0,0,0-1.25-7.42c-.92-2.79-2.17-3.13-5.77-2.51-3.44.58-3.87,1-4.16,4.07-.15,1.58-.29,3.17-.48,4.75C531.92,211.91,531.58,212.12,530.53,213.38Zm6.39-22-1.46,0-2,7.88,6.39-.46Z"/><path d="M258.41,360.49c1.94-.92,3.79-2.32,5.83-2.65a33.44,33.44,0,0,1,9.05-.13c4.12.48,5,3.17,2.26,6.33a25.63,25.63,0,0,1-2.93,2.42c-.89.77-1.73,1.6-2.86,2.66,3.82,1.95,8.5,1.52,10.54,6.51-5,1-8.59-2.76-13.21-2.76-.33,1.18-.69,2.46-1.13,4.09-.87-.14-2.14,0-2.5-.47a7.2,7.2,0,0,1-.85-3.13,42.38,42.38,0,0,0-.7-5.68,53.56,53.56,0,0,0-2.62-6.29Zm14,2.27-.33-.95H264.5c.45,1.65.8,2.91,1.3,4.69Z"/><path d="M215,216.61c-1.11-1.81-2.47-3.24-2.93-4.92-1.14-4.08-1-4.13-6.08-3.34-.67,2.68-1.35,5.46-2.19,8.86-3.59-6.31-2.82-21.73,1.27-28,1.21,1.29,2.68,2.29,3.36,3.67,2.91,6,5.59,12.15,8.38,18.23C217.64,213,218.09,214.76,215,216.61Zm-9.11-19.88c-.69,5.94-.69,5.94,2.76,6C209.17,200.36,208,198.75,205.87,196.73Z"/><path d="M286.81,204.66h-8.37c-3.13,1.9-.18,7.08-5.47,7.47a31.15,31.15,0,0,1,.24-3.19c1.09-5.63,2.23-11.26,3.35-16.89a10,10,0,0,1,.61-2.79c.64-1.18,1.48-2.89,2.47-3a4.46,4.46,0,0,1,3.54,1.84,51.47,51.47,0,0,1,4.52,8.4c2.07,4.82,3.81,9.79,5.75,14.67.54,1.38.65,2.54-.95,3.13s-2.33-.58-2.81-1.83C288.68,209.78,287.72,207.11,286.81,204.66Zm-5.5-13.52-1.29.11c-.94,3.06-1.95,6.11-1,9.81l6.5-.84Z"/><path d="M222.68,370.82c2.24-3.76,3.76-6.54,5.49-9.18s3.69-2.63,5.49.11a4.14,4.14,0,0,1,.59,1.3c1.29,5,2.55,10.07,3.88,15.34-2.94.49-3.64-1.16-4.15-2.78-.81-2.59-1.4-5.24-2.16-7.84a42,42,0,0,0-1.64-3.87c-1.42,3.19-2.39,5.46-3.45,7.69-2,4.16-4,4.5-7.15,1.2-1.19-1.22-2.3-2.52-4.08-4.49-.76,4.3-1.37,7.8-2.06,11.77-.78-.58-1.67-.9-1.77-1.38-1.17-5.69.75-11.05,2-16.46.3-1.34,2.11-1.41,3.05-.15.76,1,1.16,2.28,1.88,3.33C219.73,367,221,368.59,222.68,370.82Z"/><path d="M285.88,367.18c1.33,5.61,3.36,6.24,13.67,4.28.11,2.76-1.58,4-3.73,4.76-5.69,2-12.44-1.41-13.89-7.27a23.23,23.23,0,0,1-.56-6.6c.09-1.71.82-3.3-.48-5-.32-.41.44-2.46,1-2.6,4.77-1.2,9.55-2.67,14.56-1.67.52.1.93.73,1.6,1.28-3.12,4.5-8.47.86-12.11,3.79v4.09h7.79C292.12,366.18,288.09,365.32,285.88,367.18Z"/><path d="M183.72,207.84c.2,2.28.39,3.67.43,5.07a8.59,8.59,0,0,1-.28,3.3,3.19,3.19,0,0,1-2.05,1.54c-.39.09-1.22-.87-1.51-1.5a6.72,6.72,0,0,1-.33-2.35c-.37-5.42-.75-10.84-1-16.26a31.89,31.89,0,0,1,.38-4.3c3.55.63,2.8,3.07,3.15,4.89s.73,3.66,1.17,5.82l7.41-1c1-3.72-.7-7.53,1.75-11.74,3.67,8.57,2.12,17,4.11,24.81-3.22.94-3.69.78-4.12-1.75-.37-2.16-.49-4.37-.78-7.17Z"/><path d="M359.64,192.81H348.57c-.4-2.36.8-2.95,2.1-3.06,7.94-.7,15.88-1.36,23.83-1.86.88-.06,1.82.9,2.74,1.38-.62,1-1,2.38-1.92,2.88s-2.42.4-3.65.34-2.51-.51-3.77-.55c-3.76-.11-4.52.73-4.09,4.52.65,5.7,1.44,11.39,2,17.11.09.88-.4,2.45-1,2.67-1.59.59-2.28-.81-2.47-2.12-.7-5.05-1.29-10.13-1.93-15.19C360.18,197.05,359.94,195.17,359.64,192.81Z"/><path d="M236.06,192.75c0,2.13-.05,3.24,0,4.34a14.91,14.91,0,0,0,.55,2.24c1.27,0,2.49,0,3.71,0s2.37.17,3.74.27c-.58,4.54-4.76,2.88-6.89,4.9a4.81,4.81,0,0,0,3,5.58c1.83.63,4.15-.18,6.67-.39-.21,1-.13,2.07-.61,2.65-2.62,3.08-9,2.76-10.68-.87s-2.38-7.84-3.45-11.81a7.28,7.28,0,0,1-.06-2.38c.17-2.39-1.44-5.4,1.59-6.91,3.58-1.78,7.4-3.23,11.48-1.74.81.29,1.26,1.57,1.88,2.39a7.9,7.9,0,0,1-2.57,1.33C241.8,192.63,239.15,192.63,236.06,192.75Z"/><path d="M773.92,344.62a5.66,5.66,0,0,1-1.4-.37c-4.2-3-6.17-2.89-9.72.77a14.4,14.4,0,0,0-3.92,13.64c.67,3.29,1.86,4.5,5.07,4.68a53.88,53.88,0,0,0,6.62-.41c-.93-4.18-4.71-4.22-6.76-6.31,3.54-1.08,7.68,0,9.45,2.25,1.93,2.49,1.31,5.85-1.69,6.52a46.21,46.21,0,0,1-10.84.87c-1.13,0-2.53-1.36-3.3-2.45-5.11-7.19-1.36-20.27,6.75-23.92C768.54,337.93,772,339.46,773.92,344.62Z"/><path d="M350,206.33c-.63,3.6-2.32,6.23-5.21,7.37s-7.43.45-9.34-1.87c-4.59-5.54-6.68-15.12,3.18-20.14,3.5-1.79,5.46-1.42,7,2.09C347.29,197.85,348.52,202.14,350,206.33Zm-3.4-.07c-1.12-3.37-1.8-6.33-3.07-9s-3.45-2.9-5.74-.69c-3.1,3-2.65,10.54,1,12.75a6.31,6.31,0,0,0,4.84.68C344.9,209.51,345.61,207.56,346.57,206.26Z"/><path d="M335.37,358.38c1.77,1.95,3.12,3.43,4.48,4.91,3.37,3.66,5.35,3.41,8-.84,1.25-2,2.77-3.75,4.81-6.48,3.6,6.76,5.62,13,7.7,19.26-6.17-1.88-4.65-8.8-8.85-12.63-1.14,1.59-2.1,3-3.09,4.31-2.8,3.8-4.48,4.1-8.34,1.4-1.42-1-2.74-2.13-4.74-3.7-.56,3.25-1,6-1.51,8.7-.35,2-.34,2-3.22,2.5A25.58,25.58,0,0,1,335.37,358.38Z"/><path d="M608.61,356.13c-.48,4.15-.87,7.46-1.23,10.76-.18,1.63-.4,3.17-3.12,2.82,1.7-6.32.18-13,3.82-19.69l8.76,8.78c3-.64,3.39-2.94,4.34-4.69s1.6-3.39,2.61-5.57c1.2,1,2.33,1.44,2.75,2.27q3.21,6.35,6.05,12.88c.24.57-.49,1.56-.77,2.35-.82-.3-1.88-.37-2.39-.94s-.66-1.76-1-2.65c-1-2.47-2-4.92-3.07-7.39l-1.16-.05c-.71,1.48-1.45,2.95-2.13,4.45-1.94,4.32-3.88,4.9-7.58,2C612.63,360,611,358.31,608.61,356.13Z"/><path d="M782.77,349.24c3.52,1.55,6.49-1.37,9.25,1.1-.82,2.27-2.95,2.09-4.66,2.52-5.3,1.34-6.19,3.7-3,8.08,1.37,1.91,3.06,2.7,5.37,1.88,1.31-.46,2.63-.9,3.84-1.31,1.44,1.52.89,2.66-.26,3.45-5,3.48-10.54,2-13-3.6s-1.79-11.21.6-16.69a3.49,3.49,0,0,1,.8-1.17c2-1.92,10.09-3,12.85-1.7.33.16.46.73.85,1.39C791.65,346,784.88,342.81,782.77,349.24Z"/><path d="M408.11,361l6.3-5.53h-8.22c-.74,5.59,2.72,10.77.63,16.27-1.09-.54-1.81-.67-1.88-1-1.19-4.93-3.95-9.55-3.13-14.85a4.06,4.06,0,0,1,2-2.84c3.94-1.46,8.09-2.09,12.19-.79a4.74,4.74,0,0,1,2.82,2.67c.23.79-.89,2.31-1.79,3a47.22,47.22,0,0,1-5.44,3.19c9.06,3.93,10.41,5.47,8.72,9.26Z"/><path d="M437.51,197.29c-.72,3.89-4,3.13-6.13,4.94,0,1,0,2.39,0,3.77,0,.95.53,2.05.2,2.79a4,4,0,0,1-2.29,1.89c-.4.12-1.49-1-1.74-1.73a16.34,16.34,0,0,1-.24-3.31c-.52-4.89-1-9.78-1.66-14.64-.36-2.68.08-4.48,2.39-4.95a126.38,126.38,0,0,1,12.73-1.72,5.24,5.24,0,0,1,3.18.82c.74.49,1,1.63,1.53,2.49a7.36,7.36,0,0,1-2.42,1c-3.15,0-6.34-.38-9.46-.11s-3.79,1.26-3.61,3.86c.25,3.69.84,4.37,4,4.64Z"/><path d="M649.57,364.35c.8,2.68-.22,3.91-2.36,4.57a8.53,8.53,0,0,1-10.08-3.4,28.8,28.8,0,0,1-2.84-7,15.91,15.91,0,0,1-.51-4.73c0-2.43-1.38-5.49,1.44-7a13.78,13.78,0,0,1,10.63-1.1c.54.16.83,1.12,1.52,2.13a20.08,20.08,0,0,1-3.06.6c-6.54,0-7.36,1-6.14,7.75,2.94,1.51,5.91-2.06,9.26-.31-1.55,4-5.86,3-8.19,4.93C641,366.13,643,366.86,649.57,364.35Z"/><path d="M225.27,204.47c.72-5.35-.52-11,2.35-17.1.77,1.66,1.4,2.4,1.42,3.16.17,6.37.22,12.75.3,19.13a6.2,6.2,0,0,1-.12,2.37c-.41.95-1.07,2.33-1.8,2.45a4.22,4.22,0,0,1-3.23-1.12,9.55,9.55,0,0,1-2.09-3.72q-2.44-7.24-4.63-14.58a19.86,19.86,0,0,1-.37-3.87c2.84-.73,3.53.93,4.07,2.86,1,3.49,2,7,3,10.48Z"/><path d="M250.48,379a11,11,0,0,1-10.78-10.41c-.07-4.87,4.63-9.19,9.88-9,2.36.1,4.24.86,5,3.57a37,37,0,0,0,2.86,7.07c2.13,4.16-.65,6.68-3.61,7.9A17.91,17.91,0,0,1,250.48,379Zm-.43-3.88c3,0,4.41-1.68,3.65-4.62a29.19,29.19,0,0,0-1.93-5.84,3.65,3.65,0,0,0-2.81-1.76c-3,.23-5.54,3.12-5.42,5.71C243.68,371.79,247.05,375.16,250.05,375.14Z"/><path d="M798.76,345.3c-.71-2.22-.06-3.51,1.49-3.86a50.61,50.61,0,0,1,20.8-.09c.51.1.9.79,1.41,1.26-1,2.36-2.68,2.46-4.74,2.09s-4.27-.49-7.24-.8c.71,7.45,1.35,14.13,2,21.32-.83-.35-2.17-.48-2.44-1.09a26.18,26.18,0,0,1-2-6.26c-.55-3.29-.62-6.66-1.14-9.95-.58-3.67-1.21-4-4.71-3.4C801.19,344.71,800.13,345,798.76,345.3Z"/><path d="M180.66,376.55c1,.32,1.91.64,2.86.93a39.56,39.56,0,0,0,4.46,1.27c1.54.26,3.09-.31,3.36-1.94a5.3,5.3,0,0,0-.72-3.9c-1.09-1.22-2.85-1.88-4.37-2.69-2.18-1.17-5.31-1.66-5.25-4.79.08-3.35,3.1-4.74,5.73-5.69,1.71-.62,3.83-.12,5.93.62l-7.48,4.35c1.82,1,3,1.68,4.23,2.36a26.13,26.13,0,0,1,3.27,1.95,9.07,9.07,0,0,1,2.95,9c-.9,2.82-3.88,4.78-7.48,4.91a8,8,0,0,1-7.83-5C180.23,377.68,180.45,377.33,180.66,376.55Z"/><path d="M156.86,365.93c-3,.56-5.54,1-8.12,1.54-1.6.32-1.59.35-3.35-1.6,1.68-2.16,4.15-2.81,6.63-3.11,6.17-.73,12.36-1.27,18.54-1.88a4.31,4.31,0,0,1,.95,0c1.35.14,3.26-.31,3.29,1.74s-1.9,1.68-3.26,1.82c-3.6.4-7.2.77-11.3,1.21.7,4.11,1.34,7.67,1.91,11.23.21,1.28,1.47,3.07-.65,3.54-.68.15-2.29-1.56-2.63-2.68A81.42,81.42,0,0,1,157,368.9,24.82,24.82,0,0,1,156.86,365.93Z"/><path d="M573.49,358.41c-.43,4.65-1.66,6.32-6.19,7.84-4,1.34-5.39.86-8.06-2.83-4.35-6-2.47-14.15,3.79-16.43,3.32-1.21,5.61-.62,7.22,2.58A74,74,0,0,1,573.49,358.41ZM560.42,356a29.43,29.43,0,0,0,1,3.91c.74,1.77,1.57,3.59,4,3.35,2-.19,4.35-2.3,4.22-4.48A18.82,18.82,0,0,0,568,352c-1.34-2.8-4.4-2.86-6-.24A21.24,21.24,0,0,0,560.42,356Z"/><path d="M555.42,346.08c-4.63,1.22-9.52-.57-13.22,3.45l1.16,4.05,12-1c-3,4.25-7.47,3-10.52,5.59.27,1.77.55,3.78.88,5.78.23,1.38.14,2.69-1.43,3.06-2,.45-2.5-1.1-2.66-2.55-.28-2.48-.12-4.86-1.54-7.3-1.15-2-1.13-4.75-1.19-7.19a6.59,6.59,0,0,1,1.27-4.23c2.34-2.64,10.72-3.49,14-1.68C554.47,344.25,554.62,344.81,555.42,346.08Z"/><path d="M702.21,346.6c-1.91,2.33-4.13,3-7.14,2.13-2.18-.6-4.56-.45-6.84-.63-1.87,5.47,1.52,9.5,1.87,14.15-2,1.35-3.29.5-3.8-1.5-.82-3.23-1.37-6.53-2-9.8-.12-.61-.15-1.24-.25-2.07-4.3-1.41-8.57,2-13.32.17a9.68,9.68,0,0,1,6.68-3c6.82-.73,13.66-1.22,20.5-1.73C699.65,344.19,701.45,344.27,702.21,346.6Z"/><path d="M460.2,372.91,456.4,365l-8.4,1.35c-2,1.73,1.78,4.53-1.7,6-1.1-2.87-2.76-5.39-2.07-8.61,1.37-6.35,3.68-10.81,7.25-13.65a8.65,8.65,0,0,1,5.76,5.77c1.46,5.19,2.58,10.47,3.8,15.72C461.09,371.73,460.76,372,460.2,372.91Zm-9-18.83c-1.52,2.59-3.75,4.73-2.21,8.24l6.72-.29C454.37,358.74,454.25,355.82,451.17,354.08Z"/><path d="M721.77,355.79c-.22,3.83-.49,4.27-4.06,5.29a21.12,21.12,0,0,1-4.67.79c-5.19.29-8.34-3.21-7.66-8.37s3.52-8.8,7.9-9.53c1.25-.2,3.4,0,3.84.8C719.1,348.22,722.25,351.29,721.77,355.79Zm-8.62,3c3.44-.12,5.87-2,5.73-4.35-.19-3.45-2.81-7.22-5-7.18-2.86.06-5,3.39-4.91,7.57C709.08,357.64,710.36,358.86,713.15,358.76Z"/><path d="M317.87,190c2.8.88,2.72,2.66,2.84,4.38q.41,6.17.86,12.34c.38,4.92.7,5.17,5.74,5a15.53,15.53,0,0,1,2.22.25,2.13,2.13,0,0,1-1.54,3.09,21.67,21.67,0,0,1-5.09,1.07c-3,.2-4.24-.54-4.54-3.59-.63-6.3-.9-12.64-1.21-19A16,16,0,0,1,317.87,190Z"/><path d="M433.13,367.57a28.37,28.37,0,0,1-2.57-2.93,7.47,7.47,0,0,1-.59-2.3c-1.43-6.07-1.43-6.07-7.93-6.88.56-1,.86-2.33,1.47-2.49a36,36,0,0,1,17.95.18c.35.09.57.7.94,1.19-2.57,2.86-6.21.57-9.13,2-1.53,3.57,1.39,6.93,1,10.47Z"/><path d="M482.5,210.71a3.85,3.85,0,0,1-.4,1.73,2.55,2.55,0,0,1-1.9,1.06,2.21,2.21,0,0,1-1.45-1.52c-.7-5.37-1.27-10.76-1.84-16.15a3.16,3.16,0,0,1,.22-1.87,11.27,11.27,0,0,1,1.79-1.87c.59.62,1.59,1.18,1.7,1.88.45,2.83.61,5.71.91,8.56C481.8,205.08,482.13,207.61,482.5,210.71Z"/><path d="M77.65,208.18c-2.27,0-4.36-1.73-4.33-3.54,0-2.48,3-5.31,5.36-5.15,1.94.13,4,2.54,4,4.71S80.46,208.22,77.65,208.18Z"/><path d="M78.89,369.07c0-3.33,1.6-5.47,4.09-5.41,2.08,0,4.33,3.07,4.19,5.64-.1,2-2.39,3.89-4.74,3.94C80.25,373.28,78.91,371.7,78.89,369.07Z"/><path d="M327.63,376.93c-1.41,1.45-3.38,1.39-3.8-.32-1.25-5.06-2.94-10.16-2.44-15.88,3.11.48,3.28,2.42,3.66,4.22C325.87,368.79,326.7,372.63,327.63,376.93Z"/><path d="M181,346.41a42.8,42.8,0,0,1-2.59,5.32c-.34.52-1.6.43-2.44.62-.16-.84-.75-1.93-.42-2.47C176.62,348.13,177.71,346.07,181,346.41Z"/><path d="M62.79,92.73c-3.47-2.53-2.83-5.07-2.94-7.37-.55-11.13-1.07-22.25-1.63-33.95C51.76,51.66,45.75,53,39.71,54L21,57c.57-1,.8-2.16,1.42-2.47,2.26-1.11,4.58-2.46,7-2.8C41.61,50,53.8,48.39,66,47.09c9.35-1,18.76-1.54,28.16-2.15C98,44.69,98.26,45,98.53,48q-16.09,1-32.21,2.06a22.51,22.51,0,0,0-2.84.37c-1.91.38-2.52,1.54-2.35,3.48.75,8.09,1.55,16.19,2,24.3C63.36,82.73,62.94,87.26,62.79,92.73Z"/><path d="M320.72,72.24c-2.54,7.79.23,15.05-.28,23.17-4.8-6.48-5.37-25.38-1.26-31.18,3.95,2.42,4.17,7.3,6.88,10.45s5.11,6.83,8.24,11.08c.17-4.16.46-7.45-.56-10.85a44.47,44.47,0,0,1-1.46-8c-.18-1.68,0-3.48,2.16-4.53,1.39,8.15,2.76,16,4.08,23.91a7.64,7.64,0,0,1-.07,2.86c-.62,2.8-3.26,3.62-5.36,1.5a31.52,31.52,0,0,1-3.55-5Q325.11,79,320.72,72.24Z"/><path d="M247.11,61.29c-1.87.54-3.19.88-4.48,1.31A10.15,10.15,0,0,0,240,63.73c-1.64,1.15-4,1.86-3.82,4.43s2.12,3.66,4.2,4.72c3.51,1.81,7.36,3.32,10.25,5.88,8,7.11,4.89,15.51-4.61,19.8a17.62,17.62,0,0,1-6.1,1.06c-4.66.26-6.75-1.33-8.71-6.33,1.75-1.44,2.93.31,4.29.83,4,1.5,7.93,2.43,11.82-.34,4.52-3.21,5.24-7.88,1.27-11.73-2.22-2.16-5.16-3.6-7.85-5.25-1.21-.74-2.68-1.07-3.88-1.82-5.65-3.54-5.67-10.11,0-13.54a25.83,25.83,0,0,1,4.77-2.21C243.45,58.56,245.31,58.47,247.11,61.29Z"/><path d="M158.59,81.75c3.2-2.53,6.61-1.91,10.09-.38C171.47,82.6,172,85,172,87.69a5.9,5.9,0,0,1-3.48,5.79,21.47,21.47,0,0,1-12.05,2.24A8,8,0,0,1,149.31,89c-1.45-7.58.45-14.6,4.65-20.91,1.52-2.28,4.14-4,7-3a7.3,7.3,0,0,1,4.88,6,8,8,0,0,1-.5,2.31c-1.25-1.5-2.09-2.58-3-3.59-1.88-2.05-2.68-2.11-4.71-.14a7.59,7.59,0,0,0-2.2,3c-1.08,4-2.5,8-2.64,12-.19,5.31,1.95,8.13,7.4,7.2a23.32,23.32,0,0,0,6.36-1.69c1-.49,2.16-2.38,2-3.35-.28-1.26-1.69-2.52-2.93-3.23-1-.57-2.48-.3-3.75-.44-1-.1-2.08-.25-3.12-.38C158.68,82.46,158.63,82.1,158.59,81.75Z"/><path d="M190.13,60.45a9.91,9.91,0,0,1,.82,2.3c.55,6.2.87,12.41,1.58,18.59.41,3.58,1.48,7.09,2.12,10.66.13.76-.12,2.13-.59,2.33a2.58,2.58,0,0,1-2.46-.48,17.93,17.93,0,0,1-2.15-5.2c-.55-2.45-.66-5-1-8.16-3.12.54-5.9.91-8.63,1.52-2,.45-2.12,2.19-2,3.84.16,2.22.55,4.44.57,6.66,0,.77-.79,1.54-1.22,2.31-.72-.67-2-1.26-2.08-2-.69-4.56-1.19-9.16-1.6-13.76-.26-3-.3-6.06-.34-9.09,0-1.38-.11-3,2.08-3.53,2.51,3.47.27,8.19,3.08,12l10.17-1.83c0-2.79-.06-5.58,0-8.37.1-2.58.39-5.14.59-7.71Z"/><path d="M289.18,79.65a16.57,16.57,0,0,1,3-10.34c4.16-6.18,10.77-8.17,16.24-.57a22.3,22.3,0,0,1,4.26,16.73,10.87,10.87,0,0,1-16.91,7.25A14.6,14.6,0,0,1,289.18,79.65Zm3.05,1a34.54,34.54,0,0,0,2.51,6.24c2.63,4.34,6.72,5.18,11.14,2.73,2.85-1.57,4.57-5.54,4.22-9-.41-4-2.85-7-4.88-10.2-2.15-3.37-6.18-3.78-8.82-.74C294,72.42,292.74,75.67,292.23,80.65Z"/><path d="M112.9,95.52c-8.81-.63-12.41-4.58-12.94-14.38-.35-6.61,3-10.86,8.82-12.58,3.79-1.11,6.16.17,9.12,3,5,4.76,4.5,11,5.28,16.88a4.31,4.31,0,0,1-2.69,4.68C118,94.07,115.43,94.72,112.9,95.52Zm6.53-10.85c.95-4.4-2.3-7.48-4.26-10.89-1.63-2.84-4.09-2.91-7-1.2-5.19,3-6.26,12.45-1.91,16.73,2.49,2.45,6.79,3,10.24,1.7C119.62,89.83,119.79,87.53,119.43,84.67Z"/><path d="M82,82.87,93,81.08c-.52-4.58-1-8.87-1.47-13,2.27-1,2.93.09,3.23,1.41.67,3,1.29,5.93,1.78,8.93.91,5.58,1.7,11.19,2.6,17.23-.86-.35-2-.46-2.26-1A41,41,0,0,1,94.48,88c-.51-2-1.4-3.16-3.61-2.83-.64.1-1.27.15-1.91.2-7.06.53-7.06.53-7.23,7.59a3.85,3.85,0,0,1-.09,1.41c-.25.53-.77,1.36-1.1,1.33-.67-.07-1.75-.52-1.86-1a52.1,52.1,0,0,1-1-6.61c-.38-4.28-.66-8.58-1-12.87-.13-1.73-.6-3.54,1.76-4.95C81.39,73.9,79.63,78.93,82,82.87Z"/><path d="M215,95.19c-3.06-3.45-3.37-7-3.49-10.61-.18-5.41-.29-10.82-.46-16.23,0-.91-.21-1.82-.4-3.3-2.86.22-5.5.41-8.14.65a20,20,0,0,1-2.82.36c-.49,0-1.31-.65-1.33-1,0-.64.29-1.7.75-1.9a13.61,13.61,0,0,1,4.56-1.32c7.15-.4,14.31-.77,21.46-.83,3.32,0,3.58.66,3,4l-12.5-.81c-1.63,3.86-.54,7.21-.68,10.47-.15,3.49.08,7,.11,10.51C215,88.23,216.87,91.4,215,95.19Z"/><path d="M141.91,66.13c.81,1,1.41,1.45,1.48,1.93.9,6.63,2.28,13.25,2.41,19.89s-6.12,9.85-12.19,6.75a11.46,11.46,0,0,1-5.91-6.65,124.79,124.79,0,0,1-3.2-13,4.5,4.5,0,0,1,2-5.1c2,1,1.71,2.92,1.8,4.56.25,4.67.84,9.25,3.34,13.35,1.39,2.27,3.1,4,6,4.09,3.14.08,4.67-.7,5-3.82a60.23,60.23,0,0,0,.06-10.91c-.21-2.69-1.14-5.31-1.58-8C141.1,68.48,141.56,67.62,141.91,66.13Z"/><path d="M589.76,57.06l-11.07,1.39c1.13-1.7,1.44-2.7,2.08-3a14.5,14.5,0,0,1,4.09-1.26,49,49,0,0,1,7.61-.89c9.48,0,18.52-2.81,27.79-4.16a44.16,44.16,0,0,1,8.12-.45c2.74.11,3,.86,1.79,4.12-7.9-.71-12.84-.12-19.08,2.37V68.7c4.86,1.76,9.59-2.37,14.58.6-3.63,4.75-10.1,1.5-13.4,5.75,0,7.94.28,8.19,8.34,7.54,2.54-.2,5.09-.25,7.64-.32.26,0,.53.32.81.49.52,1.79-.32,2.95-2,3.08a123.41,123.41,0,0,1-13.85.6c-3.24-.12-4.21-1.5-4.55-5.07-.67-7.15-1.24-14.3-1.78-21.46-.27-3.54-.78-4.14-4.37-4-3.32.16-6.63.48-9.95.73.19,3.84.39,7.29.51,10.75s.38,7,.2,10.54c-.17,3.33,1.34,6.82-.43,10.06-2.55-.31-2.64-2.1-2.8-3.62-.24-2.21-.26-4.46-.28-6.69C589.74,71.17,589.76,64.63,589.76,57.06Z"/><path d="M375.76,64.87l-16.34,2c-.52-2.72.9-3.55,3.29-3.82,7.62-.87,15.22-1.85,22.84-2.7,3.79-.43,7.59-.68,12.09-1.07.51,3.51,1.05,7.17,1.64,11.26l9.49-.78c1-4.63-1-9.24,1.89-14.21.79,1.71,1.46,2.55,1.55,3.46.89,8.41,1.67,16.84,2.48,25.26.08.79.38,1.75.05,2.34a9.83,9.83,0,0,1-2.17,2.09C412,88,411,87.36,411,86.63c-.33-3-.27-6.06-.57-9.08-.32-3.2-.74-3.59-3.81-3.59-2.33,0-4.67.29-7.57.49.25,3.39.43,6.21.67,9,0,.46.42.88.48,1.34.21,1.65.33,3.45-1.87,3.72-2,.24-2.22-1.49-2.3-2.93-.25-4.95-.46-9.89-.6-14.84-.2-7.12-1.07-7.93-8.31-7.22-2.34.24-4.65.69-7.32,1.1.07,7.26-.15,14.09,1.53,20.81.15.62.72,1.3.57,1.79a18.19,18.19,0,0,1-1.51,3.07c-.68-.72-1.78-1.35-2-2.17a78.81,78.81,0,0,1-1.26-8.52C376.63,75,376.26,70.41,375.76,64.87Z"/><path d="M529.75,73.26c2.65.54,4.16.83,5.67,1.16a9.06,9.06,0,0,1,6,12.82c-3.47,6.78-14.76,9.57-20.84,5a3.69,3.69,0,0,1-1.27-2.75,127.31,127.31,0,0,0-1.43-27.65c-.43-3,.69-5.27,3.19-5.55a49,49,0,0,1,12.33-.28c5.62.82,7.29,5.74,3.89,10.32A27.66,27.66,0,0,1,533.47,70C532.55,70.79,531.61,71.61,529.75,73.26Zm-7.65-5.5H522c.34,6.19.7,12.39,1,18.59a3.77,3.77,0,0,0,2.38,3.75A9.89,9.89,0,0,0,537.51,86a5,5,0,0,0-2.12-7.3A23.59,23.59,0,0,0,530,77c-2.21-.49-4.82-.71-5.18-3.37s2.19-3.56,4-4.82A28.28,28.28,0,0,0,533.64,65c1.92-2.13,1.29-4.26-1.46-5.12a15.63,15.63,0,0,0-5.18-.66c-4,.16-5.23,1.71-5.07,5.73C522,65.86,522,66.81,522.1,67.76Z"/><path d="M471.71,86c4.91-4.66,3.61-11,6.57-16.6,3.62,4.43,4.49,9.88,9,13.37a14.57,14.57,0,0,0,.62-2.81q-.12-9.08-.38-18.16c-.06-2-.42-4.12,1.61-5.93.47.57,1.11,1,1.13,1.44.38,7.8.69,15.6,1,23.41a23.42,23.42,0,0,1-.05,3.35c-.37,3.5-2.91,4.61-5.64,2.31a34.35,34.35,0,0,1-4.06-4.67c-.6-.73-1.09-1.54-2.13-3-1.14,2.61-2,4.71-3,6.73-1.12,2.25-2,5.14-5.23,4.8s-3-3.42-3.39-5.61q-1.87-9.87-3.26-19.83c-.21-1.53.51-3.19.84-5,2.82,1,2.63,2.84,2.84,4.55.71,5.85,1.45,11.71,2.27,17.55A30.23,30.23,0,0,0,471.71,86Z"/><path d="M544.37,83.94c1.66,1.67,3,3.13,4.46,4.46,3.44,3.11,6.88,3.16,10.42.77s4.28-9.22-.1-11.27c-2-.94-3.79-2.37-5.73-3.46-4.73-2.66-6.33-7.06-6.51-12.06A6.46,6.46,0,0,1,551.12,56c2.59-1,5.45-1.34,8.89-2.12.24,2.44.4,4.15.59,6.12-1.05-.1-1.69,0-1.89-.2-1.66-1.93-3.55-2-5.58-.77A4.57,4.57,0,0,0,551,64.36a11.21,11.21,0,0,0,3,5.21,38.63,38.63,0,0,0,7.15,4.75c3.84,2.18,6.06,5.35,5.62,9.75a10.69,10.69,0,0,1-7.2,9.37,18.88,18.88,0,0,1-7,1.19C547.8,94.48,543.58,89.09,544.37,83.94Z"/><path d="M442.28,62.74c-1.27-1-1.95-1.64-2.66-2.18-2.33-1.77-4.87-1.51-6.2.61-1.2,1.9-.56,4.38,1.65,5.77s4.49,2.41,6.61,3.8c3.81,2.5,5.31,6.28,5.25,10.69-.09,6-3.62,9.79-9.59,10.48-.32,0-.64.06-1,.08-7.79.62-10.57-3-8.28-10.78,2.06-.37,1.75,1.35,2.12,2.43,1.33,4,2.59,4.8,6.67,4.43a6.41,6.41,0,0,0,6-5.81c.47-3.44-.36-6.38-3.43-8.32-2.15-1.37-4.32-2.73-6.59-3.88-3.21-1.62-4-4.42-3.86-7.6s2.08-5.23,5.12-6.18c.61-.19,1.23-.34,1.85-.49C441.52,54.47,442.78,55.68,442.28,62.74Z"/><path d="M494.89,56.29c5.34-.36,9.95-.81,14.56-.92,3.3-.08,3.51.32,4,4.09-2.08-.14-4.08-.36-6.08-.4-9-.14-10.21,1.14-9.29,10.09a19.52,19.52,0,0,0,.55,2.26l9.4.47c-.72,1.75-.72,1.75-9.58,4.79.15,1.82.19,3.83.5,5.8.44,2.8,1.82,4.75,5,4.67,1.31,0,2.76,0,2.87,1.72.14,2-1.52,2.39-2.92,2.34-4.8-.18-8.28-1.24-8.64-6.15-.12-1.58-.61-3.14-.66-4.73-.23-6.21-.41-12.43-.47-18.65A37.57,37.57,0,0,1,494.89,56.29Z"/><path d="M569.87,54.09c2.15.19,2.28,1.8,2.43,3.16.43,3.8.69,7.62,1.06,11.43.52,5.22,1.07,10.44,1.61,15.65a13.56,13.56,0,0,1,.33,3.32c-.12.78-.9,1.45-1.39,2.18-.75-.63-2.07-1.18-2.17-1.89-.72-5.53-1.25-11.09-1.75-16.65-.35-4-.54-7.93-.81-11.9C569.05,57.56,568.31,55.64,569.87,54.09Z"/><path d="M421.67,89.22c-.62-1-1.35-1.6-1.39-2.26q-.69-13.58-1.18-27.16c0-.84.42-1.7,1.59-2.79a9.82,9.82,0,0,1,1.4,2.93c.53,5.22.89,10.46,1.29,15.69.24,3.15.41,6.31.67,9.45C424.2,86.8,424.27,86.79,421.67,89.22Z"/><path d="M958.79,352c3.24,1.39,6.88-1,9.85,1.55-.77,2.1-2.61,1.69-4,2s-3.08.42-4.62.62c.8,5.35,2.45,6.36,9.12,5.83.59,2.16-.42,3.28-2.42,3.54-3,.39-5.66-.1-7.87-2.46-3.07-3.28-3.76-7.29-3.91-11.5-.06-1.69,0-3.37,0-5.13l-12.09-1.08c.38,5.92.72,11.22,1.07,16.53l-.9.39c-.64-.69-1.7-1.3-1.85-2.08a88.19,88.19,0,0,1-1.39-9.43c-.5-5.42-.82-5.76-6-5.06a5.36,5.36,0,0,1-1.87.21,2.07,2.07,0,0,1-1.34-1.07c-.14-.46.18-1.47.53-1.6,1.93-.67,3.94-1.66,5.89-1.6,4.6.14,9.19.75,13.77,1.32a8.86,8.86,0,0,0,4.82-.65,25,25,0,0,1,16.8-.73c.72.23,1.11,1.53,2.07,2.94-1.74,0-2.62.08-3.48,0-1.58-.18-3.15-.66-4.72-.69C961.3,343.7,957.43,344.57,958.79,352Z"/><path d="M856.07,420.64c4.51,3.37,10.61,2.62,13.52,7.51-.82,2-2,1.62-3.51,1-3.61-1.47-7.31-2.72-10.84-4-2.27,3.5,1.11,7.71-2.47,10.69-1.92-1.61-1.72-3.58-1.75-5.39-.08-6.38-.52-12.67-3.08-18.67-.47-1.1.07-2.64.17-4.44,5.17-.41,9.86-.93,14.57-1.1,2.39-.09,5.14.31,5.92,3s-1.23,4.81-3.43,6.21C862.38,417.26,859.42,418.76,856.07,420.64Zm9.13-10.25c-4.73-1.27-8.75-1.43-12.78.95.09,1.14.1,2.08.25,3s.45,1.75.67,2.61C859.77,415.89,862.41,414.5,865.2,410.39Z"/><path d="M905.74,346.66H902.8c1-4.09,3.53-5.57,7.35-5.47,2.71.07,5.43-.16,8.14-.17a13.68,13.68,0,0,1,3.33.31c1.74.44,3.82,1.16,3.57,3.2-.15,1.21-1.73,2.49-3,3.26-2.51,1.57-5.23,2.82-8.63,4.61,5.47,3.62,12.44,4.93,13,12.47-2.56.77-3.24-1-4.11-2.17a11.7,11.7,0,0,0-6.38-4.78,5.86,5.86,0,0,1-1.7-.84c-3-2.08-3.07-5.15-.07-7.26,2-1.42,4.06-2.77,6.91-4.7a21.21,21.21,0,0,0-9.92-.45c-2.19.34-2,2.07-1.75,3.75.68,4.24,1.32,8.49,2,12.73.21,1.39.74,2.87-1.66,4C907,359.37,907.92,352.75,905.74,346.66Z"/><path d="M980.06,421.15c3.2,4.33,7.44,7.18,9.34,11.81-1.79,2.17-3,1.16-4.39-.26-2.63-2.73-5.33-5.4-8-8.06a9.3,9.3,0,0,0-1.9-1c-.19,2.73-.36,5.21-.6,8.78-2.76-2.7-2.23-5.28-2.88-7.37-1.3-4.23-.57-8.5.53-12.69a6.9,6.9,0,0,1,5.1-5.14,7,7,0,0,1,8.5,3.2c1.67,3,.7,6.54-2.41,8.74C982.42,419.76,981.47,420.28,980.06,421.15ZM974.47,419c1.94-.49,3.82-.82,5.58-1.45,1.55-.55,3-1.56,2.71-3.48-.21-1.55-.58-3.23-2.58-3.6s-3.88-.07-4.94,1.94S973.44,416.47,974.47,419Z"/><path d="M907.68,412.26c-.3-.06-.67,0-.87-.2-1-.85-2.09-2.58-2.92-2.46a6.71,6.71,0,0,0-3.81,2.49,13.37,13.37,0,0,0-.22,15.7,9.28,9.28,0,0,0,4.11,3c2.16.78,4.52-1.1,4.84-3.39.28-2-.83-3.21-3.44-3.6-.92-.13-1.86-.11-3-.18,2.34-2.87,4.8-3.38,7.3-1.71,2.72,1.82,3.76,4.9,2.53,7.45-2.74,5.7-9.4,6.82-13.76,2.33-.22-.23-.42-.49-.66-.7-4.61-4.06-4.85-17.81.81-22.42a15.42,15.42,0,0,1,3.47-2.5c1.89-.81,4-1.46,5.85.19C909.09,407.3,908.93,409.38,907.68,412.26Z"/><path d="M860.76,339.47l1.59,4.46-.67.49L857.93,342c-5.47,2.18-5.47,2.18-7.18,4.92,2.48,2.9,6.24,3.6,9.47,5.16,5.94,2.86,7.27,7.83,3.25,13.13-3.51,4.64-8.31,6-13.54,3.88-2.84-1.15-3.66-2.87-3-6.26,2,1.26,4,2.86,6.17,3.7,3.67,1.39,7.91-1,9.07-4.76a5.11,5.11,0,0,0-3.12-6.61c-2.91-1.29-6-2.27-8.78-3.75-4.34-2.28-4.53-6-.71-9C851.92,340.49,856.47,339.25,860.76,339.47Z"/><path d="M877.29,422.77a4.67,4.67,0,0,0,1.83,5.77c2.41,1.82,4.06-.14,5.76-1.31,1.72,1.41,1.41,2.93.19,3.81a10,10,0,0,1-5,2.15c-2.77.11-4.8-2.15-5.56-5.05-.59-2.25-1.32-4.47-2.17-7.34,1.48-2.25.85-5.37.3-8.52-.51-2.93-.14-3.43,2.56-3.95,3.13-.6,6.25-1.3,9.41-1.65,2.14-.23,4.45-.15,5.78,2.93-1.4.2-2.39.38-3.4.48-2,.2-4.13.25-6.17.54-3.81.55-3.93.71-4,4.5,0,1.08.18,2.15.28,3.34l9.27-.7C885.56,420,885.56,420,877.29,422.77Z"/><path d="M976.5,344.82c1.06-3.46,2.79-4.7,5.62-4.43,1.89.19,3.83,0,5.68.34,4.87.87,7.75,3.9,8.73,8.77.59,2.91.1,5.65-2.35,7.3a90.18,90.18,0,0,1-11.45,6.57c-1.68.81-2.38-.75-2.4-2.47,0-3.51-.13-7-.36-10.51C979.82,348,979.54,345.52,976.5,344.82Zm7.15,14.2c4.31-.41,6.81-2.83,9.2-5.31a3.57,3.57,0,0,0,.6-2.64c-.63-5-5.64-8-10.88-6.66C982.92,349.1,983.26,353.81,983.65,359Z"/><path d="M902.53,366.08c-.36-1.38-.7-2.87-1.14-4.34-1.14-3.89-2.39-4.7-6.27-3.8a37.49,37.49,0,0,0-4.46,1.63L890,367.1c-2.86-2.59-2.85-5.85-2.3-8.65a136.79,136.79,0,0,1,4.38-15.1c.52-1.63,1.23-3.61,3.48-3.3,2.07.29,3.23,1.88,3.79,3.87q1.82,6.43,3.64,12.85c.61,2.15,1.32,4.27,1.87,6.43C905.3,364.76,905.15,366.12,902.53,366.08ZM896,344.57l-1.4.1c-1.76,3-3.14,6.2-3,10.09h7.73Z"/><path d="M967.41,430.75c-4.31-6.35-4.24-14.51-9.92-20.7-1.15,3.12-2,5.58-3.06,8.34l5.92,1.49c0,.43,0,.87,0,1.31l-6.68,1.88v8.31c-1.17-.77-2.31-1.12-2.37-1.61-.34-2.66-.9-5.45-.45-8a64.36,64.36,0,0,1,3.3-11.49c1.57-4.15,5.46-4.47,8-.76a22.6,22.6,0,0,1,2.23,4.74c1.43,3.71,2.78,7.45,4.14,11.19C969.22,427.11,969.08,427.72,967.41,430.75Z"/><path d="M910.13,379.16c-2.87.81-6.19-.12-8.44,2.53,1.62,2.85,6.2-1.25,7,3.46-.77.5-1.64,1.11-2.56,1.62-1.26.69-2.77,1.07-3.79,2s-2.49,2.54-2.35,3.67c.23,2,2.36,1.61,3.94,1.56a21.84,21.84,0,0,1,3.79,0,8.77,8.77,0,0,1,2.43,1.27c-3.18,2.47-10.37,3.19-12.77,1.5-1.77-1.25-2.32-4.47-1-7a26.25,26.25,0,0,1,2.8-3.59,7.68,7.68,0,0,1-1.48-2.13,5.93,5.93,0,0,1-.21-3.51c1-2.45,3.54-3.08,5.86-3.62C906.07,376.21,907.81,376.88,910.13,379.16Z"/><path d="M919.59,409.41c.14,1.28.37,2.55.39,3.83,0,2.7-.4,5.46,0,8.08a9.93,9.93,0,0,0,2.82,5.23c2.43,2.24,5.54.82,5.72-2.5a47.49,47.49,0,0,0-.53-7.12,19.11,19.11,0,0,1,.1-6.77c.55.6,1.4,1.12,1.59,1.82,1,3.69,1.83,7.41,2.63,11.14.57,2.67-.67,4.65-2.78,6.12-2.55,1.77-5.34,2.28-8.05.58a9,9,0,0,1-3.2-3.4c-2.82-5.6-2.06-11.27-.36-16.89Z"/><path d="M889.68,344.59H878.41c.09,7,1.07,13.61.16,20.31-2.92-2.5-2.44-5.95-2.8-9-.38-3.28-.09-6.64-.09-10.65l-7.36.74c-.79-2.09.16-3.14,1.63-3.55a43.68,43.68,0,0,1,18.06-1C889.29,341.65,890.42,342.46,889.68,344.59Z"/><path d="M939.44,408.34a17.54,17.54,0,0,1,.74,3.78c-.1,4-.31,7.93-.67,11.88-.38,4.23.26,4.81,4.47,3.64,1.41-.39,2.87-.61,4.31-.91l.58,1c-.61.72-1.08,1.8-1.85,2.09a30.86,30.86,0,0,1-6,1.56c-3.23.5-5.11-.87-5-4,.25-5.71.87-11.39,1.42-17.08a6.31,6.31,0,0,1,1-1.95Z"/></g></g></svg>