<svg xmlns="http://www.w3.org/2000/svg" viewBox="0 0 912.12 919.25"><g id="Layer_2" data-name="Layer 2"><g id="Layer_1-2" data-name="Layer 1"><path d="M2.72,679.86c.86-8,1.56-16.05,2.62-24,.77-5.76,1.8-11.52,4.86-16.65a4.06,4.06,0,0,0,.55-1.22c1.15-6.23,4.28-11.74,6.3-17.63C20.59,610,26.28,601,31.78,591.85A14.85,14.85,0,0,0,33.52,589c2.39-7.41,7.43-13.2,11.77-19.41a17,17,0,0,1,4.53-4.83c5.4-3.35,9-8.52,13.52-12.73,6.57-6.08,13.29-12,22-15a43.23,43.23,0,0,0,4.23-2c5.64-2.65,11.17-5.58,17-7.83,3.91-1.53,8.18-2.15,12.32-3.05,2.6-.56,5.34-.5,7.62-2.28a6.31,6.31,0,0,1,2.52-.77c5.24-1.11,10.5-2.18,15.73-3.31a24.29,24.29,0,0,0,3.86-1.09,28.91,28.91,0,0,1,13.13-2.1,7.58,7.58,0,0,0,3.33-.1c6.79-2.78,14.15-1.3,21.14-3,4-1,8.45-.26,12.7-.22,8.5.08,17,.25,25.51.33a29.93,29.93,0,0,1,9.81,1.83,74,74,0,0,0,13,3.06c4,.63,8,.56,12.06,1a24.58,24.58,0,0,1,6.52,1.3c3.06,1.21,5.67.57,8.21-1.08,2.24-1.45,4.35-3.13,6.64-4.51a15.78,15.78,0,0,0,8.05-11.66c.85-5.53,1.79-11,1.29-16.66-.69-7.8-1-15.62-1.66-23.42-.36-4.2-1.15-8.37-1.74-12.56a6.14,6.14,0,0,1-.21-1.32c.74-8.92-2.45-17.17-4.29-25.66-.71-3.27-.79-6.67-1.32-10-1.22-7.75-1.54-15.61-2.64-23.33-1.06-7.47-1.54-15-3.66-22.45-2.49-8.75-4.63-17.8-3.16-27.13-1.31-9.74,0-19.68-2.47-29.35a37.3,37.3,0,0,1-.77-10,71.78,71.78,0,0,0-2.83-20.55c-1.79-6.67-2-13.64-4.75-20.15-1.7-4-1.66-8.73-2.15-13.16-.47-4.23.31-8.83-1.11-12.66-2.42-6.55-1.86-13.61-4.6-20.08-1.88-4.45-1.85-9.57-3.54-14.21-2.6-7.15-3.18-14.79-4.9-22.17-1-4.3-.67-8.89-1.06-13.35-.49-5.57-1.09-11.13-1.66-16.69a4.56,4.56,0,0,0-.39-2c-2.46-3.81-2-8.17-2.53-12.37-.28-2.43-.75-4.85-1.15-7.27-.15-.89-.44-1.75-.52-2.64a68.41,68.41,0,0,0-2.65-15.08,16.59,16.59,0,0,1-.6-5.31,49.44,49.44,0,0,0-1.79-14.62,30.92,30.92,0,0,1-.53-4.65,19.21,19.21,0,0,0-.71-4.59c-1.52-3.85-1.6-7.84-1.72-11.88a48,48,0,0,0-.8-8.66,65.59,65.59,0,0,1-.19-25.36c.54-3.09,1.29-6.14,1.81-9.24a7.59,7.59,0,0,1,4.1-5.79c4.94-2.59,9.85-5.19,15.46-6.25,9-1.68,17.92-3.71,26.87-5.56a26.7,26.7,0,0,1,4-.5q16.08-.9,32.17-1.75a6.88,6.88,0,0,0,2-.27c7.37-2.83,15-1.79,22.58-1.64,2.44.05,5.06.16,7.3-.61,8-2.73,19,3.92,21.07,13.14,1.27,5.66,4.09,10.93,4.16,16.87a2.34,2.34,0,0,0,.29,1.3c2.65,3.61,2.27,8,3.14,12a77.09,77.09,0,0,1,1.42,11.29c.33,5.12.73,10.2,1.55,15.31,1.57,9.7,1.93,19.59,2.86,29.39.95,10,2,20,3,30,.3,2.9.91,5.77,1,8.67a29.73,29.73,0,0,0,1.56,9.88c.63,1.62.55,3.51.77,5.29.25,2,0,4.18.78,6,1.87,4.5,1.56,9.21,2,13.85.3,3.33,0,6.73,1.44,9.91a4.43,4.43,0,0,1,.36,2c-.33,7,1,13.81,1.9,20.69.63,5.08,1.15,10.12,2.11,15.19,1.69,9,2.06,18.21,3,27.34.09.89,0,1.8.15,2.68q1.25,10,2.55,20c.68,5.32,1.34,10.64,2.07,16s1.12,10.69,2.39,15.85c1.79,7.28,1.53,14.68,2.19,22,.22,2.43.74,4.84.94,7.27.33,4,.41,8,.77,12q1.13,12.36,2.44,24.69c1.25,11.79,2.63,23.57,3.82,35.37.65,6.46.89,13,1.55,19.42,1.09,10.68,1.88,21.39,4,31.95.66,3.26.43,6.69.74,10,.63,6.91,1,13.86,2.13,20.68,1.47,9,1.45,18.27,3.63,27.2a5.09,5.09,0,0,1,.12.66c1.08,8.42,2.1,16.84,3.26,25.25,2,14.63,4.12,29.25,6.15,43.88.34,2.43.39,4.91.72,7.34,1.29,9.51,2.83,19,3.91,28.51,1,9.08,3.13,18,3.07,27.27a60.17,60.17,0,0,0,3.61,20.35,14.6,14.6,0,0,1,.67,2.6c1.16,8.19,2.17,16.41,3.45,24.58,1.22,7.72,2.73,15.4,4.06,23.1.27,1.54.28,3.13.46,4.68.37,3.1.78,6.2,1.19,9.29.33,2.44.74,4.86,1,7.31.59,5.1,1.16,10.22,1.66,15.33a55.15,55.15,0,0,1,.22,6c0,5.83-.58,11.69-.13,17.47.66,8.44.94,16.91,2.95,25.27,2.83,11.72,4.66,23.68,7.42,35.43a50.35,50.35,0,0,1,1.22,15.26,33,33,0,0,0,.8,8.67c1.51,7.63-4.14,16.75-12.22,19.38-4.86,1.59-9.89,2.71-14.67,4.48a39.8,39.8,0,0,1-7.13,1.59c-7,1.24-14.1,2.35-21,4.22-6.29,1.7-12.66,2.71-19,3.85-5.48,1-10.91,2.26-16.4,3.16-4.87.8-9.79,1.11-14.67-.2a11.16,11.16,0,0,1-6.93-4.82A145.37,145.37,0,0,1,350.06,877c-1.54-3.2-3.5-6.2-5.21-9.31a6.62,6.62,0,0,0-5.4-3.51c-7.6-.87-14.37,1-19.06,7.25-8.54,11.43-19.47,20.07-31.23,27.83-2,1.35-3.9,3-6,4.28a54.26,54.26,0,0,1-21.17,7.8c-3.08.47-6.1,1.28-9.16,1.89-5.91,1.17-12,1.82-17.72,3.58-9,2.76-18.2,2.47-27.31,2.38-7.57-.06-15.15-1.45-22.69-2.48-4.66-.63-9.26-1.65-13.87-2.6a16.57,16.57,0,0,1-5.09-1.62c-6.77-4-14.35-5-21.89-5.94-3.8-.48-7.11-1-10.45-3.59-3.95-3.09-9-4.89-13.69-6.92a146.87,146.87,0,0,1-22.89-12.37c-4.46-2.95-9.12-5.6-13.7-8.36a23.56,23.56,0,0,1-2.92-1.63c-4.81-4-9.61-8-14.32-12.08-3.38-2.93-6.47-6.2-10-8.93A23.16,23.16,0,0,1,51,846.83a64.48,64.48,0,0,0-5.14-6.94c-4.55-5.28-7.53-11.57-11.29-17.35-1.45-2.24-2.51-4.78-4.22-6.79-2-2.33-2.77-4.94-3.56-7.78a86.7,86.7,0,0,0-4.08-10.55c-1.74-4.09-3.39-8.23-5.47-12.15-3-5.64-3.65-11.92-5.46-17.89-1.55-5.13-2.92-10.35-4.89-15.32a34.9,34.9,0,0,1-2.47-9,6.4,6.4,0,0,0-.24-2c-3.27-6.9-2.69-14.46-3.6-21.72-1.2-9.59-.35-19.24.79-28.82.42-3.56.77-7.13,1.15-10.69ZM352.5,13.11c-4.32-.82-8.53-1.72-12.77-1.09-6.48,1-13,.57-19.44.68-4,.06-8.17-.11-12,.76a94.77,94.77,0,0,1-12.61,1.71c-6.88.63-13.7,1.85-20.66,1.71-2.84-.06-5.78.06-8.25,2.12-.78.65-2.09.7-3.18,1-4.34,1-8.72,1.9-13,3.07a46.12,46.12,0,0,0-6.82,2.67,3.81,3.81,0,0,0-1.88,1.81c-2.22,5.87-5,11.81-3.65,18.2,1.74,8.37,1.25,16.9,2.61,25.32,1.42,8.78,3.63,17.51,3.66,26.5a22.48,22.48,0,0,0,.43,2.65c.45,3.54.87,7.08,1.3,10.63a30.76,30.76,0,0,0,.64,4.62c2.3,7.95,1,16.53,4.3,24.3a5.22,5.22,0,0,1,.13,1.33c.42,3.11.68,6.24,1.32,9.3A86.62,86.62,0,0,1,253.74,161c.66,8,1.87,15.9,2.92,23.83a25.57,25.57,0,0,0,1,3.17c1.67,6,3.38,12,4.91,18.08.6,2.37.51,4.92,1.24,7.24,1,3.15,2.9,6.05,3.57,9.23s.32,6.65.42,10c0,.22.12.44.14.66.21,2.9.58,5.8.57,8.7a53.8,53.8,0,0,0,2.33,15.2,144.81,144.81,0,0,1,4.17,22.38c.78,6.15,2.68,12.18,2.18,18.5-.1,1.28.6,2.61.84,3.93.53,2.84,1.07,5.69,1.47,8.56.34,2.44.18,5,.78,7.33,1.2,4.66.93,9.32.88,14a71.84,71.84,0,0,0,.61,13.38c1.17,6.58.8,13.46,3.61,19.73a4.15,4.15,0,0,1,.13,1.33c.68,9.82,3.2,19.41,3.51,29.28.09,2.64,1.06,5.23,1.49,7.86,1.14,7.05,2.18,14.11,3.32,21.15a29.33,29.33,0,0,0,1,3.18,29.6,29.6,0,0,1,.78,3.22c1.85,10.78,2.31,21.76,4.62,32.48a9.2,9.2,0,0,1,.18,2.67c-.59,7.4.77,14.71.93,22.07a29.14,29.14,0,0,1-.3,6.68c-2.26,10.34-4.68,20.65-14.39,27.06-.53.36-.78,1.14-1.3,1.52-4.22,3.07-8.63,5.31-14.16,5.29-9.67,0-19-2.55-28.64-3.05a8.09,8.09,0,0,1-1.94-.52c-13.39-4.33-27.18-5.43-41.15-4.89a37.15,37.15,0,0,0-7.33.63c-8.52,2.08-17.24,2.22-25.89,3-1.78.15-3.57.18-5.33.45-8.83,1.35-17.67,2.64-26.15,5.68a42.68,42.68,0,0,1-10.37,2.57c-6.18.56-11.4,3.64-17.06,5.56-7.75,2.63-14.27,8.06-22.51,9.54a11.16,11.16,0,0,0-4.74,2.42c-5,4.07-10,8.22-14.87,12.52a48.48,48.48,0,0,0-5.87,6.36C54.78,574.82,47.86,579,46,587c-.1.41-.51.73-.74,1.11C40,596.86,34.72,605.55,30.59,615c-3.76,8.6-7.94,17-10.07,26.19a31.76,31.76,0,0,1-2,5A18.67,18.67,0,0,0,17,649.82q-2.13,12.91-4,25.88c-.36,2.43-.43,4.9-.66,7.36-.94,10-3.32,19.93-.64,30a4,4,0,0,1,0,1.33c-.48,5.66.66,11.15,1.73,16.65.69,3.51,1,7.1,2,10.53,1.76,6.19,4.31,12.11,5.68,18.5.86,4,2.63,8,3.4,12.13a6.24,6.24,0,0,0,.82,1.83,56.85,56.85,0,0,1,5.83,14.13,56.1,56.1,0,0,0,2.3,6.31c2.42,6.2,5.85,12,7.26,18.61a8.52,8.52,0,0,0,1.78,2.78q7.22,10,14.45,20c4.19,5.77,8.45,11.51,14,16.13,4.27,3.57,8.66,7,13,10.48,1.92,1.54,3.66,3.4,5.78,4.57,5.66,3.15,11.06,6.67,16.45,10.28a138.68,138.68,0,0,0,20,10.66c7.94,3.58,16.18,6.51,24.29,9.7a24.88,24.88,0,0,0,2.61.65c9.09,2.38,18.51,3.41,27.42,6.58a23.26,23.26,0,0,0,4,.72c4.42.7,8.83,1.48,13.27,2.06a93.53,93.53,0,0,0,12,1.09,122.38,122.38,0,0,0,12.65-1.07c3.56-.38,7.21-.48,10.63-1.41,6.47-1.76,13.38-1.4,19.59-4.24,4.6-.08,8.68-2,12.88-3.55a22.81,22.81,0,0,1,4.44-1.51c5.54-.81,10.23-3.74,14.22-7.1,10.41-8.76,20.93-17.48,29.27-28.41,1.07-1.41,2.16-3.07,3.64-3.85,4.34-2.27,8.88-4.19,13.36-6.18a4.27,4.27,0,0,1,2-.21q6.69.57,13.38,1.23a8.55,8.55,0,0,1,5.81,3,66.08,66.08,0,0,1,11.25,18.83c1.44,3.5,3.08,6.92,4.85,10.26a6.12,6.12,0,0,0,5.36,3.46c2.24.11,4.42.51,6.62-.39a18.42,18.42,0,0,1,3.91-.93c12.79-2.12,25.63-3.95,38-8,2.09-.68,4.39-.68,6.59-1,1.54-.23,3.24-.18,4.54-.87a11.23,11.23,0,0,1,5.11-1.21c5.9-.3,11.43-2.32,16.84-4.37,3.05-1.16,6.15-3.33,6.43-7.11.43-5.74,1-11.57.41-17.24-.68-6.16-2.7-12.18-4.05-18.27-.39-1.74-.51-3.54-.74-5.32a35,35,0,0,0-.47-4c-1.28-5.43-2.63-10.85-4-16.26a101.69,101.69,0,0,1-2.87-24.59c-.1-19.26-.95-38.48-3.81-57.56-.17-1.11-.37-2.21-.62-3.3-1.47-6.31-1-12.94-3.26-19.12.05-8.1-3.58-15.7-3.3-23.84a6.93,6.93,0,0,0-.41-2,114.09,114.09,0,0,1-4.56-29.77,52,52,0,0,0-.87-6.65c-.28-2-.59-4-.85-6-.54-4.21-1-8.43-1.59-12.63-.26-2-.72-4-.95-6-1.27-10.88-2-21.83-4.52-32.54a17.66,17.66,0,0,1-.44-3.32c-.33-7.82-2.6-15.44-2.42-23.31a6.84,6.84,0,0,0-.59-2.61c-1.54-3.84-1.4-7.89-1.64-11.9-.12-2,.05-4.16-.68-5.92a20.7,20.7,0,0,1-1.25-6.53,59.23,59.23,0,0,0-.81-8c-2.39-10.74-2.74-21.72-3.94-32.59-1-9.12-2.65-18.17-2.59-27.38a8.75,8.75,0,0,0-.16-1.34c-1.36-10.14-3.29-20.21-3.89-30.46-.28-4.67-1.44-9.32-1.46-14-.05-11-3-21.75-2.53-32.77a7.61,7.61,0,0,0-.19-1.33c-1.27-10-2.65-20-3.77-30-.47-4.22-.21-8.51-.61-12.74-1.13-12-2.43-24-3.68-36a21.51,21.51,0,0,0-.51-3.31c-2.25-8.71-2.49-17.71-3.67-26.57-1.12-8.42-1.7-16.91-2.56-25.36a29.51,29.51,0,0,0-.73-3.95c-1.76-7.17-1.84-14.67-4.32-21.68a1.91,1.91,0,0,1-.1-.67c-.12-8.05-2.54-15.93-1.82-24.07a22.64,22.64,0,0,0-.61-4.63c-.56-4.44-1.1-8.88-1.67-13.31-.95-7.31-1.54-14.7-3-21.9a94.52,94.52,0,0,1-1.73-11.9,21,21,0,0,0-.63-5.31c-1.48-4.11-1.45-8.39-1.75-12.6-.35-4.89-.32-9.75-1.14-14.66-1.31-7.92-1.6-16-2.37-24-.86-9.12-1.63-18.25-2.71-27.34-.51-4.21-.89-8.7-2.71-12.39s-2.26-7.51-2.74-11.5C358.35,26.69,357.9,19.4,352.5,13.11Z"/><path d="M525.58,440a23.38,23.38,0,0,0,1.13-3.16c1.5-7.12,6.6-10.66,12.72-13.57,8-3.79,16.33-3.9,24.83-3.27a27.81,27.81,0,0,1,4.67.5,37.17,37.17,0,0,0,17.94.11,16.26,16.26,0,0,1,4-.05c5.58.07,11.17.35,16.74.19,4.21-.13,8.42-.75,12.61-1.14,5.12-.49,10.21,0,15.31-.5,8.89-.81,17.84-.54,26.78-.41,5.77.09,11.56.07,17.33-.11a182.14,182.14,0,0,1,25.48.87c5.55.6,11.13,1.71,16.67,1.53,7.52-.24,14.59,1.57,21.82,3a46.8,46.8,0,0,0,10.7.82A51.54,51.54,0,0,1,767,425.85c3.69.76,7.43,1.71,11.31.91a13.27,13.27,0,0,1,4,.24c6.45.77,12.87,1.81,19.33,2.3a54.38,54.38,0,0,1,21.1,6.34c8,4.18,16.46,7,24.84,10.17,2.3.87,4.66,1.62,6.92,2.58a14.33,14.33,0,0,1,4.67,2.58c3.93,4,9,6.55,12.51,11.09,2.54,3.29,6,5.88,9,8.86,2.36,2.35,5.06,4.53,6.8,7.29a31.31,31.31,0,0,1,4.49,10.41c1.5,7.62,3.85,15.14,3.89,23,0,2.22.05,4.45-.16,6.65-.23,2.45-.87,4.86-1.11,7.31a34.06,34.06,0,0,1-5.85,16.75c-3.37,4.9-5.08,10.93-7.68,16.38-2.49,5.25-5.09,10.46-7.81,15.59-5.34,10.09-10.55,20.24-13.66,31.29a33.1,33.1,0,0,0-.76,6.63c-.15,2,.15,4.09-.27,6-.84,3.78.24,7.3,1.77,10.42,3.61,7.38,7.23,14.88,11.89,21.6,4.05,5.84,7.55,12,11.83,17.74a179.15,179.15,0,0,1,20.53,36c2.66,6.08,5.59,12.09,6.79,18.87a66.1,66.1,0,0,1,.4,17.92c-.33,3.56-1.24,7.05-1.84,10.59-.7,4.18-1.29,8.39-2.05,12.56-.48,2.63-1.09,5.25-1.79,7.83-.93,3.45-2,6.89-3,10.29a40.13,40.13,0,0,1-2,5c-1.25,2.62-2.72,5.15-3.88,7.81a92.08,92.08,0,0,1-17.42,26.78,89.57,89.57,0,0,1-10.23,9.48c-4.36,3.38-8.67,7-13.82,9.22a34,34,0,0,1-3.65,1.64,97.79,97.79,0,0,0-13.48,5.67,40.72,40.72,0,0,1-6.86,2.62c-4.52,1.21-9.14,2-13.66,3.25-6.68,1.79-13.29,3.81-20,5.62-4.09,1.11-8.13,2.39-12.46,2.43-1.95,0-3.91.84-5.85,1.36a42.5,42.5,0,0,1-11.16,1.9,21.23,21.23,0,0,0-7.83,1.25c-5.14,2.08-10.55,1.64-15.82,2.45-2.64.4-5.29.82-7.94,1.17-1.53.21-3.08.3-4.62.42a56.5,56.5,0,0,0-6,.5,59.13,59.13,0,0,1-12.67.75,90.91,90.91,0,0,0-15.17,1.35,109.48,109.48,0,0,1-14,1.24c-5.11.1-10.18,1-15.39,0-2.94-.58-6.19.39-9.3.68-8.44.79-16.87,1.7-25.33,2.34-4.85.38-9.74.32-14.62.49s-9.84.05-14.67.74a60.58,60.58,0,0,1-8,.18c-11.16.16-22.35-1.1-33.46.35a98.85,98.85,0,0,1-21.4.27,33.51,33.51,0,0,1-15.58-5.85c-1.66-1.1-3.22-2.36-4.88-3.47-3.41-2.28-6.19-4.94-7.63-9-1.55-4.39-5.17-7.86-6-12.61-1.14-6.57-3.25-13-2.88-19.81a10.69,10.69,0,0,0-.49-3.3,14.17,14.17,0,0,1-.35-5.95,33.51,33.51,0,0,0-.15-6.63c0-.89-.31-1.77-.28-2.65.18-6.25.53-12.49.59-18.73.07-6.46-.32-12.93-.16-19.38.14-5.35.7-10.7,1.25-16a18,18,0,0,1,1.44-4.46c.71-1.86,2.12-3.06,4.12-2.75a9.42,9.42,0,0,0,7.53-2c3-2.26,6.61-2.88,10.05-3.26,10.37-1.16,20.78-3.34,31.22-.43a8.32,8.32,0,0,0,2,.36c6,.16,12,.06,18,.49,7.56.54,15.16-.2,22.73,1.26,7,1.36,14.15,2,21.26,2.66,3.31.31,6.69-.1,10-.11,6.68,0,13.36-.06,20,.1a23.33,23.33,0,0,1,6.52,1.16,18.14,18.14,0,0,0,9.79.7c6.75-1.43,13.71-1.89,20.52-3.12,7.68-1.4,15.32-3.06,22.9-4.89a49.38,49.38,0,0,0,20.35-9.76,43.56,43.56,0,0,0,4.67-4.74c.88-1,1.41-2.32,2.3-3.3,4-4.43,4.37-10,5.05-15.47a34,34,0,0,0-1.68-14.41c-2.29-7.47-4.34-15-8.25-21.83-2.88-5-6-9.9-9.36-14.65a47.39,47.39,0,0,1-5.39-10.65q-4.06-10.93-8.62-21.68c-3-6.94-3.48-14.27-4-21.62a11.32,11.32,0,0,1,.24-3.34c1.82-7.61,3.2-15.38,5.73-22.75a52.67,52.67,0,0,1,7.81-14c5.52-7.37,2.71-14-3.63-20.11-3-2.88-6.59-5.25-11.27-5.36-2.37-.06-4.75-1.22-7.06-2.06a53.62,53.62,0,0,0-21.69-3.65c-4.45.26-8.94-.3-13.41-.53-7.13-.38-14.21-1-21.4,0-5.49.72-11.18-.13-16.7.5-7.81.89-15.62.57-23.42.55a191.29,191.29,0,0,1-28.09-1.68c-4.51-.69-8.95.18-13.32.91-13.45,2.25-23.1-5.17-28.26-14.69-3.63-6.7-6.4-13.71-6.87-21.53-.29-4.87-2.06-9.69-2-14.52.1-9.67-2.61-19-3-28.54a17.45,17.45,0,0,1,.63-5.28c.65-2.37,1.64-4.64,2.48-7Zm298,9-.11.27c-2.73-1-5.41-2.19-8.2-2.94-4.31-1.16-8.7-2.79-13.06-2.8A64.59,64.59,0,0,1,786.41,441a109.33,109.33,0,0,0-13.79-2.88c-10.19-1.23-20.57-.58-30.66-3-1.26-.3-2.67.17-4,.07-3.33-.25-6.89.05-9.92-1.06-8.41-3.1-17.23-2.47-25.84-3.63-3.09-.42-6.24-.36-9.35-.54-6.48-.38-13-.94-19.43-1.13-5.57-.16-11.21.6-16.73,0-6.94-.69-13.81.11-20.72-.08-8.47-.24-16.93,1.3-25.46,1-9.79-.41-19.52,2.25-29.34.63a6.68,6.68,0,0,0-1.34-.05c-9.38.39-18.75.82-28.13,1.16-5,.18-8.62,3.34-12.5,5.88-.63.41-.91,1.51-1.16,2.35-.78,2.56-1.54,5.14-2.17,7.74-1.26,5.24-2.23,10.49-1,15.93,1.63,7.42,1.89,15,2.58,22.56.48,5.32,1.26,10.63,2.17,15.9a38,38,0,0,0,4.72,12.51c3.93,6.74,10.41,9.21,17.58,9,7.8-.24,15.54-1.64,23.3.37a9.3,9.3,0,0,0,3.33.06,97.73,97.73,0,0,1,21.35-.27c10.33,1.13,20.52-.44,30.76-1a3.9,3.9,0,0,0,1.33-.19c3.48-1.56,7-.91,10.53-.29a15.53,15.53,0,0,0,5.28.33,28.71,28.71,0,0,1,8.68,0,60.65,60.65,0,0,0,9.35.28c5.33-.2,10.7.46,16.05.82a9.51,9.51,0,0,1,3.26.74c5.61,2.59,11.64,3.12,17.64,3.85a23.45,23.45,0,0,1,13.17,6c5.35,4.74,8.51,10.75,11.39,17.08a13.43,13.43,0,0,1-.49,12.26c-2.15,4.14-4.16,8.39-7.24,12.06-5.21,6.23-7.26,13.8-8.18,21.7-.36,3.1-.34,6.25-.64,9.36a36,36,0,0,0,1.11,13.25c3.4,12.17,9.89,23,15.4,34.23a6.89,6.89,0,0,0,1.07,1.7c3.42,3.6,5.62,7.94,8,12.27a109.71,109.71,0,0,1,8.71,20.3c3.36,11,3.84,21.86-.56,32.68-.59,1.46-1.2,2.91-1.69,4.39-1.71,5.27-5.89,8.86-8.92,13.23a7.51,7.51,0,0,1-2.07,1.7q-4.2,2.73-8.45,5.39a18.82,18.82,0,0,1-2.91,1.61c-3.71,1.49-7.39,3.09-11.19,4.29s-7.77,2-11.67,3c-1.07.27-2.12.68-3.21.86-6.81,1.15-13.75,1.79-20.4,3.51a44.12,44.12,0,0,1-18.54.43c-3.07-.5-6.23-1.36-9.27-1.1a164.06,164.06,0,0,1-32.11-.34,28.37,28.37,0,0,0-6.69-.23c-2.77.36-5.31-.32-8-.69-8.64-1.2-17.29-2.65-26-3.18-9.1-.55-18.23-.17-27.28-2.05-4.74-1-9.75-.71-14.64-.9a16.46,16.46,0,0,0-3.29.53,15,15,0,0,1-3.91.64c-5.21-.53-9.54,1.72-14,3.85a8,8,0,0,0-4.72,6.1,56.08,56.08,0,0,0-.71,8.69c-.08,7.37-.18,14.75,0,22.11.28,8.93.82,17.85,1.37,26.76.27,4.46,1.08,8.9,1.1,13.35a21.08,21.08,0,0,0,1.22,7.87c1.39,3.53,2.91,7,4.15,10.59,1.86,5.39,5.95,9,10.42,11.76,5.57,3.43,12,4.84,18.64,5a66.26,66.26,0,0,0,9.35-.21c9.11-1.1,18.24-.4,27.36-.48,3.57,0,7.14.44,10.71.4,5.57-.06,11.14-.34,16.71-.55,5.13-.2,10.31,0,15.36-.74,10.85-1.53,21.77-2,32.65-3.06,6.16,1.45,12.32-2.59,18.52-.05.69.28,1.71-.31,2.59-.43,4.2-.58,8.4-1.18,12.61-1.7,7.06-.86,14.31-.17,21.18-2.72a7.5,7.5,0,0,1,4-.17c7,1.55,13.82-.35,20.61-1.24,11.72-1.53,23.34-3.9,35-5.67a61.54,61.54,0,0,0,9.75-2.08,185.86,185.86,0,0,1,20-5.4c7.86-1.59,15.59-3.54,23.25-5.88a98.41,98.41,0,0,0,31.17-16.49,89.86,89.86,0,0,0,11.65-10.95,46.52,46.52,0,0,0,7.28-10.3c2.74-5.36,6.35-10.28,9-15.67,2.15-4.38,3.43-9.18,5.1-13.79.33-10.35,2.82-20.4,5.12-30.37,2-8.87.16-16.82-2.72-24.85a86.51,86.51,0,0,0-4.75-10.26c-2.85-5.53-5.4-11.3-8.94-16.37-4.56-6.55-8.71-13.36-13.33-19.86-2.84-4-5.39-8.18-8-12.3-2.29-3.56-4.64-7.08-6.76-10.74-1-1.7-1.24-3.87-2.34-5.48-3.21-4.66-4.88-10-6.48-15.25a24.93,24.93,0,0,1,.34-16.46,21.45,21.45,0,0,0,1.82-6.43c.27-7.14,3.35-13.42,5.68-19.93.66-1.85,2-3.44,3-5.17,2.13-3.67,4.3-7.31,6.32-11,1.38-2.56,2.19-5.49,3.88-7.81,4.28-5.87,6.45-12.78,10-19,5.89-10.39,5.85-21.88,6.5-33.26a10.24,10.24,0,0,0-.22-1.31c-.39-5-2.23-9.49-4.09-14.07a44.68,44.68,0,0,0-10.46-15.31c-3-3-6.34-5.58-9.26-8.58-3.35-3.44-7.62-5.5-11.12-8.51-3.94-3.39-8.57-3.42-13-4.68-3.43-1-6.78-2.26-10.15-3.45C825.6,450,824.61,449.42,823.6,449Z"/></g></g></svg>