<?xml version="1.0" standalone="no"?>
<!DOCTYPE svg PUBLIC "-//W3C//DTD SVG 20010904//EN"
 "http://www.w3.org/TR/2001/REC-SVG-20010904/DTD/svg10.dtd">
<svg version="1.0" xmlns="http://www.w3.org/2000/svg"
 width="526.000000pt" height="526.000000pt" viewBox="0 0 526.000000 526.000000"
 preserveAspectRatio="xMidYMid meet">
<metadata>
Created by potrace 1.11, written by Peter Selinger 2001-2013
</metadata>
<g transform="translate(0.000000,526.000000) scale(0.100000,-0.100000)"
fill="#000000" stroke="none">
<path d="M792 4920 c-43 -10 -106 -53 -129 -86 -10 -15 -47 -54 -83 -88 -118
-111 -149 -147 -201 -224 -28 -42 -59 -86 -69 -97 -29 -34 -58 -89 -62 -115
-5 -35 -120 -229 -156 -264 -17 -15 -33 -39 -37 -53 -3 -14 -15 -37 -26 -52
-18 -24 -20 -46 -23 -231 -3 -162 -1 -212 10 -240 8 -19 18 -37 22 -40 4 -3
14 -18 22 -35 26 -52 103 -118 200 -174 78 -44 106 -54 160 -60 87 -8 218 -7
314 3 102 10 102 10 209 45 51 16 118 36 150 45 31 9 96 35 145 57 48 23 161
70 252 106 198 78 225 91 405 199 111 66 160 89 235 110 52 14 145 41 206 60
93 29 275 77 334 89 8 2 58 17 110 33 52 17 122 39 155 48 33 9 98 35 145 56
276 128 479 200 707 249 54 11 172 45 263 74 91 29 181 56 200 59 19 3 60 13
90 23 42 13 91 17 200 18 139 0 147 -1 203 -28 31 -16 57 -32 57 -37 0 -4 20
-30 43 -56 69 -77 87 -146 67 -259 -18 -106 -40 -176 -61 -204 -13 -17 -18
-33 -14 -49 7 -27 -15 -66 -53 -96 -40 -32 -62 -58 -95 -116 -46 -81 -150
-175 -392 -356 -176 -130 -520 -364 -537 -364 -6 0 -42 -18 -80 -41 -90 -55
-102 -50 -93 38 4 37 8 70 10 73 1 3 6 34 10 70 9 87 12 115 22 180 20 136 -5
363 -45 402 -10 10 -34 21 -54 24 -50 9 -82 -15 -98 -72 -15 -51 -15 -51 -61
-59 -42 -7 -52 -19 -68 -72 -9 -32 -18 -44 -36 -49 -13 -3 -28 -3 -34 0 -17
11 -55 -14 -85 -55 -27 -36 -56 -52 -56 -31 0 5 -11 22 -25 38 -14 16 -25 32
-25 35 0 13 -54 42 -83 45 -39 5 -66 -11 -82 -49 -17 -43 -19 -138 -15 -682 2
-303 4 -278 -25 -313 -33 -39 -32 -49 10 -92 34 -35 40 -50 49 -115 26 -188
30 -260 21 -470 -4 -106 -4 -105 -14 -105 -13 0 -111 102 -127 131 -16 33 -66
75 -108 93 -50 21 -124 93 -131 127 -7 31 -28 55 -122 141 -42 39 -59 48 -88
48 -69 0 -85 -23 -100 -145 -9 -64 -18 -73 -41 -40 -41 59 -52 65 -104 64 -28
-1 -52 0 -54 2 -2 2 -23 74 -46 159 -23 85 -48 173 -55 195 -127 395 -173 527
-194 560 -15 23 -44 49 -69 61 -36 19 -48 20 -83 11 -42 -10 -79 -52 -79 -88
0 -9 -8 -27 -18 -39 l-18 -22 -19 42 c-12 26 -35 53 -63 72 -74 51 -127 45
-138 -17 -2 -17 -7 -37 -10 -47 -21 -69 26 -300 90 -449 27 -61 36 -96 35
-129 -2 -31 12 -89 44 -185 25 -77 57 -187 72 -245 14 -58 32 -121 39 -140 8
-19 14 -39 15 -45 0 -5 5 -30 10 -55 6 -25 12 -63 15 -85 3 -22 5 -41 6 -42 0
-2 9 -3 20 -3 27 0 47 -43 54 -115 7 -70 18 -117 39 -165 8 -19 20 -64 27
-100 14 -76 81 -298 111 -367 12 -26 23 -75 25 -108 5 -90 13 -126 39 -170 27
-47 127 -145 149 -145 18 0 103 67 139 110 16 18 31 45 34 60 3 15 23 50 45
76 54 65 75 116 83 205 13 151 59 393 79 419 20 27 34 20 103 -57 73 -81 118
-130 217 -233 34 -36 78 -90 98 -120 54 -81 84 -104 133 -101 22 1 44 6 49 12
17 16 42 10 72 -16 39 -34 65 -32 123 10 44 32 51 43 70 105 19 63 24 70 47
70 34 0 148 115 176 176 18 43 26 122 15 161 -3 10 -8 41 -12 68 -3 28 -10 77
-16 110 -17 94 -18 149 -4 217 15 71 22 132 30 263 14 205 27 235 144 324 42
32 105 85 141 117 36 33 83 71 105 84 22 13 69 50 105 82 36 31 83 69 105 84
22 15 92 68 155 118 63 50 129 100 145 110 17 11 44 34 60 51 17 17 71 67 120
110 50 44 96 85 103 92 7 7 21 18 30 25 9 7 32 33 51 58 19 25 51 59 71 75 51
40 151 193 187 285 68 170 116 287 134 327 10 24 19 46 19 50 0 5 17 51 37
103 33 87 37 106 40 220 l5 125 -91 88 c-50 48 -91 92 -91 97 0 16 -137 125
-213 168 -41 24 -92 46 -113 49 -22 3 -61 16 -89 28 -45 19 -65 21 -190 19
-314 -6 -402 -12 -426 -27 -18 -11 -69 -16 -209 -21 -219 -6 -239 -8 -316 -32
-32 -9 -63 -18 -69 -20 -38 -8 -135 -39 -183 -59 -33 -13 -77 -26 -100 -29
-23 -3 -79 -25 -124 -50 -46 -25 -159 -74 -253 -110 -93 -37 -178 -71 -187
-76 -10 -6 -22 -10 -27 -10 -5 0 -55 -22 -112 -49 -135 -63 -330 -141 -353
-141 -10 0 -59 -18 -109 -41 -49 -22 -156 -62 -236 -88 -81 -27 -180 -65 -221
-86 -40 -20 -112 -52 -159 -70 -47 -18 -187 -77 -311 -132 -124 -55 -248 -106
-275 -112 -97 -23 -225 -38 -232 -28 -11 18 -12 181 -1 222 12 48 79 182 121
244 29 43 139 172 185 218 13 13 54 47 91 75 36 29 68 55 71 59 34 49 129 141
180 174 67 44 92 66 146 126 52 59 58 75 38 109 -28 46 -75 61 -146 46 -29 -6
-43 -4 -65 11 -61 43 -123 51 -169 23 l-33 -21 -48 34 c-50 35 -90 42 -151 27z"/>
</g>
</svg>
