<svg xmlns="http://www.w3.org/2000/svg" viewBox="0 0 1352.76 1367.25" role="img">
    <title>Spw</title>
    <desc>A programming language based in cognition</desc>
    <g>
        <path d="M202,139.18c-1.35,2.89-3.89,4.61-7.27,5.77a23.85,23.85,0,0,0-8.33,5.45,137.83,137.83,0,0,0-17.94,19.86c-5.09,7.1-8.84,15-12.48,22.93-2.88,6.3-5.94,12.54-8.43,19a99.24,99.24,0,0,0-6.13,21.9c-.34,2.42-1,4.8-1.52,7.19a30,30,0,0,0-.87,3.93c-.7,8-1.75,16.06-1.86,24.1-.12,9.16.63,18.34,1,27.51.25,6.26.32,12.55.84,18.79.65,7.82,2.82,15.27,5.37,22.71,4.08,11.93,10.42,22.76,16,34,4.53,9.18,10.56,17.55,18.81,24,3.67,2.89,6.37,6.86,10.29,9.53,9.21,6.26,18.37,12.59,27.56,18.88q5,3.4,10,6.76a11.93,11.93,0,0,0,3.45,2,19.75,19.75,0,0,1,7,3.77c4.52,3.36,9.8,5.35,14.56,8.26,3.59,2.18,6.88,4.7,11.29,5.58,3.15.62,6,2.86,8.92,4.43,6.1,3.27,12.2,6.52,18.24,9.89,3.5,2,6.77,4.41,10.79,5.26,3.68.78,5.84,4,9.1,5.48,3.83,1.78,7.24,4.51,11.12,6.13a71.7,71.7,0,0,1,11,6.26c4.12,2.65,8.45,5,12.59,7.61,5.07,3.2,10.22,6.3,14.63,10.44a9.29,9.29,0,0,0,2.65,2c5.82,2.3,10,6.59,13.94,11.19,8.92,10.37,18.8,19.71,30.39,27.06,5.51,3.49,9.29,8.61,12.13,14.08a225.8,225.8,0,0,0,15.14,24.42,64.91,64.91,0,0,1,5.79,11.17c1.08,2.48,2,4.85,4.08,6.79,2.81,2.63,4,6.23,5.44,9.79,4.49,11.14,6.14,22.82,7.74,34.58.81,6,2.31,11.82,3.5,17.73,1.31,6.58,2.92,13.13,3.85,19.77,1.16,8.2,1.69,16.48,2.61,24.71.76,6.9,1.76,13.77,2.51,20.67.63,5.79,1,11.6,1.54,17.39a39.41,39.41,0,0,0,.54,5.35c2,8.61,1.56,17.37,1.84,26.09.34,10.3,1.33,20.63.74,30.88-.89,15.41-.1,30.93-2.69,46.25a95.49,95.49,0,0,0-.81,10c-.79,13-4.44,25.55-7.39,38.18-1,4.34-1.34,8.84-2.24,13.2s-2.05,8.71-3.29,13a49.57,49.57,0,0,1-2.61,6.17c-.45,1-1.35,1.94-1.46,3-.86,7.51-5.61,13.14-9.57,19-4.27,6.27-8.32,12.61-12.06,19.21a67.42,67.42,0,0,1-12.06,15.95c-5.63,5.35-11.29,10.71-16.56,16.42a45.88,45.88,0,0,1-11.45,9,220.38,220.38,0,0,0-23.12,14.67,29.07,29.07,0,0,1-8.82,4.61c-4,1.23-7.73,3.47-11.51,5.39-4.77,2.42-9.6,4.77-14.19,7.5-6.86,4.07-14.85,4.57-22.11,7.32-2.29.87-4.72,1.4-7,2.31-8.56,3.42-17.32,6.08-26.56,6.81-5.81.47-11.6.86-17.11,3.13a24.14,24.14,0,0,1-5.92,1.12,146.1,146.1,0,0,0-17.19,3c-3.84,1-8,.94-12,1.24-5.58.41-11.16.87-16.76,1-7.61.21-15.21.25-22.76,1.62-2.55.47-5.31-.1-8-.34-3.56-.33-7.09-.94-10.65-1.2-6.26-.47-12.53-.71-18.78-1.14a20.5,20.5,0,0,1-9.05-2.26,13.77,13.77,0,0,0-3.79-1.33c-7.7-1.76-14.61-5.44-21.36-9.26-4.2-2.39-7.89-5.78-11.56-9-4-3.55-7.67-7.51-11.6-11.16-5-4.62-8.76-10.17-12.3-15.83a194.3,194.3,0,0,1-10.4-18.65c-4.75-9.84-9.82-19.52-13.38-30-3.47-10.15-6.82-20.32-9.53-30.68C45.29,943.75,44.85,938.8,44,934q-.62-3.63-1.34-7.24c-.51-2.63-1.08-5.25-1.59-7.88-.34-1.76-.21-3.73-1-5.26-2.37-4.8-2.39-10-2.89-15.06-.9-9.14-1.87-18.25-3.24-27.35a131.29,131.29,0,0,1-1.5-28.79,18.51,18.51,0,0,0,.13-2.68c-.79-13.54,1.89-26.74,3.91-40a13.89,13.89,0,0,1,4.81-8.55c2.83-2.5,5.84-4.8,8.84-7.1a12.05,12.05,0,0,1,3-1.5c4.38-1.68,8.77-3.3,13.16-4.94a6.74,6.74,0,0,0,1.9-.63c6.12-4.93,14-4.35,20.89-6.61,7.76-2.53,15.94-2.08,23.86-3.42a4.81,4.81,0,0,1,2,0c4.3,1.22,8.62,2.38,12.84,3.84a6,6,0,0,1,2.8,2.69,25.82,25.82,0,0,1,2.34,5.55c2.34,7.93,4.65,15.84,4.9,24.23a55.6,55.6,0,0,0,1.86,11.93,98.77,98.77,0,0,1,2.86,20.58,74.2,74.2,0,0,0,.83,8c1.11,7.53,2.41,15,3.41,22.58.81,6.06,3.3,11.59,5.11,17.33a70.17,70.17,0,0,0,2.54,6.89c3,6.74,4.61,14,8.29,20.45,1.86,3.29,4.24,6.2,6.07,9.55,3,5.45,7,10.35,10.7,15.35a31.37,31.37,0,0,0,12.92,10.26c4.68,2,9,5,13.83,6.56,7.37,2.45,14.55,6,22.55,6,8.51.08,17,.35,25.51-.22A81.21,81.21,0,0,0,286.84,949c2-1,4.1-1.7,6.1-2.64,1.61-.75,3.16-1.61,4.69-2.5,1.16-.66,2.16-1.8,3.39-2.09,2.32-.57,3.77-2.18,5.53-3.51,2.82-2.13,5.86-4,8.87-5.83,7.5-4.59,13.45-11,19.57-17.09a46.82,46.82,0,0,0,13.33-26.38c1-6.12,2.3-12.27,5-18a16.86,16.86,0,0,0,1.57-7.1c0-11.64-.31-23.29-.51-34.93a14.79,14.79,0,0,0-.25-4C352.33,819,352.29,813,351.61,807c-.4-3.54-1.41-7-2.13-10.51-.41-2-.73-4-1.22-5.9-1-3.89-2.07-7.75-3.14-11.62-.3-1.07-.77-2.1-1.05-3.17-1.44-5.64-3-11.25-4.22-16.94-1.61-7.65-4.45-14.9-6.68-22.36-2-6.85-4-13.72-6.2-20.54-1.56-4.9-3.36-9.72-5-14.59-.94-2.73-2-5.44-2.7-8.23-1.68-6.34-5.32-11.77-7.89-17.66-3.17-7.24-7.68-13.57-11.84-20.14a58.13,58.13,0,0,0-15.19-15.92c-3.42-2.49-7-4.8-10.34-7.36a38.09,38.09,0,0,1-4.83-4.59q-7.47-8.09-14.82-16.27c-6.68-7.43-14.73-13.47-21.16-21.17-2.11-2.54-5-4.49-7.58-6.57Q207.83,569.29,190,555.22c-4.19-3.31-8.3-6.77-12.73-9.74-7.22-4.84-14.65-9.38-22-14-1.89-1.17-4-1.89-6-3-6.78-3.89-13.52-7.84-20.27-11.78-6.54-3.82-13.15-7.54-19.61-11.52a226.43,226.43,0,0,1-36.29-27.28c-3.91-3.67-7.76-7.41-11.61-11.14a14.64,14.64,0,0,1-1.77-2c-7.76-10.89-16.28-21.2-23.33-32.63-4.17-6.76-7.36-13.68-8.51-21.53a7.13,7.13,0,0,0-.21-1.32c-2-5.7-3.83-11.43-5.93-17.07-2.35-6.28-5.32-12.33-5.9-19.17a17.38,17.38,0,0,0-1.36-4.48,60.42,60.42,0,0,1-4.11-20.31,8.77,8.77,0,0,0-.58-3.94c-2.08-3.67-2-7.74-2.66-11.69-1.52-9.48-3.29-18.92-4.52-28.44C1.42,295.34.85,286.39.07,277.48a10.43,10.43,0,0,1,.14-3.35c2.06-7.9,1.63-16,2.08-24,.61-10.75,1.21-21.46,3.61-32,.64-2.82.51-5.81,1-8.66,1.23-6.58,3-13.08,3.92-19.69,1.58-11.12,5-21.78,7.63-32.62a118.25,118.25,0,0,1,6.82-19.6c3.16-7.1,5.15-14.78,9.6-21.3a3,3,0,0,0,.58-1.21c.83-8.4,7.29-14.08,10.47-21.4,3.26-7.49,8.83-13.94,12.67-21.23,4.5-8.56,11.9-14.39,18.3-21.17a52.06,52.06,0,0,1,10.34-8.44c2.8-1.73,5-4.4,7.5-6.65a19.72,19.72,0,0,1,3-2.66c7.32-4.22,14.23-9.23,22.36-12,1.69-.57,3.27-1.43,4.93-2.11,1.84-.75,3.7-1.46,5.57-2.15a14.78,14.78,0,0,0,3.15-1.07c3.19-2.18,6.8-3.19,10.36-4.5A65.43,65.43,0,0,1,154.46,9c9.43-1.85,18.66-4.73,28.31-5.46A6.93,6.93,0,0,0,184.72,3C194-.56,203.66,0,213.27.11c6.26.09,12.52.65,18.79.9,11.23.44,22.18,2.92,33.25,4.59,6.76,3.06,14.59,2.49,21.16,6.22a5.27,5.27,0,0,0,1.95.47c8.63,1,16.19,4.85,23.77,8.74,3.57,1.83,7.38,3.2,11,4.95a44.94,44.94,0,0,1,5.05,3.23,67.69,67.69,0,0,1,16.58,15.22c4,5.24,8.86,10,13.1,15.15a60.75,60.75,0,0,1,4.32,5.08,100.52,100.52,0,0,0,9,11.53,41.39,41.39,0,0,1,5.59,9.06,130.21,130.21,0,0,1,8,19.14c1.1,3.62,2.83,7,4.13,10.6,2,5.46,4,10.92,5.73,16.45,1.9,6,3.62,12,5.28,18,1.41,5.17,2.51,10.43,4,15.59,1.39,4.94,3.09,9.8,4.58,14.71.9,3,2.06,6,2.38,9.06,1.36,13.12,3.76,26.1,3.73,39.4,0,8,1.59,16,3,23.95,1,5.76,2,11.47,1.95,17.32-.08,7.88,1,15.62,2.11,23.4,1.08,7.52,1.81,15.11,2.45,22.69.38,4.55-.47,8.72-3.93,12.31-2.91,3-5.18,6.67-7.63,10.12a10.58,10.58,0,0,1-6.09,3.85,21.53,21.53,0,0,0-3.86,1.1c-8.52,4.56-17.84,4-26.95,4-10.76,0-21.48.11-32.21.86-8.94.63-17.9.82-26.85,1.14a32.08,32.08,0,0,1-5.36-.31,13.78,13.78,0,0,1-10.75-7.12c-2.6-4.67-4.68-9.56-8-13.91-2.05-2.68-2.88-6.57-3.42-10.05-1.57-10.18-2.65-20.43-4.06-30.63-1.85-13.31-3.83-26.6-5.78-39.89a9,9,0,0,0-.81-3.23,19.91,19.91,0,0,1-2.29-9c-.4-6.77-2.65-13.14-4-19.71-1.28-6.34-2.55-12.68-4.05-19-3.95-16.65-11.31-31.48-24-43.29-4.24-4-8.24-8.28-13.58-10.86a19.52,19.52,0,0,0-4.91-2C218,138.72,210.23,137.17,202,139.18ZM311.39,336.12a135.19,135.19,0,0,0,28.73,1c5.11-.46,10.26-.62,15.4-.67,10.07-.09,20.16.12,30.23-.05a26.4,26.4,0,0,0,20.57-9.62,20.34,20.34,0,0,1,2.3-2.43c3.47-2.9,4.11-6.64,3.69-10.91-.59-6-1-12-1.31-18.07-.57-10.29-1-20.59-1.57-30.88a18,18,0,0,0-.63-4.65c-2.08-6.25-2-12.81-2.93-19.22-.3-2-.18-4.09-.76-6-1.86-6.11-2.15-12.43-1.94-18.65.46-13.67-2.65-26.69-6.38-39.61-2.54-8.79-3.35-18-6.87-26.56a23.07,23.07,0,0,1-.64-3.29c-.38-1.52-.78-3-1.3-4.51-2-5.68-4.1-11.31-6-17-2.87-8.43-4.74-17.22-8.95-25.18-2.39-4.53-4.66-9.13-7.23-13.55-3.72-6.38-8.62-11.93-13-17.85a64.82,64.82,0,0,0-7.5-8.45A31.11,31.11,0,0,1,339.92,54c-3.83-6.27-9.31-10.89-15.14-14.93-8.63-6-17.82-11.06-28.11-13.78a36,36,0,0,1-4.33-1.8,19.34,19.34,0,0,0-4.39-1.6c-3.83-.5-7.28-2.16-10.93-3.12-7.77-2.05-15.71-3.48-23.59-5.13a16.7,16.7,0,0,0-2-.1c-3.34-.31-6.69-.52-10-1-4.65-.65-9.25-1.87-13.91-2.15-8-.48-16.1-.42-24.15-.57a2.63,2.63,0,0,0-1.32.21c-4.31,2.53-9,2.16-13.72,2a14.53,14.53,0,0,0-3.33.37c-7,1.39-14.17,2-20.91,4.66-1.83.71-4,.66-5.92,1.05-1.53.3-3.24.4-4.49,1.19-3.59,2.26-7.53,2.61-11.58,2.9a9.43,9.43,0,0,0-5,1.5c-5.71,4.57-12.39,7.19-19.08,9.7a36,36,0,0,0-10.35,6c-4.15,3.4-8.18,7-13.29,9a8.63,8.63,0,0,0-3.26,3.18,44.73,44.73,0,0,1-9.38,10.44c-7.08,5.39-12.2,12.46-16.88,19.8-5.41,8.46-9.8,17.53-14.67,26.31-4.63,8.36-8,17.42-11.8,26.26-5.17,12.15-9.77,24.53-12.79,37.41-2.36,10-4.54,20.1-6.43,30.22-1.43,7.7-2.5,15.48-3.35,23.26-1.39,12.91-2.91,25.83-3.56,38.78s-1,25.95,1.92,38.76c.3,1.29.14,2.69.32,4,.84,6.21,1.38,12.48,2.71,18.59a92.38,92.38,0,0,1,2.41,15.22,49,49,0,0,0,2.59,13.13c1.46,4.45,2.23,9.12,3.33,13.68.73,3,1.37,6.1,2.29,9.07,1.2,3.84,3,7.53,3.92,11.43,1.76,7.38,5.32,14.23,6.4,21.81a6.3,6.3,0,0,0,.7,1.88c5.41,10.75,10.49,21.71,18.59,30.85a54.87,54.87,0,0,1,4.4,5.88,94.09,94.09,0,0,0,16.86,19c6.6,5.69,13.4,11.13,19.94,16.89a61.32,61.32,0,0,0,12.05,8.33,161.13,161.13,0,0,1,16.17,9.47,368.61,368.61,0,0,0,32.68,19.59c6.65,3.6,13.41,7.1,19.65,11.34,7.54,5.13,14.65,10.92,21.84,16.55,8.6,6.73,16.86,13.91,25.68,20.32a149.74,149.74,0,0,1,21.56,19c4.87,5.23,9.55,10.64,14.54,15.75s10.23,10,15.4,14.9c1.62,1.54,3.4,2.91,5.1,4.36,1.3,1.11,2.66,1.13,4.36.83,3.88-.69,5.53.61,5.35,4.36-.11,2.32.58,4.09,2.28,5.24,4.54,3.07,7.28,7.81,11.13,11.47,4.78,4.55,8.14,10,11.17,15.71,2.41,4.55,4.94,9,7.16,13.69,1.93,4,4.34,8.09,5,12.38,1.18,7.38,5.61,13.7,6.18,21.18a11.19,11.19,0,0,0,1,2.45q1.25,3.45,2.42,6.93c.7,2.11,1.34,4.24,2,6.36,2.06,6.59,4.26,13.15,6.14,19.8,1.81,6.43,2.82,13.13,5.05,19.4s3.19,13,5.36,19.39a49.44,49.44,0,0,1,2.18,9.14c1.81,12.86,4,25.71,5,38.64,1.24,15.2.3,30.44-1.13,45.63a10.14,10.14,0,0,1-.56,2.61c-3.32,8.79-5.37,18-8,27a17.6,17.6,0,0,1-3.52,7.06,214.65,214.65,0,0,1-26.4,25.55c-4.27,3.47-9.42,6-12.78,10.54a2.75,2.75,0,0,1-1.59,1.09c-4.34.57-7.79,3.33-11.51,5.16a96.45,96.45,0,0,1-21.2,8,22.54,22.54,0,0,0-5,1.84,34.16,34.16,0,0,1-13,3.2q-9,.67-18.07,1.28a12.39,12.39,0,0,1-2,0c-7.13-.58-14.28-1.05-21.4-1.83a33.12,33.12,0,0,1-9.1-2.1c-8.24-3.42-16.34-7.19-24.48-10.85a34.93,34.93,0,0,1-14.52-11.42c-4.94-6.9-9.74-13.89-14.57-20.86a20,20,0,0,1-2-3.47c-2-4.72-4-9.45-5.82-14.23-1.53-4-2.66-8.07-4.34-12a90.05,90.05,0,0,1-6.51-21.78c-.53-3.3-1.69-6.49-2.44-9.76a52.33,52.33,0,0,1-1.31-7.24c-.77-9.13-1.19-18.3-2.95-27.34-1.16-5.92-1.73-12-2.81-17.9-1-5.48-2.29-10.92-3.49-16.36-.53-2.41-1.1-4.8-1.76-7.18-.78-2.84-2.62-4.78-5.57-5.15-4.65-.58-9.34-.94-14-1.28a6.14,6.14,0,0,0-3.27.55c-4.49,2.46-9.52,2.39-14.35,3.14-6.7,1-13,3-18.63,6.88a4.9,4.9,0,0,1-1.77.91c-4.15.69-7.16,3.59-10.66,5.51-4.11,2.26-6.47,5.87-7.69,10.46a92.87,92.87,0,0,0-2.58,17.91c-.45,6.47-.32,13-1.27,19.43-.62,4.14-.16,8.49.2,12.71q1,12,2.5,24c1.49,11.77,3.19,23.52,4.8,35.27,0,.22.12.43.17.65,2,8.49,4,17,5.87,25.48.4,1.74.55,3.54.83,5.31.84,5.29,1.34,10.63,3.57,15.65,1.72,3.86,3.53,7.82,4.32,11.93,1.22,6.32,4.31,11.79,7.26,17.22,5.22,9.64,10,19.51,15,29.25a20.29,20.29,0,0,0,2.81,4.52c5.43,5.9,11.08,11.61,16.47,17.54,5.2,5.73,12,9.11,18.27,13.38a44.51,44.51,0,0,0,16.54,7c10.77,2.14,21.59,4,32.64,4,11.2,0,22.39.28,33.59.22a119,119,0,0,0,25.37-2.38,143.07,143.07,0,0,1,14.64-2c10.21-1.18,20.18-4.08,30.51-4.46a8.45,8.45,0,0,0,1.92-.59c7.05-2.12,14.09-4.27,21.16-6.33,5.58-1.63,11.29-2.73,16.66-5.1,3.86-1.7,7.66-3.61,11.86-4.52,1.48-.33,2.79-1.39,4.2-2.06,1.62-.76,3.23-1.55,4.9-2.18,8.35-3.17,16.49-6.69,23.8-12a68.37,68.37,0,0,1,9.21-5.48A85.23,85.23,0,0,0,392.45,1007c4.7-4.42,9.45-8.8,14.44-12.87s8.57-9.63,12.26-14.91c1.91-2.73,3.7-5.54,5.57-8.3,1.13-1.66,2.42-3.21,3.43-4.93,3-5.21,5.51-10.79,9-15.66,7.07-9.85,9.58-21.52,13.93-32.46a12.59,12.59,0,0,0,.28-2q2-9.51,4.05-19c.48-2.18,1.24-4.31,1.62-6.5,1.06-6.18,2.08-12.36,3-18.57.54-3.75.85-7.55,1.14-11.33.51-6.69.9-13.4,1.4-20.09.37-4.91,1.17-9.81,1.2-14.71q.15-19.82-.27-39.63c-.13-6-1-12-1.38-18.05-.85-14.07-1-28.22-4.29-42a21.43,21.43,0,0,1-.44-4.67c-.14-15.75-3.09-31.17-5.53-46.64-.42-2.65-1.2-5.23-1.75-7.86-2-9.41-3.94-18.82-5.82-28.25-.57-2.84-.71-5.78-1.31-8.62-.69-3.26-1.83-6.44-2.5-9.71a25.51,25.51,0,0,0-6.64-12.94,29.27,29.27,0,0,1-6.29-10.19,52.09,52.09,0,0,0-2.33-4.82c-3.57-7.25-9.33-13.1-13.19-20.11-4.62-8.4-10.9-15.14-18.12-21.23-5.3-4.45-10.67-8.85-15.66-13.64a226,226,0,0,0-29.81-24.62,56.33,56.33,0,0,1-5.23-4.18c-5.78-5-12.44-8.7-19.18-12.07-10.18-5.09-19.85-11.07-29.95-16.29-4.16-2.14-8.1-4.71-12.23-6.93-4.33-2.33-8.73-4.5-13.15-6.65-1.79-.87-3.72-1.44-5.54-2.25s-3.62-1.68-5.37-2.64-3.4-2.13-5.15-3.1c-7.39-4.13-14.86-8.14-22.2-12.37-3.86-2.22-7.34-5.12-11.28-7.16a196.68,196.68,0,0,1-27-17.28c-3.93-2.93-7.62-6.18-11.64-9-11.9-8.3-21.8-18.34-28.1-31.6-3.82-8-9.44-15.09-12.19-23.71-1.42-4.45-3.83-8.57-5.54-12.94s-3.66-8.73-4.54-13.29a165.2,165.2,0,0,1-2.38-20q-1.32-19.43-2.09-38.9a100.45,100.45,0,0,1,.42-15.42c1-8.44,2.45-16.83,3.79-25.23a33.56,33.56,0,0,1,1.32-4.51c1.69-5.31,3.84-10.53,5-16a53.16,53.16,0,0,1,5.53-15.06c3.5-6.24,6.14-12.86,9.57-19.11,4.11-7.47,8.55-14.68,14.5-20.88,2.31-2.41,4.29-5.14,6.42-7.72,4.74-5.73,9.83-11,17-13.8a14.31,14.31,0,0,0,4.72-3.67,10.67,10.67,0,0,1,8.37-3.53c6.72.16,13.49-.13,20.13.67,4.78.57,9.39,2.55,14,4,.79.24,1.41,1,2.12,1.58A126,126,0,0,1,257,151c4.87,5.58,9.35,11.34,12.66,18s7.4,13.29,7.76,21.17a5,5,0,0,0,.51,1.94c2,4.12,2.17,8.66,3,13a85.67,85.67,0,0,0,1.88,9.2,55.07,55.07,0,0,1,2.56,13.15,45.51,45.51,0,0,0,1.42,7.23c.75,3.26,1.62,6.49,2.34,9.75.54,2.4.68,4.91,1.41,7.24,1.77,5.61,2.3,11.39,3,17.18.6,5.1,1.61,10.16,2.42,15.23.42,2.65.85,5.3,1.14,8,.48,4.44.94,8.89,1.26,13.36C299.21,317.06,304.57,326.71,311.39,336.12Z"/>
        <path d="M908.71,687.39c-.86,8-1.56,16.06-2.62,24.05-.77,5.75-1.8,11.51-4.86,16.64a4.06,4.06,0,0,0-.55,1.22c-1.15,6.23-4.28,11.75-6.3,17.63-3.54,10.28-9.22,19.3-14.73,28.47a15.44,15.44,0,0,0-1.74,2.85c-2.39,7.4-7.43,13.2-11.77,19.4a16.75,16.75,0,0,1-4.53,4.83c-5.4,3.35-9,8.53-13.52,12.73-6.57,6.08-13.29,12-22,15a42,42,0,0,0-4.23,2c-5.64,2.65-11.17,5.59-17,7.84-3.91,1.52-8.18,2.14-12.32,3-2.6.56-5.34.5-7.61,2.28a6.25,6.25,0,0,1-2.53.77c-5.24,1.11-10.49,2.18-15.73,3.31a24.32,24.32,0,0,0-3.86,1.1,28.88,28.88,0,0,1-13.13,2.09,7.89,7.89,0,0,0-3.33.1c-6.79,2.79-14.15,1.3-21.14,3-4,1-8.45.26-12.7.22-8.5-.08-17-.25-25.51-.32a30.21,30.21,0,0,1-9.81-1.84,74,74,0,0,0-13-3.06c-4-.63-8.05-.55-12.06-1a25,25,0,0,1-6.52-1.31c-3.06-1.2-5.66-.57-8.21,1.08-2.24,1.46-4.35,3.13-6.64,4.51a15.78,15.78,0,0,0-8,11.66c-.85,5.53-1.79,11-1.29,16.66.69,7.8,1,15.63,1.66,23.42.36,4.21,1.15,8.38,1.75,12.56a6.81,6.81,0,0,1,.2,1.32c-.74,8.93,2.45,17.18,4.29,25.67.71,3.26.79,6.66,1.32,10,1.22,7.75,1.54,15.61,2.64,23.33,1.07,7.47,1.54,15,3.66,22.45,2.49,8.75,4.63,17.8,3.16,27.13,1.31,9.74,0,19.68,2.47,29.36a36.84,36.84,0,0,1,.77,10,72.18,72.18,0,0,0,2.83,20.55c1.79,6.66,2,13.63,4.75,20.15,1.7,4,1.66,8.72,2.15,13.16.47,4.22-.3,8.83,1.11,12.65,2.42,6.55,1.86,13.62,4.6,20.09,1.88,4.45,1.85,9.56,3.54,14.21,2.6,7.15,3.18,14.79,4.9,22.16,1,4.3.68,8.9,1.06,13.35.49,5.57,1.09,11.13,1.66,16.69a4.76,4.76,0,0,0,.39,2c2.46,3.8,2,8.16,2.53,12.36.28,2.44.75,4.85,1.15,7.28.15.88.44,1.74.52,2.63a68.6,68.6,0,0,0,2.65,15.09,16.52,16.52,0,0,1,.6,5.31,49.41,49.41,0,0,0,1.79,14.61,31.05,31.05,0,0,1,.53,4.66,19.21,19.21,0,0,0,.71,4.58c1.52,3.86,1.6,7.85,1.72,11.89a48,48,0,0,0,.8,8.65,65.59,65.59,0,0,1,.19,25.36c-.53,3.1-1.29,6.15-1.81,9.24a7.62,7.62,0,0,1-4.1,5.8c-4.94,2.58-9.85,5.18-15.46,6.24-9,1.69-17.91,3.72-26.87,5.56a28.09,28.09,0,0,1-4,.51c-10.72.6-21.44,1.16-32.17,1.75a6.55,6.55,0,0,0-2,.26c-7.37,2.84-15,1.79-22.58,1.64-2.44,0-5.05-.15-7.3.62-8,2.72-19-3.93-21.07-13.15-1.27-5.66-4.09-10.93-4.16-16.87a2.26,2.26,0,0,0-.29-1.3c-2.65-3.61-2.27-8-3.14-12a77.21,77.21,0,0,1-1.41-11.3c-.34-5.12-.74-10.19-1.56-15.31-1.57-9.7-1.93-19.58-2.86-29.38-.95-10-2-20-3-30-.3-2.89-.91-5.77-1-8.67a29.67,29.67,0,0,0-1.56-9.87c-.62-1.62-.55-3.52-.77-5.29-.25-2,0-4.18-.78-6-1.87-4.49-1.56-9.21-2-13.85-.3-3.33,0-6.73-1.44-9.9a4.47,4.47,0,0,1-.36-2c.33-7-1-13.8-1.9-20.69-.63-5.08-1.15-10.12-2.11-15.19-1.69-9-2.06-18.21-3-27.34-.09-.89,0-1.79-.15-2.68-.83-6.66-1.69-13.31-2.54-20-.69-5.33-1.35-10.65-2.08-16s-1.11-10.68-2.39-15.85c-1.79-7.28-1.53-14.67-2.19-22-.22-2.44-.74-4.85-.94-7.28-.33-4-.41-8-.77-12q-1.12-12.35-2.44-24.69c-1.25-11.79-2.63-23.57-3.82-35.37-.65-6.46-.89-13-1.54-19.41-1.09-10.68-1.89-21.4-4-32-.66-3.26-.43-6.69-.74-10-.63-6.9-1-13.85-2.12-20.68-1.48-9-1.46-18.26-3.64-27.2-.05-.21-.09-.44-.12-.66-1.08-8.41-2.1-16.84-3.25-25.25-2-14.63-4.13-29.24-6.16-43.87-.34-2.44-.39-4.91-.72-7.35-1.29-9.51-2.83-19-3.91-28.51-1-9.08-3.13-18-3.07-27.27a60.21,60.21,0,0,0-3.61-20.35,14.5,14.5,0,0,1-.67-2.59c-1.15-8.2-2.17-16.42-3.45-24.59-1.22-7.72-2.73-15.4-4.06-23.1-.27-1.54-.27-3.12-.46-4.68-.37-3.1-.77-6.19-1.19-9.29-.32-2.43-.74-4.86-1-7.3-.59-5.11-1.16-10.22-1.66-15.34a57.77,57.77,0,0,1-.22-6c0-5.82.58-11.68.13-17.47-.66-8.44-.94-16.91-3-25.26-2.83-11.73-4.66-23.69-7.42-35.43a50.09,50.09,0,0,1-1.21-15.27,33.45,33.45,0,0,0-.8-8.67c-1.52-7.63,4.13-16.75,12.21-19.38,4.87-1.58,9.89-2.71,14.67-4.48a38.92,38.92,0,0,1,7.13-1.58c7-1.24,14.1-2.36,21-4.22,6.29-1.71,12.66-2.72,19-3.85,5.48-1,10.91-2.27,16.4-3.17,4.87-.8,9.79-1.1,14.67.2a11.17,11.17,0,0,1,6.93,4.83,145.24,145.24,0,0,1,9.62,16.78c1.54,3.2,3.5,6.2,5.22,9.32a6.61,6.61,0,0,0,5.39,3.5c7.6.88,14.37-1,19.06-7.25,8.54-11.43,19.47-20.06,31.23-27.83,2-1.35,3.9-3,6-4.28a54.42,54.42,0,0,1,21.17-7.8c3.08-.46,6.1-1.28,9.16-1.88,5.91-1.18,12-1.83,17.72-3.59,9-2.76,18.2-2.46,27.31-2.38,7.57.07,15.15,1.45,22.69,2.48,4.66.64,9.26,1.65,13.87,2.61a16.47,16.47,0,0,1,5.09,1.61c6.77,4,14.35,5,21.89,5.94,3.8.49,7.11,1,10.45,3.59,3.95,3.09,9,4.89,13.7,6.92a148.07,148.07,0,0,1,22.88,12.37c4.46,2.95,9.12,5.6,13.7,8.36a24.93,24.93,0,0,1,2.92,1.63c4.81,4,9.61,8,14.33,12.09,3.37,2.92,6.46,6.2,10,8.92a23.33,23.33,0,0,1,5.34,5.84,63.5,63.5,0,0,0,5.14,6.94c4.55,5.28,7.53,11.57,11.29,17.36,1.45,2.23,2.51,4.77,4.22,6.78,2,2.33,2.77,4.94,3.56,7.78a86.7,86.7,0,0,0,4.08,10.55c1.74,4.09,3.4,8.23,5.47,12.15,3,5.64,3.65,11.93,5.46,17.89,1.55,5.14,2.92,10.35,4.89,15.32a34.9,34.9,0,0,1,2.47,9,6.71,6.71,0,0,0,.24,2c3.27,6.9,2.69,14.46,3.6,21.73,1.2,9.59.35,19.23-.79,28.82-.42,3.55-.76,7.12-1.14,10.68ZM558.93,1354.15c4.32.81,8.53,1.71,12.78,1.08,6.47-1,12.95-.57,19.43-.67,4-.07,8.17.11,12-.77a98.18,98.18,0,0,1,12.61-1.71c6.88-.63,13.7-1.85,20.66-1.71,2.84.06,5.79-.06,8.25-2.12.78-.65,2.09-.7,3.18-1,4.35-1,8.73-1.91,13-3.08a45,45,0,0,0,6.82-2.67,3.81,3.81,0,0,0,1.88-1.81c2.22-5.86,5-11.8,3.65-18.2-1.74-8.37-1.25-16.9-2.61-25.32-1.42-8.77-3.63-17.5-3.66-26.49a21.83,21.83,0,0,0-.43-2.65c-.45-3.54-.87-7.09-1.3-10.63a29.2,29.2,0,0,0-.64-4.62c-2.3-8-1-16.54-4.3-24.31a5.22,5.22,0,0,1-.13-1.33c-.42-3.1-.68-6.24-1.32-9.3a86.4,86.4,0,0,1-1.18-10.63c-.66-8-1.86-15.89-2.92-23.82a25.17,25.17,0,0,0-1-3.18c-1.67-6-3.37-12-4.91-18.07-.6-2.37-.51-4.93-1.24-7.25-1-3.14-2.9-6-3.57-9.23s-.32-6.64-.42-10c0-.22-.12-.44-.14-.66-.21-2.9-.58-5.8-.57-8.7a53.5,53.5,0,0,0-2.33-15.2,146,146,0,0,1-4.17-22.38c-.78-6.15-2.68-12.18-2.18-18.5.1-1.28-.6-2.6-.84-3.92-.53-2.85-1.07-5.7-1.47-8.57-.34-2.43-.18-5-.78-7.33-1.2-4.65-.93-9.31-.88-14a72.75,72.75,0,0,0-.6-13.38c-1.18-6.57-.81-13.45-3.61-19.73a3.86,3.86,0,0,1-.14-1.33c-.68-9.82-3.2-19.41-3.51-29.28-.08-2.63-1.06-5.23-1.49-7.86-1.14-7-2.18-14.1-3.32-21.14a28.8,28.8,0,0,0-1-3.19,29.6,29.6,0,0,1-.78-3.22c-1.85-10.78-2.31-21.76-4.62-32.47a9.27,9.27,0,0,1-.18-2.68c.6-7.4-.77-14.71-.93-22.07a28.59,28.59,0,0,1,.31-6.68c2.25-10.34,4.67-20.65,14.38-27.06.53-.35.78-1.14,1.3-1.52,4.22-3.07,8.63-5.31,14.16-5.29,9.67,0,19,2.55,28.64,3.05a8.09,8.09,0,0,1,1.94.52c13.4,4.33,27.18,5.43,41.15,4.89a37.15,37.15,0,0,0,7.33-.63c8.52-2.08,17.24-2.22,25.89-3,1.78-.15,3.57-.18,5.33-.45,8.83-1.35,17.67-2.63,26.15-5.68A42.68,42.68,0,0,1,787,834.72c6.19-.55,11.4-3.64,17.06-5.56,7.75-2.62,14.27-8.06,22.51-9.54a11.16,11.16,0,0,0,4.74-2.42c5-4.07,10-8.22,14.87-12.51a49.21,49.21,0,0,0,5.87-6.37c4.63-5.89,11.55-10.09,13.4-18.06.09-.4.51-.73.74-1.11,5.25-8.76,10.55-17.45,14.68-26.87,3.76-8.59,7.94-17,10.07-26.18a31,31,0,0,1,2-5,19,19,0,0,0,1.55-3.7q2.13-12.91,4-25.87c.36-2.43.43-4.91.66-7.36.94-10,3.32-19.94.64-30a4.3,4.3,0,0,1,0-1.34c.48-5.66-.66-11.15-1.73-16.65-.68-3.51-1-7.1-2-10.52-1.76-6.2-4.31-12.12-5.68-18.5-.86-4-2.63-8-3.4-12.13a6.3,6.3,0,0,0-.82-1.84,56.7,56.7,0,0,1-5.83-14.13,56.1,56.1,0,0,0-2.3-6.31c-2.42-6.2-5.85-12-7.26-18.61A8.38,8.38,0,0,0,869,551.4q-7.22-10-14.45-20c-4.19-5.78-8.45-11.52-14-16.13-4.27-3.58-8.66-7-13-10.49-1.92-1.54-3.66-3.39-5.78-4.57-5.66-3.15-11.06-6.67-16.45-10.28a137.65,137.65,0,0,0-20-10.65c-7.94-3.59-16.17-6.52-24.29-9.71a24.88,24.88,0,0,0-2.61-.65c-9.09-2.38-18.51-3.4-27.42-6.58a22.31,22.31,0,0,0-4-.71c-4.42-.7-8.83-1.49-13.27-2.06a91.79,91.79,0,0,0-12-1.1A122.64,122.64,0,0,0,689,459.58c-3.56.37-7.21.47-10.63,1.4-6.47,1.77-13.38,1.4-19.59,4.25-4.6.07-8.68,2-12.87,3.55a23.79,23.79,0,0,1-4.45,1.5c-5.54.82-10.23,3.75-14.22,7.1-10.41,8.76-20.93,17.49-29.27,28.41-1.07,1.41-2.16,3.07-3.64,3.85-4.34,2.28-8.88,4.19-13.36,6.19a4.27,4.27,0,0,1-2,.2q-6.69-.57-13.38-1.23a8.54,8.54,0,0,1-5.81-3A66.13,66.13,0,0,1,548.58,493c-1.44-3.49-3.08-6.91-4.84-10.25a6.14,6.14,0,0,0-5.37-3.47c-2.24-.11-4.42-.5-6.62.39a18.43,18.43,0,0,1-3.91.94c-12.79,2.11-25.63,3.94-38,8-2.09.68-4.39.68-6.59,1-1.53.24-3.24.18-4.54.88a11.35,11.35,0,0,1-5.11,1.2c-5.9.31-11.43,2.32-16.84,4.38-3.05,1.16-6.15,3.32-6.43,7.11-.43,5.73-1,11.57-.41,17.23.68,6.17,2.7,12.18,4.05,18.28.39,1.74.51,3.53.74,5.31a35,35,0,0,0,.47,4c1.28,5.43,2.63,10.85,4,16.26a101.21,101.21,0,0,1,2.87,24.6c.1,19.25,1,38.47,3.81,57.55.17,1.11.37,2.21.63,3.3,1.46,6.31,1,12.95,3.25,19.12-.05,8.11,3.59,15.7,3.3,23.84a6.79,6.79,0,0,0,.41,2A114.1,114.1,0,0,1,478,724.39a52.19,52.19,0,0,0,.87,6.65c.28,2,.59,4,.85,6,.54,4.21,1,8.43,1.59,12.64.26,2,.72,4,.95,6,1.27,10.88,2,21.83,4.52,32.54a17.77,17.77,0,0,1,.44,3.32c.33,7.82,2.6,15.44,2.42,23.32a6.83,6.83,0,0,0,.59,2.6c1.54,3.84,1.4,7.89,1.64,11.9.12,2-.05,4.16.68,5.93a20.58,20.58,0,0,1,1.25,6.52,59.06,59.06,0,0,0,.81,8c2.39,10.74,2.74,21.72,3.94,32.6,1,9.11,2.65,18.16,2.59,27.38a10.05,10.05,0,0,0,.16,1.33c1.36,10.15,3.29,20.22,3.9,30.47.27,4.67,1.43,9.31,1.45,14,.05,11,3,21.75,2.53,32.77a7.64,7.64,0,0,0,.19,1.32c1.28,10,2.65,20,3.77,30,.47,4.22.21,8.52.61,12.74,1.13,12,2.43,24,3.68,36.06a21.57,21.57,0,0,0,.51,3.3c2.25,8.72,2.49,17.71,3.67,26.57,1.12,8.42,1.7,16.91,2.56,25.37a28,28,0,0,0,.74,4c1.75,7.16,1.83,14.66,4.31,21.68a2.12,2.12,0,0,1,.11.66c.11,8.06,2.53,15.93,1.81,24.07a22.64,22.64,0,0,0,.61,4.64c.56,4.43,1.1,8.87,1.67,13.3,1,7.31,1.54,14.7,3,21.9a94.79,94.79,0,0,1,1.73,11.9,20.68,20.68,0,0,0,.64,5.32c1.47,4.1,1.44,8.38,1.74,12.6.35,4.89.32,9.74,1.14,14.66,1.32,7.91,1.61,16,2.37,24,.86,9.12,1.63,18.25,2.72,27.35.5,4.2.88,8.69,2.7,12.38s2.26,7.51,2.74,11.51C553.08,1340.56,553.53,1347.85,558.93,1354.15Z"/>
        <path d="M1331.25,473.65a22.85,22.85,0,0,0,3.16,1.12c7.12,1.5,10.66,6.61,13.57,12.72,3.79,8,3.9,16.34,3.27,24.83a27.92,27.92,0,0,1-.5,4.68,37.16,37.16,0,0,0-.11,17.94,16.26,16.26,0,0,1,0,4c-.08,5.57-.35,11.16-.19,16.73.13,4.21.75,8.43,1.14,12.61.49,5.12,0,10.21.5,15.32.8,8.88.54,17.84.41,26.77-.09,5.78-.07,11.56.11,17.33a183.68,183.68,0,0,1-.87,25.48c-.6,5.56-1.71,11.14-1.53,16.67.24,7.53-1.58,14.6-3,21.82a46.89,46.89,0,0,0-.82,10.7,51.67,51.67,0,0,1-1.08,12.65c-.76,3.68-1.71,7.42-.91,11.31a13,13,0,0,1-.25,4c-.76,6.44-1.8,12.86-2.29,19.32a54.32,54.32,0,0,1-6.34,21.1c-4.18,8-7,16.47-10.17,24.84-.87,2.3-1.62,4.66-2.58,6.92a14.48,14.48,0,0,1-2.58,4.68c-4,3.93-6.55,9-11.09,12.5-3.3,2.55-5.89,6-8.86,9-2.35,2.36-4.53,5.06-7.29,6.81a31.72,31.72,0,0,1-10.41,4.49c-7.63,1.49-15.14,3.84-23,3.89-2.22,0-4.45,0-6.65-.16-2.45-.24-4.86-.88-7.31-1.11a34.18,34.18,0,0,1-16.75-5.86c-4.9-3.37-10.93-5.08-16.38-7.68q-7.87-3.74-15.6-7.8c-10.08-5.35-20.23-10.55-31.28-13.67a33.85,33.85,0,0,0-6.64-.76c-2-.14-4.08.16-6-.27-3.77-.83-7.29.24-10.41,1.77-7.38,3.62-14.88,7.23-21.6,11.9-5.85,4-12,7.55-17.74,11.83a179.15,179.15,0,0,1-36,20.53c-6.08,2.65-12.09,5.58-18.87,6.79a66.51,66.51,0,0,1-17.92.39c-3.56-.32-7.05-1.24-10.59-1.83-4.18-.71-8.39-1.3-12.56-2-2.63-.48-5.25-1.1-7.83-1.79q-5.19-1.41-10.3-3.06a40.63,40.63,0,0,1-4.94-2c-2.62-1.25-5.15-2.72-7.81-3.87a91.77,91.77,0,0,1-26.78-17.43,89.48,89.48,0,0,1-9.48-10.22c-3.39-4.37-7-8.68-9.22-13.83A34.71,34.71,0,0,1,929.3,800a96.74,96.74,0,0,0-5.68-13.49,41.55,41.55,0,0,1-2.61-6.86c-1.21-4.52-2-9.13-3.25-13.65-1.79-6.68-3.81-13.3-5.62-20-1.11-4.08-2.39-8.12-2.43-12.46,0-2-.84-3.91-1.37-5.84a42.91,42.91,0,0,1-1.89-11.17,21.27,21.27,0,0,0-1.25-7.83c-2.09-5.14-1.64-10.55-2.45-15.82-.4-2.64-.82-5.28-1.17-7.93-.21-1.53-.3-3.08-.43-4.62a54,54,0,0,0-.49-6,59.05,59.05,0,0,1-.75-12.67,90,90,0,0,0-1.36-15.17,111.14,111.14,0,0,1-1.23-14c-.1-5.11-1-10.18,0-15.38.59-2.94-.38-6.19-.67-9.3-.79-8.45-1.7-16.88-2.35-25.33-.37-4.86-.31-9.75-.49-14.62s0-9.85-.73-14.67a60.69,60.69,0,0,1-.18-8c-.16-11.15,1.1-22.35-.36-33.46a99.47,99.47,0,0,1-.26-21.4,33.52,33.52,0,0,1,5.85-15.57c1.1-1.67,2.36-3.23,3.47-4.89,2.28-3.41,4.93-6.19,9-7.63,4.38-1.55,7.86-5.16,12.61-6,6.57-1.14,13-3.25,19.8-2.88a10.71,10.71,0,0,0,3.31-.49,14.17,14.17,0,0,1,5.95-.34,34.3,34.3,0,0,0,6.63-.16c.89,0,1.77-.3,2.65-.28,6.25.18,12.49.53,18.73.59,6.46.07,12.93-.31,19.38-.15,5.35.13,10.7.69,16,1.24a18.21,18.21,0,0,1,4.45,1.44c1.86.72,3.07,2.13,2.76,4.13a9.41,9.41,0,0,0,2,7.52c2.26,3,2.88,6.62,3.26,10,1.16,10.37,3.34,20.78.43,31.22a8.51,8.51,0,0,0-.36,2c-.16,6-.06,12-.49,18-.55,7.57.2,15.16-1.27,22.73-1.35,7-2,14.15-2.65,21.26-.31,3.32.1,6.69.11,10,0,6.68.06,13.36-.1,20a23.47,23.47,0,0,1-1.16,6.53,18,18,0,0,0-.7,9.78c1.43,6.76,1.88,13.71,3.12,20.52,1.4,7.68,3.06,15.32,4.89,22.91a49.22,49.22,0,0,0,9.76,20.34,43.56,43.56,0,0,0,4.74,4.67c1,.88,2.31,1.41,3.3,2.3,4.43,4,10,4.37,15.47,5a34,34,0,0,0,14.41-1.68c7.46-2.28,15-4.34,21.83-8.25,5-2.88,9.9-6,14.65-9.36a46.94,46.94,0,0,1,10.65-5.38q10.93-4.07,21.68-8.63c6.94-3,14.27-3.47,21.62-4a11,11,0,0,1,3.34.25c7.61,1.81,15.38,3.19,22.75,5.73a52.36,52.36,0,0,1,14,7.8c7.37,5.52,14,2.72,20.11-3.63,2.88-3,5.25-6.58,5.36-11.27.06-2.37,1.22-4.74,2.06-7a53.87,53.87,0,0,0,3.65-21.7c-.26-4.44.3-8.93.53-13.4.38-7.13,1-14.22,0-21.41-.72-5.49.13-11.18-.5-16.69-.89-7.82-.57-15.63-.55-23.42a191.29,191.29,0,0,1,1.68-28.09c.68-4.51-.18-9-.91-13.32-2.25-13.46,5.17-23.11,14.69-28.27,6.7-3.63,13.71-6.4,21.53-6.87,4.87-.29,9.69-2.06,14.52-2,9.67.1,19-2.6,28.54-3a17.5,17.5,0,0,1,5.28.64c2.37.64,4.64,1.63,7,2.48Zm-9,298-.27-.11c1-2.73,2.19-5.4,2.94-8.2,1.16-4.31,2.78-8.69,2.8-13.05a64.52,64.52,0,0,1,2.52-15.82,109.11,109.11,0,0,0,2.88-13.8c1.23-10.19.58-20.57,3-30.66.3-1.25-.17-2.67-.07-4,.25-3.33,0-6.9,1.06-9.93,3.1-8.41,2.47-17.23,3.63-25.84.42-3.09.36-6.23.54-9.35.38-6.48.94-12.94,1.13-19.42.16-5.58-.6-11.22,0-16.74.69-6.93-.11-13.81.08-20.72.24-8.47-1.3-16.93-1-25.46.41-9.78-2.25-19.51-.63-29.34a6.65,6.65,0,0,0,0-1.34c-.39-9.37-.82-18.75-1.16-28.12-.18-5-3.34-8.63-5.88-12.51-.42-.63-1.51-.9-2.35-1.16-2.56-.77-5.14-1.54-7.74-2.16-5.24-1.26-10.49-2.24-15.93-1-7.42,1.64-15,1.89-22.56,2.58-5.32.48-10.63,1.26-15.9,2.18a37.68,37.68,0,0,0-12.51,4.72c-6.74,3.92-9.21,10.4-9,17.58.24,7.79,1.64,15.54-.37,23.29a9.3,9.3,0,0,0-.06,3.33,98.36,98.36,0,0,1,.27,21.35c-1.13,10.34.44,20.52,1,30.76a3.64,3.64,0,0,0,.19,1.33c1.56,3.48.91,7,.29,10.54a15.5,15.5,0,0,0-.33,5.28,28.71,28.71,0,0,1,0,8.68,60.56,60.56,0,0,0-.28,9.34c.2,5.34-.46,10.71-.82,16a9.51,9.51,0,0,1-.74,3.27c-2.59,5.6-3.12,11.64-3.85,17.64a23.52,23.52,0,0,1-6,13.16c-4.75,5.36-10.75,8.51-17.08,11.39a13.43,13.43,0,0,1-12.26-.48c-4.14-2.16-8.39-4.17-12.06-7.24-6.23-5.21-13.8-7.27-21.7-8.18-3.1-.36-6.25-.34-9.36-.65a36,36,0,0,0-13.26,1.11c-12.16,3.41-23,9.9-34.22,15.41a6.35,6.35,0,0,0-1.7,1.07c-3.6,3.42-7.94,5.62-12.27,8a110,110,0,0,1-20.3,8.7c-11,3.37-21.86,3.84-32.69-.56-1.45-.59-2.9-1.2-4.39-1.68-5.26-1.72-8.86-5.89-13.22-8.93a7.29,7.29,0,0,1-1.7-2.06q-2.74-4.22-5.39-8.46a18.82,18.82,0,0,1-1.61-2.91c-1.49-3.7-3.09-7.38-4.29-11.19s-2-7.77-3-11.66c-.27-1.08-.68-2.13-.87-3.22-1.14-6.81-1.78-13.74-3.5-20.4a44.11,44.11,0,0,1-.43-18.54c.5-3.07,1.36-6.23,1.1-9.26a164.83,164.83,0,0,1,.33-32.11,27.92,27.92,0,0,0,.24-6.7c-.36-2.77.32-5.31.69-8,1.2-8.65,2.64-17.3,3.18-26,.55-9.11.17-18.23,2.05-27.29,1-4.74.71-9.75.9-14.63a16.34,16.34,0,0,0-.53-3.29,15.13,15.13,0,0,1-.64-3.92c.53-5.2-1.72-9.54-3.85-14a7.93,7.93,0,0,0-6.1-4.71,53.81,53.81,0,0,0-8.69-.71c-7.37-.09-14.75-.19-22.11,0-8.93.27-17.85.82-26.76,1.36-4.46.27-8.9,1.08-13.35,1.1a21.25,21.25,0,0,0-7.87,1.22c-3.53,1.39-7,2.92-10.59,4.15-5.39,1.86-9,5.95-11.76,10.42-3.43,5.57-4.84,12-5,18.64a67.76,67.76,0,0,0,.2,9.35c1.11,9.12.41,18.25.49,27.37,0,3.56-.44,7.14-.4,10.7.05,5.58.33,11.15.55,16.72.2,5.12,0,10.3.73,15.36,1.53,10.84,2,21.77,3.07,32.64-1.45,6.17,2.59,12.32.05,18.53-.28.68.31,1.7.43,2.58.58,4.2,1.18,8.4,1.69,12.61.87,7.06.18,14.31,2.73,21.18a7.5,7.5,0,0,1,.17,4c-1.55,7,.35,13.82,1.24,20.61,1.53,11.73,3.9,23.34,5.67,35a62,62,0,0,0,2.08,9.75,185.06,185.06,0,0,1,5.4,20c1.58,7.87,3.54,15.59,5.88,23.25a98.3,98.3,0,0,0,16.49,31.17,89.25,89.25,0,0,0,10.95,11.66A46.81,46.81,0,0,0,971,829.6c5.36,2.75,10.28,6.35,15.67,9,4.38,2.15,9.18,3.44,13.79,5.11,10.35.32,20.4,2.82,30.37,5.12,8.87,2,16.82.15,24.85-2.73a86.44,86.44,0,0,0,10.26-4.74c5.53-2.86,11.3-5.41,16.37-8.94,6.55-4.56,13.36-8.72,19.86-13.34,4-2.83,8.18-5.39,12.3-8,3.56-2.29,7.08-4.63,10.73-6.76,1.71-1,3.88-1.24,5.49-2.34,4.66-3.21,9.95-4.88,15.25-6.48a25,25,0,0,1,16.46.34,21.16,21.16,0,0,0,6.43,1.82c7.14.28,13.42,3.36,19.92,5.69,1.86.66,3.45,2,5.18,3,3.67,2.12,7.31,4.29,11,6.31,2.56,1.39,5.49,2.2,7.81,3.88,5.87,4.28,12.78,6.45,19,10,10.39,5.89,21.88,5.85,33.26,6.49a10.19,10.19,0,0,0,1.31-.21c5-.39,9.49-2.24,14.07-4.09a44.53,44.53,0,0,0,15.3-10.47c3-3,5.59-6.34,8.59-9.26,3.44-3.34,5.5-7.61,8.51-11.12,3.38-3.93,3.42-8.57,4.68-13,1-3.44,2.26-6.79,3.45-10.15C1321.29,773.66,1321.82,772.68,1322.28,771.66Z"/>
    </g>
</svg>