<svg xmlns="http://www.w3.org/2000/svg" viewBox="0 0 1421.65 493.5">
    <defs>
        <style>.cls-1{fill:#fff;}</style>
    </defs>
    <g>
        <path d="M148.81,464.84a18.25,18.25,0,0,1-1.15-4,18,18,0,0,1,.62-4.18c.23-1.37.57-2.72.7-4.1,0-.32-.62-.71-.89-1,.87-3.38,1.91-6.85,2.6-10.39.51-2.58.14-5.26,2-7.62.64-.8-.34-2.74-.27-4.15.15-2.93.51-5.85.75-8.78.11-1.23.15-2.46.16-3.7,0-.33-.36-.78-.24-1,2.1-3.45.51-7.64,2.27-11.12.28-.55,1.08-.82,1.82-1.35l-1.74-1.64c1.71-1.67,1.66-3.45,0-5.23a8.06,8.06,0,0,0,2.88-7.59c-.3-2.5,1.23-4.8,1.51-7.25.25-2.15.07-4.35.13-6.54.07-2.77-.21-5.63.39-8.29.64-2.84,2.12-5.49,3.3-8.37-.57-.94-2.78-2,0-3.33.18-.09.29-.41.34-.65.44-2.23.92-4.46,1.28-6.71.68-4.24,1.23-8.5,2-12.73.76-4.4,2-8.74,2.4-13.16.33-3.27,1.9-6,2.62-9.08.65-2.72.56-5.61.81-8.43.14-1.61.21-3.24.48-4.83.37-2.24-1.31-4.66-3.46-4.6-9.3.24-18.62.32-27.91.88-8,.49-16.1,1.23-24.06,2.45-7.18,1.09-14.27,2.82-21.33,4.57-4.68,1.15-7.66,3.95-8.5,9.19-.93,5.75-2.93,11.32-4,17-.77,4.15-.58,8.48-1.22,12.66s-1.86,8.54-2.67,12.83c-.71,3.74-1.17,7.52-1.77,11.28-1.66,10.48-3.38,21-5,31.45-.84,5.37-1.36,10.8-2.34,16.14-1.35,7.37-3,14.68-4.52,22-.62,3-1.07,6.11-1.86,9.1-1.25,4.71-2.67,9.37-4.17,14a3.81,3.81,0,0,1-1.93,2,21.31,21.31,0,0,1-10.6,1.87c-3.49-.29-6.16-2.4-9.53-2.79a108.51,108.51,0,0,1-12.89-2.69c-2.41-.59-4.73-1.58-7.11-2.31-1.79-.54-3.68-1.45-5.42-1.27S11,452.3,9.93,451.69a28.45,28.45,0,0,1-2.54-1.86L1.83,437a18.56,18.56,0,0,1,.53-2.24c.49-1.5-.36-1.28-1.42-1.69-1.69-.66-1-3.18,1.18-4.45,0-3.33,0-6.69,0-10,0-2.67-.29-5.34.82-7.87.41-.95.84-1.9,1.5-3.34-.45-2.42-1.23-5.31.34-8.67a23.34,23.34,0,0,0,1.28-6c.54-3.94,1.33-7.88,1.49-11.85a23.82,23.82,0,0,1,1.76-7c.91-2.66.49-5.75.82-8.63a25.63,25.63,0,0,1,1.15-4l-.55-.35a23.07,23.07,0,0,1,.53-4.43A18.18,18.18,0,0,1,13.3,353l-1.43-.3c1.28-2.34,3.54-4.23,2.58-7.27a.67.67,0,0,1,.09-.51c2.2-3.23,1.64-7.21,2.83-10.76a16.23,16.23,0,0,0,.32-8c-.26-1.35.47-1.6.7-2.38.74-2.5,1.31-5.06,1.86-7.61.65-3,1.24-6,1.79-9,.26-1.42,1.44-2.68.25-4.4-.38-.55.76-2.15,1.42-3.81-.29-.75-1.38-1.95.42-3.51.83-.72.55-2.72.76-4.14.05-.34,0-.7.05-1,.74-3.78,1.57-7.55,2.2-11.34.13-.84-.85-2.45-.62-2.59,1.81-1.13.78-2.87,1-4.24a37.39,37.39,0,0,1,2.18-8.61c.79-1.92,1.87-4.25-.15-6.1a22.6,22.6,0,0,0,2.59-13.53,14.26,14.26,0,0,1,.15-2.25,12.19,12.19,0,0,1,.24-2.72,16,16,0,0,0,1.15-3.69c.12-1.37.18-2.75.38-4.1.57-3.87,1.8-7.75,1.63-11.57a20,20,0,0,1,1.62-8.33c.77-2.09,1.76-4.93.3-7.49a1.64,1.64,0,0,1,0-1.45c2.05-2.94,2.26-6.17,2-9.63a17.75,17.75,0,0,1,.74-6,49.78,49.78,0,0,0,2-11.41,2.87,2.87,0,0,1,.65-1.38l3-23.53c.78-1.9,1.48-3.55,2.14-5.21a32.87,32.87,0,0,0,1.67-4.49c.55-2.38,3.43-2.77,4.06-4.26,1.18-2.84,4.81-1.85,5.78-4.61.18-.55,1.93-.39,2.76-.89,3.32-2,6.95-2.58,10.68-3.41,2.88-.63,5.76-.94,8.64-1.33,3.63-.49,7.31-.63,11-1,2.28-.24,4.54-.84,6.82-.92a96.5,96.5,0,0,1,13.39,0c5.58.59,8.11,3.64,8,9.25a73.47,73.47,0,0,1-1.38,12.74c-1.35,6.52-3.29,12.91-4.8,19.4s-2.77,13.17-4.28,19.73c-1.15,5-2.74,9.91-3.76,14.93-.82,4-1,8.1-1.63,12.14-.13.89-1,1.64-1.3,2.54-1,3.7-2.15,7.4-2.88,11.17-1,5.08-1.91,10.18-1.51,15.42.16,2,1.1,3.13,3.1,3.12,7.37,0,14.78.33,22.1-.33,6.31-.58,12.49-2.48,18.77-3.56,3.36-.57,6.85-.4,10.21-1,6.19-1.06,12.35-2.31,18.46-3.7,3.31-.75,6.22-5.51,5.92-9-.28-3.22,1.76-7.43,4.23-8.72a2.6,2.6,0,0,1-.94-4.06c2.66-2.57,3-5.81,2.84-9.25a10.61,10.61,0,0,1,.14-2.32c.7-4.22,1.45-8.43,2.18-12.65,0-.17.2-.39.14-.49-1-1.78-.5-3.46.23-5.16.66-1.49.3-3,.31-4.52,0-3.25,1.3-6.46,1.75-9.73.48-3.57.59-7.19.88-10.79.09-1.07.23-2.13.36-3.26l1.23.62c.49-4.65,1-9.23,1.48-14.09,3.56-.91.25-3.55,1.38-5.6l1.85-.68c-1.7-4.05,2.07-5.78,3.43-8.56.32-.67.23-1.59.65-2.14a13.71,13.71,0,0,1,3.45-3.69c2.58-1.53,5.87-1.44,8.29-3.67.86-.8,2.63-.63,4-.88,3.15-.59,6.64-.52,9.33-2,2.18-1.15,4.38-.19,6.28-1.36a2.17,2.17,0,0,1,1-.4,51,51,0,0,0,6.44-.21c2.94-.48,5.77-1.84,8.7-2a58.8,58.8,0,0,1,14.23.52c4,.78,4.32,5.08,4.55,8.4.49,7-.86,13.78-2.49,20.53-2.34,9.7-4.54,19.43-6.84,29.14-1.21,5.1-2.59,10.15-3.77,15.26s-2.16,10.43-3.4,15.61c-.69,2.89-2,5.65-2.54,8.56-1.07,6-1.63,12.11-2.69,18.13-1,5.52-2.39,11-3.52,16.45-.5,2.44-.81,4.91-1.17,7.38-.61,4.2-1.16,8.41-1.78,12.61-.3,2-.75,4-1,6a39.34,39.34,0,0,1-.59,4.26c-.3.95-.64,1.88-.88,2.84-.3,1.24-.51,2.5-.76,3.75s-.57,2.68-.83,4c-.11.59-.07,1.22-.21,1.8-.57,2.33-1.27,4.63-1.74,7-.53,2.65-1.33,5.35-1.2,8,.24,4.92-1.27,9.37-2.47,14a79.74,79.74,0,0,0-1.74,10.93c-.39,3.26-.47,6.56-.78,9.83s-.75,6.6-1.11,9.9c-.5,4.63-1,9.26-1.47,13.89-.34,3.71-.68,7.43-.75,11.15-.05,2.64.53,5.29.51,7.93a63.53,63.53,0,0,1-.72,8.59c-.56,3.85-1.28,7.68-2.09,11.49-.43,2-1.45,3.9-1.73,5.91-.44,3.22-.44,6.5-.73,9.74-.32,3.46-.6,6.93-1.21,10.34-1,5.34-1.93,10.64-1.45,16.11a8.69,8.69,0,0,1-.66,4.29c-2.83,5.94-2.87,12.25-2.74,18.6.06,2.58-1.67,4.18-3.67,5a130.76,130.76,0,0,1-14.59,5.25,12.83,12.83,0,0,1-7.24,0c-4.9-1.67-9.81-1.42-14.58-.46-6.29,1.28-12.24,0-18.26-1.19-1.4-.28-2.65-1.28-4-1.93s.91-2.36-1-3c-.34-.12-.05-2-.05-3.12Zm-59.18-229c0-1.5,0-2.86,0-4.22a6.41,6.41,0,0,1,0-1.81c1.15-3.74,2.38-7.44,3.53-11.17.25-.81.67-1.92.34-2.49-.93-1.57.55-2.42.78-3.61s1-2,1.14-3c.27-1.67.22-3.39.38-5.08a29.52,29.52,0,0,1,.51-3c.27-1.37.47-2.77.87-4.1s1.17-2.41,1.44-3.68c.75-3.46.07-7.37,3.16-9.46-.21-1.55-.84-3.2-.4-3.57,1.15-1,.9-1.77.91-3a42.74,42.74,0,0,1,1.24-7.89c.66-3.2,1.47-6.37,2.27-9.79l1.5-.43c.56-4.79,1.09-9.33,1.64-14h1.09c.28-2.68.41-5.28.83-7.83.68-4.11-.7-6-4.93-5.75-6.23.32-12.48.59-18.66,1.41-8.8,1.18-17.46,3.07-25.24,7.77-2.83,1.7-4.9,3.61-5.22,7.21s-1.12,7.45-1.77,11.16c-1,5.79-2.18,11.55-3.07,17.36-.67,4.34-.85,8.75-1.55,13.09-1.1,6.82-2.55,13.59-3.65,20.42-1,6.24-1.79,12.51-2.59,18.77-.89,7-1.54,14.12-2.57,21.14-.88,6-2.18,11.87-3.21,17.81-.68,3.95-1.23,7.93-1.83,11.9-.44,2.87-.79,5.77-1.34,8.62s-1.37,5.4-1.88,8.13c-1.84,9.74-3.89,19.44-5.29,29.24a201.49,201.49,0,0,1-4.56,21.81C22,354,20,360.13,18.76,366.41c-1.5,7.82-2.47,15.74-3.51,23.64-.83,6.35-1.08,12.78-2.2,19.07-1.44,8.12-3.42,16.17-1,24.37,1.39,4.76,1.79,10.29,7.43,12.56,3.25,1.31,6.5,2.66,9.84,3.67,6.07,1.81,12.2,3.4,18.32,5a11,11,0,0,0,2.87.21c2,0,3-1,2.73-3.18a11,11,0,0,1,2.06-8.57,11.94,11.94,0,0,0,1.89-4.56c1-4.66,1.71-9.36,2.55-14,.39-2.12.89-4.23,1.2-6.36.5-3.5.37-7.19,1.48-10.48a41.22,41.22,0,0,0,1.85-11.46c.12-2.44,1.33-4.81.07-7.28-.1-.19.53-.65.65-1,.56-2,1.15-3.92,1.57-5.91.37-1.71.46-3.47.78-5.19s.91-3.5,1.15-5.28c.28-2.07.14-4.2.48-6.25A136.54,136.54,0,0,1,72,350c.41-1.4-.85-2.37-.13-3.17,2.3-2.55.25-5.69,1.34-8.41.56-1.41.45-3.1,1.07-4.48,1.15-2.59-.75-5.54,1.28-8,.67-.84.6-2.3.82-3.48a16.32,16.32,0,0,0,.3-2.29c.08-2.42,2.76-4.25,1.54-7a2.28,2.28,0,0,1,.21-1.53A55.07,55.07,0,0,1,81,305.66c1.38-2.5,1.89-5.72,5.12-6.87,1.21-.43,2.69-.58,3.59-1.37,2.35-2.09,5.17-2.37,8-2.71,1.3-.16,2.64-.16,3.93-.39,6.49-1.13,12.93-2.74,19.46-3.38,12.41-1.2,24.87-2,37.32-2.66a143.68,143.68,0,0,1,17.84.52c3.08.23,6.54,5.87,6.1,9-.39,2.77-.48,5.58-.92,8.34-.66,4.15-1.36,8.31-2.33,12.4-.9,3.79-2.37,7.46-3.23,11.26-1.73,7.66-3.3,15.36-4.77,23.07q-2.28,11.93-4.22,23.89c-.79,4.84-1.31,9.72-1.9,14.58-1.2,10.06-2.31,20.13-3.6,30.18-.47,3.7-1.4,7.34-2,11s-1,7.31-1.56,11c-.53,3.49-1.41,6.95-1.64,10.45a35.1,35.1,0,0,0,.64,8.91c.28,1.46,1.44,3.43,2.67,3.88a19.54,19.54,0,0,0,7.9,1.18c6.77-.48,13.47-1.11,20.24.2a14.66,14.66,0,0,0,6.2-.61c2.18-.57,4.16-2,6.35-2.43,3.12-.58,4.68-1.93,4.51-5.23-.11-2-.55-4.47.38-6,3.18-5.22,1-10.94,2.09-16.32.49-2.39-.08-5-.06-7.49,0-.46.54-.89.71-1.38.36-1,.61-2,.94-3a37.46,37.46,0,0,0,1.37-3.89c.5-2.19.81-4.42,1.16-6.64,0-.19-.23-.63-.32-.62-1.87.17-1.21-1.31-1-1.91,1.62-4.63.51-9.85,3.1-14.26a2.25,2.25,0,0,0,.12-1c.07-2.59,0-5.11,1.56-7.52.77-1.24,2.44-2.95.5-4.77-.14-.14.36-.86.43-1.33a8.52,8.52,0,0,0,.11-1.95c-.27-2.93-.59-5.85-.85-8.78-.07-.74-.29-1.86.09-2.19,2.21-1.89,1.23-4.1,1-6.29a12.43,12.43,0,0,1,.26-2.62l-.9-.53c1.71-2.33,2-5.8.57-7.25,2.18-.24,2-1.67,1.73-3.17a6.37,6.37,0,0,1-.39-1.92c.43-3.64,1-7.26,1.44-10.9s.78-7.07,1-10.61a32.42,32.42,0,0,0-.25-4.5l-.7.06,2.46-1.69-1.9-.24c2.23-1.52,3.42-5.72,2.62-7.6,1.73-2.22,1-4.56,1.28-6.72.19-1.59-1.8-4.11,2-4.43-1.44-1.46-2.58-2.75-.68-4.32.22-.19.11-.82.08-1.24-.09-1-.65-2.26-.25-3,1.46-2.67,1.64-5.55,2-8.44a11,11,0,0,1,1.21-2.65c-1.21-1.31-.86-3,.68-4.64a2.16,2.16,0,0,0,.32-2,2.23,2.23,0,0,1,.59-3.43c1.86-1.32,1.05-2.94,1.07-4.52a21.7,21.7,0,0,1,.22-3.7c.2-1.09,1-2.12,1-3.19.08-2.52-.23-5-.18-7.56,0-1.56-.11-4,.74-4.49,2.9-1.74,1.18-4.65,2.27-6.82s.85-4.83,1.36-7.24c.41-2,1.62-3.85.6-6a2.15,2.15,0,0,1,.43-2c1.63-1.37,1-2.29-.11-2.92.52-2.86,1-5.47,1.46-8.09.37-2.19,1.18-4.48.84-6.56-.42-2.5.39-3.59,2-4.06.26-2.31.35-4.37.76-6.37.64-3.14,1.61-6.22,2.25-9.36.71-3.48,1.18-7,1.78-10.52,1-5.67,3.75-10.9,4.14-16.72.06-.9.52-1.79.55-2.69.11-3.87,1.66-7.46,2.14-11.29.41-3.25,2-6.34,2.92-9.55.75-2.63,1.08-5.38,1.94-8,.62-1.87,1.05-3.48.29-5.47-.59-1.54-.44-3.35-.62-5l.74-.82c-2.07-.31-4.16-1-6.19-.84-3,.23-5.85,1.13-8.79,1.64-6.56,1.15-13.15,2.13-19.68,3.4-2,.39-3.84,1.76-5.85,2.22-10.53,2.41-13.14,7.32-15.19,16.51-2.12,9.51-3.63,19.17-5.28,28.78-.87,5.09-1.58,10.21-2.16,15.35-.48,4.21-.29,8.52-1,12.68-1.27,7.06-2.88,14.07-4.64,21-1.3,5.15-3,10.23-4.7,15.25a10,10,0,0,1-2.9,4.43,26.62,26.62,0,0,1-13.59,5.27c-9.15,1.16-18.31,2.23-27.45,3.48-5.19.71-10.31,2-15.51,2.49-9.45.78-18.94,1.07-28.41,1.63-4.29.25-7.88-2.78-6.62-6.22.83-2.26,0-3.62-.82-5.29a3.73,3.73,0,0,1-.14-.83l1.31-.09C90.05,239,89.85,237.45,89.63,235.85Z"/>
        <path d="M240.44,401.75l-.87-.53c.52-1.87,1.79-3.89,1.39-5.51-.75-3.11,1.1-5.4,1.49-8.08a17.16,17.16,0,0,0,.08-2.78c0-.42-.39-1.12-.25-1.22,2.31-1.74.34-4.39,1.27-6.15,2-3.73,2.34-7.63,2.38-11.67,0-1.74.11-3.48.14-5.22,0-.35-.31-.85-.16-1,1.9-2.21,1.68-4.78,1.69-7.46,0-2,1.69-4.14,1.28-5.91-.63-2.71,1.16-4.07,1.84-6.06s.58-4.35.78-6.55c0-.42-.31-1.07-.13-1.26,2.35-2.39,1.2-5.62,2-8.39s.81-6.11,1.26-9.17a18.29,18.29,0,0,1,.93-2.66c.77-2.47,1.52-4.94,2.24-7.43.14-.48,0-1.05.17-1.51,1.36-3.81,2.83-7.8,2.53-11.7s1.29-7.52.92-11.39c-.15-1.62,1.36-3.33,1.57-5.06.64-5.1,1-10.23,1.5-15.33.34-3.28.92-6.54,1.15-9.83.1-1.45-.74-3-.57-4.39a52.23,52.23,0,0,1,1.56-5.89,7,7,0,0,0-.05-2.18c0-.21-.46-.41-.44-.58q.45-4.16,1-8.29c.14-1.13.35-2.26.55-3.39.6-3.31,1.25-6.61,1.77-9.93a6,6,0,0,0-.55-2.06l1.06-.57c0-1.61,0-2.85,0-4.08s1.56-2.37-.12-3.49a.72.72,0,0,1-.16-.44c2.8-1.39.24-2.23-.63-3.47l1.47-.3c0-3.42,0-6.8,0-10.19a2.09,2.09,0,0,1,.17-1c1.6-2.7,1.16-5.45.31-8.24,0-.17.23-.43.32-.66.46-1.22,1.45-2.54,1.26-3.64-.56-3.13,2-6,.6-9.11a1.69,1.69,0,0,1,.17-1.43c2.32-3.16,1.94-7,2.64-10.51.63-3.2-.41-6.58,1.35-9.71.52-.92-.21-2.51-.23-3.79,0-1.07-.21-2.45.35-3.15,1.59-2-.1-4.9,1.84-6.58-.87-6.7-.76-12.95,5.07-17.76a33.53,33.53,0,0,1,19.42-8c10.05-.7,20.12-1.29,30.16-2.07,3.3-.25,6.55-1.09,9.85-1.34,2.84-.22,5.71,0,8.56,0,6.39,0,12.77,0,19.21-.57l-1.81-.38.09.39c8.08-.84,16.14-1.9,24.24-2.48,11.73-.86,23.47-1.54,35.21-2,5.08-.18,8.57,3.24,8.94,8.33.41,5.84.39,11.7.57,17.56a2.25,2.25,0,0,0,0,.78c1.95,5.61-.33,11-.87,16.44a95.51,95.51,0,0,0-.55,13.83A12.64,12.64,0,0,1,429,167.89c-4.81,1.71-9.48.67-14.22.87-4.56.19-9.13.49-13.65,1.1-9.3,1.24-18.57,2.67-27.84,4.12-2.51.4-4.93,1.4-7.45,1.68-6.7.76-13.44,1.18-20.14,1.94-1.85.21-3.61,1.14-5.42,1.73a4.49,4.49,0,0,1-1.74.47c-4.42-.61-8,1.71-11.71,3.42a3.3,3.3,0,0,0-1.48,2.47c-.29,7.19.28,14.39-1.27,21.55-.59,2.73.25,5.66-.33,8.58a52.46,52.46,0,0,0-.54,9.06c-.2,8.89-.29,17.78-.54,26.67-.05,1.91-.91,3.82-.79,5.69a50.84,50.84,0,0,0,1.42,9.76c.47,1.84,2,3,4.38,2.73,7.81-.76,15.62-.84,23.33,1,3.17.75,6.31,1.51,8.44,4.37,1.95,2.64,2.55,5.35,1,8.37a6.57,6.57,0,0,0-.74,1.68c-1,5.58-2,11.16-2.93,16.76-1,5.84-1.82,11.69-2.69,17.54-.64,4.33-1.21,8.67-1.84,13a4.93,4.93,0,0,1-.62,1.65c-.29.53-1,.93-1.08,1.47-1.55,7-7.53,5.12-12,5.82-7.75,1.22-16-.21-23.24,3.38-3.15,1.58-5.42,5.28-7.58,8.37-2.9,4.14-2.47,9.18-3,14-.57,5.11-1.74,10.16-2.65,15.23-1.45,8-3.43,16-2.62,24.23.3,3.14,2.72,3.62,4.79,4.55,4.07,1.83,8.2,3.53,12.35,5.18,2,.81,4.17,1.35,6.24,2.08,3.7,1.32,7.33,2.85,11.08,4,4.85,1.52,9.74,2.93,14.69,4.1a121,121,0,0,1,25.41,9.2c3.83,1.89,8.14,2.79,12,4.58a50.9,50.9,0,0,1,8.14,5.11,3,3,0,0,1,.69,4.67,2.52,2.52,0,0,0-.45,1.22c-.28,7.75-3.23,14.85-5.57,22.06-.85,2.64-3.11,4.89-5,7.13-4.69,5.67-11.36,5.85-17.87,5.82s-13.35-.34-20-1c-8.8-.91-17.53-2.56-26.33-3.42s-17.27-1.84-25.73-4c-7.05-1.82-14.43-2.58-21.28-4.92-7.75-2.66-15-6.65-22.61-9.86a13,13,0,0,1-7.31-7.79,34.89,34.89,0,0,1-1.9-7.39c-.64-4.42-1.08-8.88-1.41-13.34-.36-4.93-.67-9.87-.7-14.81s.26-10.16.51-15.23A9.9,9.9,0,0,1,240.44,401.75Zm80.56-219c3-5.64,9-6.33,14.16-8.39a21.07,21.07,0,0,1,5.35-1.19c7.42-.87,14.88-1.42,22.27-2.49,7.12-1,14.11-3,21.24-3.78,14.47-1.52,28.87-4,43.5-3.57a2.52,2.52,0,0,0,2-1.14,25.84,25.84,0,0,0,1.34-5.8c.43-4.31.63-8.64.92-13,.28-4,.74-8,.78-12,0-3.29-.57-6.52-.23-9.89s-.31-7-.66-10.45c-.46-4.56-1.49-5.63-6-5.46-7.73.29-15.45.7-23.16,1.33-8,.67-16.06,1.74-24.1,2.49-7.07.65-14.16,1.27-21.26,1.61-13.85.67-27.73.88-41.56,1.82a76.28,76.28,0,0,0-16.92,3.47c-3.77,1.15-7.16,3.55-10.67,5.48-.4.23-.59,1-.66,1.63-.59,4.83-1.1,9.68-1.7,14.51-.79,6.4-1.37,12.84-2.56,19.17-.83,4.4-1.81,8.82-2.52,13.2-1.64,10.06-2.36,20.26-3.48,30.4s-2.32,20.47-3.48,30.7c-.59,5.21-1.23,10.42-1.75,15.64-.73,7.32-1,14.71-2.1,22-2.09,13.92-4.57,27.79-6.95,41.67-.86,5-1.88,9.95-2.86,14.91-.18.94-.6,1.83-.79,2.77q-1.92,9.87-3.8,19.74c-1,5.14-2.1,10.27-2.91,15.45-.78,5-1.06,10.13-1.89,15.15-.79,4.78-2.11,9.47-3,14.25-.69,3.79-1,7.65-1.55,11.48a29.07,29.07,0,0,0-.69,5.27c.34,6.06.91,12.11,1.35,18.17.43,5.89,1.25,11.8,1.05,17.68-.12,3.48.25,5.83,3,8.37a19,19,0,0,0,5.58,4c.64.27,1.36.38,2,.68,4.91,2.26,9.63,5.15,14.75,6.71,8.64,2.64,17.53,4.41,26.3,6.62a116.61,116.61,0,0,0,29.48,3.36c1.85,0,3.53,0,4.17-2.3a1.75,1.75,0,0,1,1.39-.89c.32,0,.92.75.94,1.19.1,2,1.38,1.46,2.46,1.24,3.82-.78,4.45-.36,4.82,3.47a23.6,23.6,0,0,0,4.25,1.06c8.14.49,16.28,1.14,24.43,1.17a12.86,12.86,0,0,0,12.87-9.11,106.49,106.49,0,0,0,3.1-12.43,45,45,0,0,0,1.17-7.79,4.36,4.36,0,0,0-1.68-3.19,26.78,26.78,0,0,0-5.25-2.36c-4.8-1.93-9.58-3.93-14.44-5.71-5.75-2.1-11.5-4.27-17.39-5.91-8.11-2.26-16.36-3.84-24.17-7.2-7.47-3.22-15.22-5.76-22.79-8.74a40.82,40.82,0,0,1-7.48-3.81,4.49,4.49,0,0,1-1.65-3.38c.11-3.63.66-7.25,1-10.88.11-1.39,0-2.79,0-4.19a19.68,19.68,0,0,1,0-4.27c1.17-5.29,2.82-10.49,3.71-15.82,1.07-6.36,1.24-12.87,2.38-19.21.54-3.07,2.22-6,3.74-8.81.76-1.41,2.38-2.32,3.49-3.57,3.6-4.05,8.16-6,13.49-6.57q10.59-1.14,21.15-2.69c.81-.12,1.48-1.43,2.14-2.25a5.9,5.9,0,0,0,.81-1.58,44,44,0,0,0,1.9-5.37c1-4.41,1.84-8.86,2.75-13.29a22.23,22.23,0,0,0,.75-3.53c.13-4.05-.14-8.09,1.06-12.08,1-3.48,1.59-7.11,2.47-10.64.93-3.71-.54-7-4.07-8.15a28.69,28.69,0,0,0-7.17-1.85c-4.87-.31-9.71-.52-14.6,1-2.52.79-5.84.28-8.39-.7a8.75,8.75,0,0,1-4.51-4.89c-.89-2.64-.7-5.68-.71-8.56,0-2.32.49-4.65.58-7,0-1.22-.56-2.5-.39-3.68.49-3.58,1.28-7.1,1.82-10.67a40.16,40.16,0,0,0,.54-6.47c-.06-4.15,1.8-8.73-2.33-12.11,0,0,0-.16.1-.38l2.66.15a69.62,69.62,0,0,1-.35-7.48c.14-2.43.89-4.81,1.13-7.24s-.32-5.35.47-7.7c1.16-3.49.45-6.76.29-10.15a15,15,0,0,1,.76-3.89C320.43,185.05,320.73,183.92,321,182.79Z"/>
        <path d="M665.65,459.12V482a4.57,4.57,0,0,1,0,1.05c-.62,2.6-.45,6.47-2.07,7.5-2.93,1.84-6.89,2.41-10.48,2.7a119.84,119.84,0,0,1-14.68,0c-2.67-.11-5.31-.88-8-1-9.54-.45-19.1-.67-28.64-1.14-5.69-.29-11.37-.93-17.06-1.32-4.9-.34-9.83-.47-14.73-.85-5.68-.44-11.35-1-17-1.58-10.66-1-21.31-2.1-32.06-1.47a264.32,264.32,0,0,1-38.17-.26c-8.82-.75-17.71-.58-26.57-.92a51,51,0,0,1-7.06-.89c-3.71-.65-7.37-1.65-11.1-2.12a7,7,0,0,1-5.89-5.32c-1.23-3.94-3.23-7.86-2.18-12.32a30,30,0,0,0,.87-7.36c-.13-7.63-.55-15.26-.7-22.89,0-2,.57-3.93.7-5.91a66.26,66.26,0,0,0,.31-8.67c-.68-10.7-1-21.36.34-32.06.86-7.14.83-14.39,1.36-21.58.48-6.46,1.16-12.9,1.77-19.34.95-10,2-20,2.85-30,.58-6.64,1.1-13.29,1.38-19.95.32-7.72.09-15.47.59-23.17.47-7.32,1.71-14.59,2.36-21.9.53-5.94.41-11.95,1.11-17.87a110.92,110.92,0,0,1,2.91-13.77c1.15-4.69,2.91-9.25,3.74-14,1.22-7,2.12-14.05,2.66-21.12s.31-14.17.67-21.24c.23-4.6.92-9.18,1.37-13.77.61-6.2,1.13-12.41,1.78-18.6.25-2.35.83-4.66,1.18-7,.78-5.36,1.37-10.76,2.33-16.09a37.72,37.72,0,0,1,2.39-6.64,2,2,0,0,1,.85-1q7.26-4.05,14.56-8a3.75,3.75,0,0,1,1.28-.16c4.41-.47,8.82-1,13.24-1.39a59.76,59.76,0,0,1,6.82-.31,85.24,85.24,0,0,1,8.6.57c3.39.42,3.49,3.6,4.32,5.89,3.44,9.45,5,19.07,3.28,29.2-1,6.12-.8,12.43-1.35,18.63-.79,8.81-1.8,17.59-2.68,26.39-.33,3.29-.59,6.58-.8,9.87-.34,5.16-.06,10.42-1.07,15.44-.94,4.66-.27,9.16-.4,13.73-.15,5.16-.73,10.31-1.11,15.46-.14,1.84-.24,3.68-.37,5.52-.64,8.92-1.25,17.84-1.93,26.76-.36,4.69-1.06,9.36-1.21,14.06-.18,5.74.13,11.49.08,17.24,0,3.21-.43,6.42-.56,9.63-.16,4.17-.12,8.34-.36,12.5-.19,3.18-.89,6.33-1,9.51-.14,3.9.14,7.82.15,11.73,0,2.88-.15,5.75-.13,8.62.05,6.09.64,12.22.1,18.25-.46,5.06.71,9.9.63,14.85-.05,2.56-.94,5.13-.82,7.66.17,3.59.92,7.16,1.42,10.73a2.17,2.17,0,0,1,.11.78c-1.22,5.19,2,9.52,2.94,14.3,1,5.51,5.84,8.31,11,10a72.16,72.16,0,0,0,9.06,2.35c3.86.74,8,2.14,11.63,1.49,3.4-.59,5.62,1.88,8.71,1.48a48.12,48.12,0,0,1,9.21.13c3.22.23,6.43.71,9.65,1.06a8.48,8.48,0,0,0,3.11.16c6.63-1.94,13.28-.44,19.91-.19,9.3.34,18.59,1,27.88,1.32,2.52.1,4.91-.29,7.58.27,4.46.94,9.24.33,13.87.63,4.78.3,9.56.83,14.32,1.44a5.47,5.47,0,0,1,3,1.57c2.29,2.29,4.94,4.46,6.44,7.23,1.29,2.4,1.21,5.54,1.75,8.36.4,2.14.83,4.27,1.22,6.4.48,2.58.94,5.16,1.41,7.74ZM496.39,97.39c-3.87.55-8,1.22-12.18,1.72a28.92,28.92,0,0,0-14.16,5.19,8.28,8.28,0,0,0-1.17,1.38c-.6.7-1.21,1.38-1.8,2.08-.36.43-.92.84-1,1.33-.74,3.89-1.54,7.76-2.05,11.68-1,7.65-1.84,15.32-2.71,23s-1.82,15.22-2.47,22.85c-.5,5.85-.52,11.74-.9,17.61-.33,5.11-.79,10.21-1.33,15.3a55.71,55.71,0,0,1-1.54,9.84c-1.37,4.68-3.78,9-4.15,14.05-.36,4.88-1.15,9.72-1.66,14.59-.34,3.29-.4,6.61-.84,9.89s-1.44,6.62-1.82,10c-.69,6-1.27,12-1.58,18s-.09,11.93-.36,17.89-1,11.63-1.27,17.45c-.26,4.9.2,9.88-.44,14.72-.87,6.54.28,13.4-2.78,19.64a2.93,2.93,0,0,0-.05,1.56c.55,4.16-.34,8.17-1.22,12.19a20.38,20.38,0,0,0-.48,3.38c-.21,5.48-.25,11-.55,16.44-.45,8-1.24,16-.9,24.05.21,4.83.24,9.69,0,14.52-.37,6.71-1.09,13.4-1.65,20.1a14.09,14.09,0,0,0,.08,1.83c.29,5.76.77,11.51.8,17.26,0,3.95-.64,7.9-.86,11.86a11.89,11.89,0,0,0,.59,3c1-.23,1.95-.43,2.91-.7s2.06-.67,3.09-1a24.43,24.43,0,0,0,.76,3.2c.34.93.79,2.37,1.47,2.55A61.18,61.18,0,0,0,455,477.94c7.53.57,15.09.67,22.64,1,4.3.19,8.6.57,12.9.68,8.25.23,16.5.43,24.75.44,7.12,0,14.26-.73,21.34-.3,10.33.63,20.59,2.25,30.91,3,12.09.9,24.21,1.37,36.33,2,8.68.45,17.36.79,26,1.31,4.8.29,9.58,1,14.39,1.21,3.58.15,7.18-.34,10.76-.27,3.08.06,3.75-.36,4-3.36.39-4.17,1-8.33,1.21-12.51.26-4.79.22-9.6.26-14.4a2.49,2.49,0,0,0-2.15-2.8,3.69,3.69,0,0,1-2.13-2.43,66.44,66.44,0,0,1-1.11-8.58c-.36-4.69-2.1-7.35-6.63-8.6a41.63,41.63,0,0,0-8.72-1.19c-7.86-.47-15.72-1-23.6-1.1a367.77,367.77,0,0,1-49.06-3.51c-5.69-.84-11.46-1.3-17.21-1.69-6.92-.46-13.87-.64-20.8-1-7.72-.37-15.4-.86-22-5.67-3.94-2.87-7-6.24-7.79-11.28-.68-4.58-1.73-9.15-2-13.76-.58-11.37-.87-22.76-1.12-34.15-.1-4.91.74-9.89.17-14.73-1.16-9.77-.22-19.49,0-29.22.25-11.22,1.2-22.42,1.65-33.63.22-5.67-.12-11.32.94-17,.79-4.2.81-8.54,1.11-12.82.36-5.17.67-10.34,1-15.5.33-5.52.73-11,.94-16.56.27-7.11.15-14.23.61-21.31.79-12.25,1.9-24.48,2.88-36.72.73-9,1.67-18,2.18-27,.57-10,2.29-20-.09-29.93-.75-3.13-.58-6.94-4.38-8.29C501.21,97.65,498.93,97.72,496.39,97.39Z"/>
        <path d="M744.8,109.34c-.68,11.28-1.58,21.7-1.85,32.13-.28,10.61,0,21.23.13,31.85.07,7,0,14.06.35,21.08.24,5.78.94,11.53,1.35,17.3.25,3.6.5,7.2.46,10.8-.13,11.11,1.84,22,3.37,32.94.73,5.27,1.21,10.58,2,15.85.62,4.21,1.5,8.37,2.31,12.54,1.53,7.85,3.35,15.6,3.46,23.7.08,5,1.52,10,2.13,15,.63,5.22,1,10.47,1.5,15.69,1.2,11.93,1.25,24,4.75,35.64.39,1.28,0,2.79.14,4.17.85,6.7,1.73,13.4,2.69,20.09.28,2,.93,3.86,1.32,5.81.43,2.16,1.41,3.25,3.87,3.35,3.93.18,7.85,1.31,11.76,1.21a91.45,91.45,0,0,0,13.53-1.76,57.32,57.32,0,0,1,14.34-.81c4.42.32,8.91-.48,13.37-.77,6.37-.43,12.74-.87,19.11-1.25,7.61-.46,15.23-.93,22.85-1.25,5.33-.23,10.69-.06,16-.36,6.22-.35,12.42-1,18.62-1.56,9.8-.85,19.58-1.83,29.38-2.51,6-.41,12.09-.48,18.14-.46,3.78,0,5.11,2,5.28,5.75.32,7.26.67,14.55,1.66,21.74,1.29,9.28,3.41,18.44,4.77,27.71a55.86,55.86,0,0,1,.08,12c-.25,3.41-3.1,5.16-5.91,6a135.74,135.74,0,0,1-13.91,2.76c-7.29,1.24-14.57,2.5-21.89,3.5-4.15.56-8.38.54-12.56.95-7.12.7-14.22,1.68-21.35,2.28-8.1.69-16.22,1.06-24.33,1.63-3.24.23-6.45.79-9.69,1-6.43.33-12.93.07-19.3.84-13.46,1.62-27,.46-40.44,1.29-11,.67-22,.38-33,.76-8.86.31-17.7,1.19-26.56,1.41-8.33.2-16.68.11-25-.36-3.22-.18-6.43-1.56-9.48-2.8a5.26,5.26,0,0,1-2.33-3.19,79.89,79.89,0,0,1-2-8.92c-.62-3.45-.95-6.95-1.61-10.39-.36-1.9-1.16-3.72-1.71-5.6a8.82,8.82,0,0,1-.25-2c0-.69.28-1.51,0-2.06-1.75-3.64-.24-7.35-.39-11s-.69-7.15-1.13-10.72c-.69-5.47-1.47-10.93-2.17-16.39q-1-8-2-15.92c-.75-6.35-1.57-12.7-2.15-19.08s-1-12.57-1.28-18.86c-.21-4.38,0-8.77-.2-13.15-.38-7.93-1-15.84-1.37-23.76-.39-8.24-.65-16.49-.91-24.73-.38-12-.71-24-1.08-36.05-.25-8.09-.3-16.19-.86-24.26-1.2-17.52-2.73-35-4-52.54-.49-6.81-.57-13.66-.89-20.49-.15-3.07-.51-6.12-.63-9.19-.29-7.08-.34-14.18-.79-21.26-.48-7.54-1.36-15-1.94-22.58a30.48,30.48,0,0,1,.86-8.87,26.69,26.69,0,0,1,5.37-10.9c3.54-4.64,8.15-6.77,14.12-6.7,6.37.08,12.75-.54,19.12-.88q7.08-.37,14.15-.82c3.23-.2,6.46-.39,9.69-.67,5.29-.46,8.85,2,9.83,7.21C742.92,96.93,743.86,103.52,744.8,109.34ZM699.62,458.26c-2,.3-1.46,1.92-1.14,3.95.7,4.43.79,9,1.43,13.42a4.4,4.4,0,0,0,2.24,3c2.75,1.11,5.68,2.38,8.56,2.46,9.65.3,19.31.28,29,.05,8.49-.2,17-1,25.46-1.23,6.48-.2,13,0,19.47-.07,2.17,0,4.34-.58,6.51-.64,4.92-.15,9.85-.07,14.77-.22,9-.26,17.91-.5,26.85-1,11.2-.59,22.39-1.38,33.59-2.12,3.41-.23,6.81-.59,10.22-.88,6.37-.55,12.76-1,19.13-1.67,2.74-.27,5.43-1.1,8.17-1.28,5.22-.35,10.48-.18,15.67-.69,3.35-.33,6.58-1.65,9.91-2.23,4.83-.85,9.7-1.41,14.55-2.15,1.64-.25,3.25-1,4.88-1,5.09-.11,6.37-1.42,6.81-6.17.81-8.53-1.1-16.73-2.52-25-.91-5.34-1.71-10.72-2.33-16.1-.44-3.92-.54-7.88-.72-11.82-.09-2.14-1.14-3.27-3.24-3.36a69.75,69.75,0,0,0-8-.21c-12,.87-24,2-36,2.82q-18.75,1.35-37.54,2.37c-8.33.45-16.67.58-25,.87-2.8.1-5.6.14-8.39.39-5.47.49-10.92,1.38-16.39,1.59-7.76.3-15.52,0-23.2,1.74-3.17.72-6.6.47-9.9.42-4.43-.08-8.86-.45-13.3-.58-2.4-.07-5-1.51-5.33-3.47-1-5.22-2-10.45-2.81-15.69-1.44-8.91-2.91-17.81-4.13-26.75-.89-6.52-1.44-13.09-2-19.64-.53-6-.7-12.08-1.4-18.08-.72-6.16-2.33-12.25-2.76-18.42-.45-6.64-.69-13.19-2.14-19.79-2-8.81-2.69-17.88-4-26.83-1-6.57-2.37-13.1-3.09-19.71-1-8.8-1.46-17.65-2.12-26.49-.53-7-1.16-14-1.47-21-.33-7.55-.2-15.12-.54-22.67-.66-14.85-.32-29.67.47-44.51.65-12.13,2-24.37-1.87-36.32-.86-2.63-2-3.93-4.76-3.9s-5.44.19-8.15.38c-7.52.53-15,1.11-22.55,1.66-5.29.4-10.59.75-15.88,1.19a6.24,6.24,0,0,0-5.4,3.62c-2.28,4.68-5.88,8.89-4.6,14.79a65.78,65.78,0,0,1,1.18,10.11c.79,13.5,1.54,27,2.16,40.5.33,6.92.18,13.87.57,20.8.53,9.43,1.35,18.85,2.09,28.28.53,6.71,1.32,13.4,1.65,20.12.45,9.21.51,18.43.87,27.65.14,3.41.77,6.8.94,10.22.24,4.81.3,9.64.36,14.46,0,4-.13,8,0,12,.31,9.11,1.15,18.23,1,27.33-.12,11.54,1.67,22.94,1.62,34.49,0,9.34,1.28,18.7,2.19,28,1,10,2.09,19.91,3.29,29.85.92,7.6,2.1,15.17,3.1,22.77.7,5.29,1.19,10.61,2,15.88C697.8,455.22,698.81,456.53,699.62,458.26Z"/>
        <g>
            <path d="M1280.46,255.57c.89,4.64,1.72,9.29,2.68,13.92,1.07,5.2,1.6,10.21,0,15.58-1.19,3.89-.61,8.31-.83,12.49-.17,3.44-.14,6.9-.6,10.29s-1.39,6.65-2.12,10c-.13.6-.56,1.56-.36,1.72,2.43,1.89.23,3.33-.37,4.93a8.28,8.28,0,0,0-.63,2.26,42.35,42.35,0,0,1-1.16,8.15c-.55,2.18-.68,4.81-1.34,7.16-1.5,5.3-2.94,10.62-4.79,15.8-1.13,3.16-3.69,5.94-4.3,9.14-.72,3.77-2.53,6.85-4.21,10.06-2.27,4.36-5.26,8.39-7.15,12.89-1.26,3-3.19,5.36-4.91,8-4.27,6.44-9.34,12.13-15.95,16.16-7.11,4.32-14.46,8.25-21.7,12.35-1.14.65-2.34,1.23-3.41,2a19.71,19.71,0,0,1-7.78,3.5c-5.47,1.09-10.78,2.91-16.22,4.15-7.35,1.68-14.71,3.45-22.16,4.54-9.54,1.4-19.14,2.37-28.75,3.13a104.44,104.44,0,0,1-15.52-.15c-6.37-.45-12.74-1.15-19-2.15-5.07-.8-10.07-2.14-15.07-3.35-6.7-1.61-13.58-2.79-20-5.14a127.34,127.34,0,0,1-21.86-10.07c-6-3.62-11.39-8.5-16.64-13.28-4.25-3.86-7.61-8.69-11.85-12.54-7-6.33-11.78-14.16-16.48-22.09-3.68-6.22-7.23-12.55-10.34-19.07a146,146,0,0,1-7.48-18.52c-2.76-8.7-5.21-17.54-7.13-26.45a172.1,172.1,0,0,1-2.59-20c-.79-8.39-1.47-16.79-1.86-25.2a127.89,127.89,0,0,1,.07-19.18c1.18-11.14,3-22.21,4.74-33.28.85-5.43,2-10.82,3.21-16.18.75-3.33,1.85-6.58,2.85-9.85,3.19-10.39,6.17-20.85,9.7-31.12a80.25,80.25,0,0,1,6.79-14.18c6.29-10.76,12.47-21.62,19.53-31.87a65.46,65.46,0,0,1,13.87-14,341.33,341.33,0,0,1,29.68-20.94c11.22-6.91,23.61-11.41,36.28-15.17,13.35-4,27-5.43,40.79-6.28a30.7,30.7,0,0,1,21.81,6.65c2.8,2.27,6.47,3.46,9.64,5.32A92.49,92.49,0,0,1,1175.7,71c2.18,1.62,4.09,3.59,6.19,5.31,4,3.3,8.21,6.45,12.2,9.82,6,5,12,10,17.62,15.37a76.12,76.12,0,0,1,9.57,11.52c6.07,8.73,11.83,17.66,19,25.62a72,72,0,0,1,10.52,14.61c3.57,6.85,6,14.26,8.92,21.47,1.81,4.55,3.66,9.09,5.17,13.74,2.9,8.92,5.79,17.86,8.26,26.9,1.73,6.29,2.79,12.77,4.09,19.17q1.77,8.63,3.39,17.28a34.31,34.31,0,0,1,.32,3.66Zm-1.17,19.69c-.24-1.28-.65-3.42-1-5.57-.73-4.06-1.52-8.1-2.14-12.17-.82-5.35-1.25-10.76-2.31-16-1.63-8.07-3.53-16.09-5.57-24.07-1.8-7-4-14-6-21-.87-3.1-1.39-6.32-2.53-9.31-3.25-8.49-6.53-17-10.2-25.29a77.77,77.77,0,0,0-7.78-14.15c-4.26-5.88-9.55-11-13.91-16.84-4.65-6.23-8.68-12.92-13.1-19.32-5.21-7.56-12.84-12.7-19.5-18.78-5.62-5.15-11.8-9.68-17.85-14.34-3.41-2.63-7-5.08-10.61-7.39-3.06-2-6.32-3.59-9.46-5.42-.32-.19-.41-.76-.65-1.13-.5-.78-.88-2-1.56-2.23-4.18-1.28-8.39-2.45-12.65-3.42-8-1.82-16,.32-23.81,1.36-9.7,1.28-19.25,4-28.7,6.65a117.34,117.34,0,0,0-30.43,13.47c-5.94,3.72-11.56,8-17.29,12-3.19,2.27-6.43,4.51-9.45,7-11.24,9.25-18.3,21.79-26,33.78a115.35,115.35,0,0,0-7.53,14.73c-3.11,6.86-6.38,13.69-8.7,20.82-3.11,9.57-5.62,19.35-8,29.15-2.11,8.86-3.76,17.85-5.37,26.82a151.76,151.76,0,0,0-2.12,16.56c-.49,7.25-.67,14.53-.64,21.8,0,5.34.57,10.68,1,16,.34,4.45.73,8.91,1.23,13.35.34,2.95.93,5.88,1.36,8.82.6,4.05.84,8.19,1.81,12.15,1.76,7.21,3.88,14.33,6,21.45a91.14,91.14,0,0,0,3.64,10.34c2,4.57,4.23,9,6.56,13.45,3.13,5.93,6.08,12,9.81,17.57,4.12,6.11,8.11,12.34,14,17.21s9.32,11.83,15.24,16.69c4.4,3.62,8.47,7.61,14,9.67,2.78,1.05,5.41,2.5,8.2,3.53,7,2.59,13.91,5.28,21,7.46,4.17,1.28,8.6,1.68,12.92,2.45,8.34,1.49,16.65,3.36,25,4.33a93.34,93.34,0,0,0,18.08.08c10.5-.85,21-1.88,31.4-3.54,9.51-1.52,18.89-3.86,28.28-6.07a50.7,50.7,0,0,0,9.92-3.45c5.46-2.58,10.78-5.47,16.1-8.33,8.53-4.58,16.34-9.9,22.19-18a198.94,198.94,0,0,0,11.25-16.65,175.17,175.17,0,0,0,14.76-33.92,159.74,159.74,0,0,0,5.27-22.52c1.73-9.94,3-20,4.21-30C1278.43,288.79,1278.72,282.47,1279.29,275.26Z"/>
            <path d="M1052,276.92c.39-7.42.91-13.63,1-19.84s-.31-12.28-.43-18.42a76.86,76.86,0,0,1,3.39-23.54c2.48-8.34,5-16.69,8-24.86,1.53-4.2,4.07-8,6.23-12,1.12-2.06,2.43-4,3.59-6.05,3.28-5.76,9-8.43,14.45-11.45a62.27,62.27,0,0,1,28.42-7.78c3-.11,6-1.16,9-1.11,4.34.06,8.68.71,13,1.13a14.66,14.66,0,0,1,3.59.47,43.42,43.42,0,0,1,6.26,2.82c6.24,3.53,12.49,7.05,18.58,10.84,8.61,5.36,14.19,13.33,18.55,22.3,1.64,3.37,3.66,6.56,5.3,9.93a61,61,0,0,1,2.3,6.28c1.22,3.37,2.47,6.73,3.66,10.11,1.53,4.37,3.28,8.68,4.44,13.14.91,3.48,1.09,7.16,1.55,10.76.68,5.29,1.6,10.57,1.86,15.88.11,2.48-1.32,5-1.67,7.54-.84,6.18-1.41,12.39-2.18,18.58-.26,2.05-1.62,4.37-1,6,1,2.68-.75,4.48-1,6.67s-1.51,4-2.17,6.06a8.42,8.42,0,0,0-.37,3.12c.13,2-.26,3.55-2.27,4.58a3.79,3.79,0,0,0-1.5,2.36c-.86,3.73-3.06,6.17-6,8.74-2.39,2.12-4.61,4.6-7.18,6.61-4,3.14-7.93,6.43-12.15,9.27-3.65,2.45-7.66,4.37-11.53,6.49-3.67,2-7.41,3.89-11,6-4.3,2.45-9.14,2.27-13.79,3.09a43.5,43.5,0,0,1-16.59-.73c-6.75-1.4-13.52-2.69-20.26-4.17a23.14,23.14,0,0,1-6.84-2.32c-2-1.19-3.49-3.22-5.22-4.86-2.66-2.52-5.4-5-8-7.55-4.46-4.43-9-8.82-13.2-13.49-1.26-1.39-1.76-3.57-2.29-5.48-.94-3.44-1.64-6.95-2.46-10.42s-1.87-6.75-2.39-10.19C1052.86,286.23,1052.46,281,1052,276.92Zm75.13-116.54c-.54-.65-.82-1.24-1.28-1.49-1.38-.76-2.86-2-4.23-1.95-10.88.61-21.36,3-31,8.31-4.59,2.55-9.5,5-12.36,9.6a135.94,135.94,0,0,0-7.43,14.4c-4.42,9.54-7.08,19.66-9.72,29.81a87.73,87.73,0,0,0-2.64,22.72c0,8.49.22,17,.32,25.45,0,2.34,0,4.67,0,7,.13,5.17,0,10.39.57,15.52a122,122,0,0,0,2.9,13.79c1.33,5.69,3.15,11.15,7.48,15.38,4.8,4.69,9.56,9.4,14.38,14.06,3.68,3.56,7.7,6.5,13,7.3,2.68.4,5.33,1.1,8,1.75,6.17,1.52,12.2,3.84,18.74,3.17,1.42-.14,2.85-.39,4.27-.4,7.38-.06,14.46-1.16,20.86-5.22,5.32-3.38,10.64-6.79,16.17-9.79,6.66-3.61,11.83-9,17.64-13.66,5-4,7.21-9.74,9.65-15.15,3.61-8,4.14-16.82,5.26-25.42.93-7.13,1.57-14.3,2.28-21.46a16.77,16.77,0,0,0-.11-3.68c-.59-4.79-1.07-9.61-1.92-14.36-.58-3.22-1.69-6.35-2.58-9.52-.14-.5-.39-1-.56-1.47-2-5.8-3.56-11.75-5.95-17.37a152.16,152.16,0,0,0-13.06-25.13c-4.66-7-11-11.68-17.92-15.79-3.58-2.13-7.63-3.45-11.49-5.11-5.72-2.46-11.49-4.75-18-3.7C1128.08,158.63,1127.69,159.37,1127.15,160.38Z"/>
        </g>
        <g>
            <path d="M1338.64,274c-4.81-5.42-7.75-11.63-10.74-17.8q-3-6.27-5.77-12.67c-2.12-5-4-10-6.14-15s-4.45-9.5-6.59-14.3c-2.78-6.23-5.64-12.43-8.12-18.77-2.66-6.8-5.06-13.72-7.33-20.66-1.63-5-2.85-10.11-4.3-15.16-.43-1.52-1-3-1.48-4.49-1.73-4.85-3.29-9.77-5.28-14.51-2.47-5.88-5.53-11.52-7.92-17.43-2.79-6.86-5.08-13.93-7.69-20.87-1.08-2.85-2.69-5.52-3.63-8.41q-4-12.24-7.65-24.59c-2.26-7.62-4.75-15.22-6.36-23-1.41-6.85,1.11-12.88,5.24-18.62,3.73-5.18,9.25-5.42,14.32-6.59,6.39-1.49,13.06-1.7,19.55-2.82,4.82-.82,9.53-2.26,14.31-3.35,3.67-.83,7.41-1.37,11-2.33s7-2.41,10.51-3.37c2.61-.7,5.38-.8,8-1.46,3.22-.81,6.36-2,9.55-2.88,1.76-.51,3.58-.83,5.37-1.24,4.52-1,9.09-1.9,13.55-3.14,5-1.4,9.59.11,14,2.07,1.31.58,1.88,2.87,2.76,4.4.6,1.05,1.15,2.13,1.85,3.43-.22.31-1,.92-.9,1.33.48,2.1,1.16,4.15,1.81,6.21.22.71,1,1.57.75,2-1.17,2.62.38,4.48,1.5,6.53a2.68,2.68,0,0,1,.27,1.85c-1.27,4.15-.07,8,1.12,11.94.66,2.17,2.13,4.15.57,6.81-.72,1.22,0,3.4.33,5.11.26,1.44,1.79,2.78.16,4.3-.11.1,0,.55.1.72,1.52,2,2,4,.58,6.28,0,.07-.07.22,0,.26,2.69,2.86-.54,6.84,1.83,9.78.26.33.13,1,.12,1.5s-.34,1.34-.11,1.81c2.26,4.77-1.16,9.68.36,14.46.15.47-.4,1.12-.43,1.69-.11,1.68-1.92,3.32-.12,5.06a.78.78,0,0,1,.07.74c-2.45,3.54.17,6.77.61,10.13,0,.26.15.59,0,.77-1.2,2.08-.8,4.06-.43,6.37.65,4.06.34,8.28.37,12.43a25.88,25.88,0,0,1-.36,2.75,8.56,8.56,0,0,0-.06,2.2c.21,1.26,1,2.58.8,3.7-.53,2.41-1.29,4.45-.23,7.17,1,2.46.23,5.55.41,8.35.14,2.18.84,4.35.78,6.51-.17,5.28-1,10.57-.87,15.84s1.18,10.44,1.67,15.67c.28,3,0,6.13.41,9.13.77,5,2,9.84,3,14.76.1.5,0,1,.06,1.53q.3,2.87.63,5.73c.3,2.49.66,5,.9,7.48.47,4.92,1.45,9.87,1.2,14.76-.58,11.29-3.15,15.91-12.41,21.44-7.41,4.43-15.47,7.15-24.27,6.82-5.61-.21-11.23-.48-16.81-1.11C1340.71,271,1339.31,271.42,1338.64,274ZM1364.31,6.7c-7.46,1.32-16.12,2.63-24.68,4.43-7,1.45-13.78,3.59-20.7,5.24-12,2.84-24,5.56-35.94,8.29-7.48,1.71-15.29,2.2-21.72,7.34a14.11,14.11,0,0,0-4.25,5.39c-2.37,5.16-.58,10.2.4,15.17.8,4,2.43,7.93,3.73,11.87.69,2.09,1.65,4.1,2.19,6.23.78,3.1,1.08,6.33,2,9.39.83,2.84,2.25,5.49,3.25,8.29,2.49,7,4.42,14.22,7.49,20.94,2.39,5.25,3.41,10.91,6.47,16,3.72,6.22,6,13.31,8.7,20.12,1.81,4.59,3.35,9.29,4.77,14,1.71,5.69,3,11.51,4.79,17.19,1.3,4.14,3.06,8.15,4.64,12.2,1.27,3.22,2.54,6.43,3.88,9.62,1.46,3.48,3,6.92,4.5,10.36s3,6.88,4.63,10.26c1.29,2.71,3,5.23,4.08,8s.43,6.41,3.51,8.48c.21.14.21.64.28,1,.51,2.55,1,5.12,1.56,7.66.14.59.65,1.5,1.06,1.54,2.07.21,2.55,1.34,2.47,3.2a7.09,7.09,0,0,0,.81,2.47c1,2.66,1.88,5.38,3.06,8s2.48,5.06,5.83,5.42a27.79,27.79,0,0,1,6.71,1.22c5.59,2.09,11.37.93,17,.76a37.33,37.33,0,0,0,18.35-5.9c6.65-4.09,9.93-10,9.46-17.56-.48-7.69-1.77-15.33-2.85-23-.52-3.61-1.53-7.16-2-10.78-.71-5.31-1.18-10.65-1.68-16-.65-7.07-1.38-14.15-1.81-21.23-.35-5.69-.14-11.42-.45-17.11-.52-9.81-1.49-19.6-1.81-29.42-.27-8.5-.3-17.06.26-25.54,1-14.36-.23-28.6-1.83-42.8-1.08-9.58-2.75-19.1-4.29-28.62-.91-5.63-1.9-11.25-3.17-16.81C1372,7.88,1369.74,6.49,1364.31,6.7Z"/>
            <path d="M1414.37,335.79a18.13,18.13,0,0,0,.38,3.13c2.35,7.3,5.07,14.49,5.72,22.23.29,3.45.7,6.89,1.11,10.33s-.92,5.86-4.21,6.9c-8.85,2.81-17.58,6.23-26.63,8.11-10.81,2.24-21.87,3.32-32.87,4.44-2.67.27-5.63-1-8.27-2.07-3.91-1.58-4.58-5.59-5.61-9-1.54-5.19-2.74-10.49-4-15.77a162.28,162.28,0,0,1-4.27-35.18c-.08-5.63,5.35-11.78,11.45-13.15,3.17-.71,6.29-1.67,9.47-2.27,2.92-.55,5.91-.75,8.85-1.15.68-.09,1.65-.17,1.94-.61,2.91-4.43,7.66-4.69,12.13-5.18a85.67,85.67,0,0,1,13.4-.37,22.34,22.34,0,0,1,7.87,1.92c1.38.61,3.07,2.49,3.07,3.8,0,2.78,2.21,4,3.1,6.08,1.16,2.7,2.58,5.26,3,8.28.17,1.22,1.44,2.26,2.13,3.43.26.43.56,1.08.41,1.45C1411.56,333.56,1412.87,334.93,1414.37,335.79Zm-37.87-21.17c-.18.42-.37.84-.56,1.25-1.69.17-3.38.37-5.08.5a22.67,22.67,0,0,0-2.61,0c-5.93,1.14-11.81,2.88-17.79,3.37-6.13.49-7.94,4.93-10.3,9.11-.35.62,0,1.67.11,2.49.58,3.3,1.42,6.56,1.78,9.87.69,6.31,1,12.64,2.91,18.79,1.75,5.63,3,11.43,4.76,17.07,1,3.15,1.75,6.71,6.46,6.56,4.16-.13,8.39.64,12.51.22a140.53,140.53,0,0,0,19.15-3.14c6.7-1.64,13.18-4.15,19.79-6.21,1.91-.59,4-.72,5.85-1.45a3.23,3.23,0,0,0,1.73-2.44,111.14,111.14,0,0,0-5.49-28.64c-2.46-7.17-3.55-14.83-7.9-21.31a9.54,9.54,0,0,1-1.19-2.89c-1.21-4.67-3-6.4-7.87-6.46-5-.06-10,.25-15,.54A17.87,17.87,0,0,0,1374,313Z"/>
        </g>
    </g>
    <g>
        <path class="cls-1"
              aria-label="H"
              d="M89.63,235.85c.22,1.6.42,3.13.63,4.71l-1.31.09a3.73,3.73,0,0,0,.14.83c.86,1.67,1.65,3,.82,5.29-1.26,3.44,2.33,6.47,6.62,6.22,9.47-.56,19-.85,28.41-1.63,5.2-.44,10.32-1.78,15.51-2.49,9.14-1.25,18.3-2.32,27.45-3.48a26.62,26.62,0,0,0,13.59-5.27,10,10,0,0,0,2.9-4.43c1.73-5,3.4-10.1,4.7-15.25,1.76-6.95,3.37-14,4.64-21,.74-4.16.55-8.47,1-12.68.58-5.14,1.29-10.26,2.16-15.35,1.65-9.61,3.16-19.27,5.28-28.78,2.05-9.19,4.66-14.1,15.19-16.51,2-.46,3.83-1.83,5.85-2.22,6.53-1.27,13.12-2.25,19.68-3.4,2.94-.51,5.83-1.41,8.79-1.64,2-.15,4.12.53,6.19.84l-.74.82c.18,1.7,0,3.51.62,5,.76,2,.33,3.6-.29,5.47-.86,2.59-1.19,5.34-1.94,8-.91,3.21-2.51,6.3-2.92,9.55-.48,3.83-2,7.42-2.14,11.29,0,.9-.49,1.79-.55,2.69-.39,5.82-3.17,11-4.14,16.72-.6,3.51-1.07,7-1.78,10.52-.64,3.14-1.61,6.22-2.25,9.36-.41,2-.5,4.06-.76,6.37-1.66.47-2.47,1.56-2,4.06.34,2.08-.47,4.37-.84,6.56-.43,2.62-.94,5.23-1.46,8.09,1.16.63,1.74,1.55.11,2.92a2.15,2.15,0,0,0-.43,2c1,2.19-.19,4-.6,6-.51,2.41-.31,5.13-1.36,7.24s.63,5.08-2.27,6.82c-.85.51-.72,2.93-.74,4.49-.05,2.52.26,5,.18,7.56,0,1.07-.81,2.1-1,3.19a21.7,21.7,0,0,0-.22,3.7c0,1.58.79,3.2-1.07,4.52a2.23,2.23,0,0,0-.59,3.43,2.16,2.16,0,0,1-.32,2c-1.54,1.68-1.89,3.33-.68,4.64a11,11,0,0,0-1.21,2.65c-.36,2.89-.54,5.77-2,8.44-.4.72.16,2,.25,3,0,.42.14,1.05-.08,1.24-1.9,1.57-.76,2.86.68,4.32-3.81.32-1.82,2.84-2,4.43-.25,2.16.45,4.5-1.28,6.72.8,1.88-.39,6.08-2.62,7.6l1.9.24-2.46,1.69.7-.06a32.42,32.42,0,0,1,.25,4.5c-.25,3.54-.61,7.08-1,10.61s-1,7.26-1.44,10.9a6.37,6.37,0,0,0,.39,1.92c.29,1.5.45,2.93-1.73,3.17,1.43,1.45,1.14,4.92-.57,7.25l.9.53a12.43,12.43,0,0,0-.26,2.62c.27,2.19,1.25,4.4-1,6.29-.38.33-.16,1.45-.09,2.19.26,2.93.58,5.85.85,8.78a8.52,8.52,0,0,1-.11,1.95c-.07.47-.57,1.19-.43,1.33,1.94,1.82.27,3.53-.5,4.77-1.52,2.41-1.49,4.93-1.56,7.52a2.25,2.25,0,0,1-.12,1c-2.59,4.41-1.48,9.63-3.1,14.26-.2.6-.86,2.08,1,1.91.09,0,.35.43.32.62-.35,2.22-.66,4.45-1.16,6.64a37.46,37.46,0,0,1-1.37,3.89c-.33,1-.58,2-.94,3-.17.49-.71.92-.71,1.38,0,2.5.55,5.1.06,7.49-1.09,5.38,1.09,11.1-2.09,16.32-.93,1.52-.49,4-.38,6,.17,3.3-1.39,4.65-4.51,5.23-2.19.41-4.17,1.86-6.35,2.43a14.66,14.66,0,0,1-6.2.61c-6.77-1.31-13.47-.68-20.24-.2a19.54,19.54,0,0,1-7.9-1.18c-1.23-.45-2.39-2.42-2.67-3.88a35.1,35.1,0,0,1-.64-8.91c.23-3.5,1.11-7,1.64-10.45.55-3.65,1-7.32,1.56-11s1.53-7.33,2-11c1.29-10.05,2.4-20.12,3.6-30.18.59-4.86,1.11-9.74,1.9-14.58q2-12,4.22-23.89c1.47-7.71,3-15.41,4.77-23.07.86-3.8,2.33-7.47,3.23-11.26,1-4.09,1.67-8.25,2.33-12.4.44-2.76.53-5.57.92-8.34.44-3.1-3-8.74-6.1-9a143.68,143.68,0,0,0-17.84-.52c-12.45.62-24.91,1.46-37.32,2.66-6.53.64-13,2.25-19.46,3.38-1.29.23-2.63.23-3.93.39-2.86.34-5.68.62-8,2.71-.9.79-2.38.94-3.59,1.37-3.23,1.15-3.74,4.37-5.12,6.87a55.07,55.07,0,0,0-2.58,5.95,2.28,2.28,0,0,0-.21,1.53c1.22,2.73-1.46,4.56-1.54,7a16.32,16.32,0,0,1-.3,2.29c-.22,1.18-.15,2.64-.82,3.48-2,2.5-.13,5.45-1.28,8-.62,1.38-.51,3.07-1.07,4.48-1.09,2.72,1,5.86-1.34,8.41-.72.8.54,1.77.13,3.17A136.54,136.54,0,0,0,69,365.36c-.34,2.05-.2,4.18-.48,6.25-.24,1.78-.82,3.51-1.15,5.28s-.41,3.48-.78,5.19c-.42,2-1,3.95-1.57,5.91-.12.39-.75.85-.65,1,1.26,2.47,0,4.84-.07,7.28a41.22,41.22,0,0,1-1.85,11.46c-1.11,3.29-1,7-1.48,10.48-.31,2.13-.81,4.24-1.2,6.36-.84,4.68-1.58,9.38-2.55,14a11.94,11.94,0,0,1-1.89,4.56,11,11,0,0,0-2.06,8.57c.32,2.18-.68,3.14-2.73,3.18a11,11,0,0,1-2.87-.21c-6.12-1.63-12.25-3.22-18.32-5-3.34-1-6.59-2.36-9.84-3.67-5.64-2.27-6-7.8-7.43-12.56-2.41-8.2-.43-16.25,1-24.37,1.12-6.29,1.37-12.72,2.2-19.07,1-7.9,2-15.82,3.51-23.64C20,360.13,22,354,23.55,347.8A201.49,201.49,0,0,0,28.11,326c1.4-9.8,3.45-19.5,5.29-29.24.51-2.73,1.36-5.4,1.88-8.13s.9-5.75,1.34-8.62c.6-4,1.15-7.95,1.83-11.9,1-5.94,2.33-11.84,3.21-17.81,1-7,1.68-14.1,2.57-21.14.8-6.26,1.59-12.53,2.59-18.77,1.1-6.83,2.55-13.6,3.65-20.42.7-4.34.88-8.75,1.55-13.09.89-5.81,2.06-11.57,3.07-17.36.65-3.71,1.45-7.42,1.77-11.16s2.39-5.51,5.22-7.21c7.78-4.7,16.44-6.59,25.24-7.77,6.18-.82,12.43-1.09,18.66-1.41,4.23-.21,5.61,1.64,4.93,5.75-.42,2.55-.55,5.15-.83,7.83H109c-.55,4.68-1.08,9.22-1.64,14l-1.5.43c-.8,3.42-1.61,6.59-2.27,9.79a42.74,42.74,0,0,0-1.24,7.89c0,1.26.24,2.06-.91,3-.44.37.19,2,.4,3.57-3.09,2.09-2.41,6-3.16,9.46-.27,1.27-1.06,2.42-1.44,3.68s-.6,2.73-.87,4.1a29.52,29.52,0,0,0-.51,3c-.16,1.69-.11,3.41-.38,5.08-.17,1-.94,2-1.14,3s-1.71,2-.78,3.61c.33.57-.09,1.68-.34,2.49-1.15,3.73-2.38,7.43-3.53,11.17a6.41,6.41,0,0,0,0,1.81C89.63,233,89.63,234.35,89.63,235.85Z"/>
        <path class="cls-1"
              aria-label="E"
              d="M321,182.79c-.27,1.13-.57,2.26-.82,3.39a15,15,0,0,0-.76,3.89c.16,3.39.87,6.66-.29,10.15-.79,2.35-.21,5.13-.47,7.7s-1,4.81-1.13,7.24a69.62,69.62,0,0,0,.35,7.48l-2.66-.15c-.06.22-.13.35-.1.38,4.13,3.38,2.27,8,2.33,12.11a40.16,40.16,0,0,1-.54,6.47c-.54,3.57-1.33,7.09-1.82,10.67-.17,1.18.44,2.46.39,3.68-.09,2.33-.58,4.66-.58,7,0,2.88-.18,5.92.71,8.56a8.75,8.75,0,0,0,4.51,4.89c2.55,1,5.87,1.49,8.39.7,4.89-1.54,9.73-1.33,14.6-1a28.69,28.69,0,0,1,7.17,1.85c3.53,1.2,5,4.44,4.07,8.15-.88,3.53-1.43,7.16-2.47,10.64-1.2,4-.93,8-1.06,12.08a22.23,22.23,0,0,1-.75,3.53c-.91,4.43-1.74,8.88-2.75,13.29a44,44,0,0,1-1.9,5.37,5.9,5.9,0,0,1-.81,1.58c-.66.82-1.33,2.13-2.14,2.25q-10.55,1.55-21.15,2.69c-5.33.58-9.89,2.52-13.49,6.57-1.11,1.25-2.73,2.16-3.49,3.57-1.52,2.8-3.2,5.74-3.74,8.81-1.14,6.34-1.31,12.85-2.38,19.21-.89,5.33-2.54,10.53-3.71,15.82a19.68,19.68,0,0,0,0,4.27c0,1.4.13,2.8,0,4.19-.3,3.63-.85,7.25-1,10.88a4.49,4.49,0,0,0,1.65,3.38,40.82,40.82,0,0,0,7.48,3.81c7.57,3,15.32,5.52,22.79,8.74,7.81,3.36,16.06,4.94,24.17,7.2,5.89,1.64,11.64,3.81,17.39,5.91,4.86,1.78,9.64,3.78,14.44,5.71a26.78,26.78,0,0,1,5.25,2.36,4.36,4.36,0,0,1,1.68,3.19,45,45,0,0,1-1.17,7.79,106.49,106.49,0,0,1-3.1,12.43,12.86,12.86,0,0,1-12.87,9.11c-8.15,0-16.29-.68-24.43-1.17a23.6,23.6,0,0,1-4.25-1.06c-.37-3.83-1-4.25-4.82-3.47-1.08.22-2.36.73-2.46-1.24,0-.44-.62-1.2-.94-1.19a1.75,1.75,0,0,0-1.39.89c-.64,2.26-2.32,2.29-4.17,2.3A116.61,116.61,0,0,1,299.36,472c-8.77-2.21-17.66-4-26.3-6.62-5.12-1.56-9.84-4.45-14.75-6.71-.63-.3-1.35-.41-2-.68a19,19,0,0,1-5.58-4c-2.71-2.54-3.08-4.89-3-8.37.2-5.88-.62-11.79-1.05-17.68-.44-6.06-1-12.11-1.35-18.17a29.07,29.07,0,0,1,.69-5.27c.51-3.83.86-7.69,1.55-11.48.87-4.78,2.19-9.47,3-14.25.83-5,1.11-10.13,1.89-15.15.81-5.18,1.92-10.31,2.91-15.45q1.89-9.87,3.8-19.74c.19-.94.61-1.83.79-2.77,1-5,2-9.92,2.86-14.91,2.38-13.88,4.86-27.75,6.95-41.67,1.09-7.27,1.37-14.66,2.1-22,.52-5.22,1.16-10.43,1.75-15.64,1.16-10.23,2.34-20.47,3.48-30.7s1.84-20.34,3.48-30.4c.71-4.38,1.69-8.8,2.52-13.2,1.19-6.33,1.77-12.77,2.56-19.17.6-4.83,1.11-9.68,1.7-14.51.07-.58.26-1.4.66-1.63,3.51-1.93,6.9-4.33,10.67-5.48a76.28,76.28,0,0,1,16.92-3.47c13.83-.94,27.71-1.15,41.56-1.82,7.1-.34,14.19-1,21.26-1.61,8-.75,16.06-1.82,24.1-2.49,7.71-.63,15.43-1,23.16-1.33,4.48-.17,5.51.9,6,5.46.35,3.48,1,7,.66,10.45s.27,6.6.23,9.89c0,4-.5,8-.78,12-.29,4.32-.49,8.65-.92,13a25.84,25.84,0,0,1-1.34,5.8,2.52,2.52,0,0,1-2,1.14c-14.63-.45-29,2-43.5,3.57-7.13.75-14.12,2.74-21.24,3.78-7.39,1.07-14.85,1.62-22.27,2.49a21.07,21.07,0,0,0-5.35,1.19C330,176.46,324,177.15,321,182.79Z"/>
        <path class="cls-1"
              aria-label="L"
              d="M496.39,97.39c2.54.33,4.82.26,6.83,1,3.8,1.35,3.63,5.16,4.38,8.29,2.38,10,.66,20,.09,29.93-.51,9-1.45,18-2.18,27-1,12.24-2.09,24.47-2.88,36.72-.46,7.08-.34,14.2-.61,21.31-.21,5.52-.61,11-.94,16.56-.31,5.16-.62,10.33-1,15.5-.3,4.28-.32,8.62-1.11,12.82-1.06,5.66-.72,11.31-.94,17-.45,11.21-1.4,22.41-1.65,33.63-.21,9.73-1.15,19.45,0,29.22.57,4.84-.27,9.82-.17,14.73.25,11.39.54,22.78,1.12,34.15.23,4.61,1.28,9.18,2,13.76.75,5,3.85,8.41,7.79,11.28,6.6,4.81,14.28,5.3,22,5.67,6.93.33,13.88.51,20.8,1,5.75.39,11.52.85,17.21,1.69a367.77,367.77,0,0,0,49.06,3.51c7.88.11,15.74.63,23.6,1.1a41.63,41.63,0,0,1,8.72,1.19c4.53,1.25,6.27,3.91,6.63,8.6a66.44,66.44,0,0,0,1.11,8.58,3.69,3.69,0,0,0,2.13,2.43,2.49,2.49,0,0,1,2.15,2.8c0,4.8,0,9.61-.26,14.4-.22,4.18-.82,8.34-1.21,12.51-.28,3-.95,3.42-4,3.36-3.58-.07-7.18.42-10.76.27-4.81-.21-9.59-.92-14.39-1.21-8.68-.52-17.36-.86-26-1.31-12.12-.62-24.24-1.09-36.33-2-10.32-.78-20.58-2.4-30.91-3-7.08-.43-14.22.31-21.34.3-8.25,0-16.5-.21-24.75-.44-4.3-.11-8.6-.49-12.9-.68-7.55-.34-15.11-.44-22.64-1a61.18,61.18,0,0,1-10.82-2.17c-.68-.18-1.13-1.62-1.47-2.55a24.43,24.43,0,0,1-.76-3.2c-1,.34-2.05.71-3.09,1s-1.94.47-2.91.7a11.89,11.89,0,0,1-.59-3c.22-4,.88-7.91.86-11.86,0-5.75-.51-11.5-.8-17.26a14.09,14.09,0,0,1-.08-1.83c.56-6.7,1.28-13.39,1.65-20.1.26-4.83.23-9.69,0-14.52-.34-8.05.45-16,.9-24.05.3-5.48.34-11,.55-16.44a20.38,20.38,0,0,1,.48-3.38c.88-4,1.77-8,1.22-12.19a2.93,2.93,0,0,1,.05-1.56c3.06-6.24,1.91-13.1,2.78-19.64.64-4.84.18-9.82.44-14.72.31-5.82,1-11.63,1.27-17.45s0-11.94.36-17.89.89-12,1.58-18c.38-3.35,1.36-6.63,1.82-10s.5-6.6.84-9.89c.51-4.87,1.3-9.71,1.66-14.59.37-5,2.78-9.37,4.15-14.05a55.71,55.71,0,0,0,1.54-9.84c.54-5.09,1-10.19,1.33-15.3.38-5.87.4-11.76.9-17.61.65-7.63,1.6-15.24,2.47-22.85s1.71-15.33,2.71-23c.51-3.92,1.31-7.79,2.05-11.68.09-.49.65-.9,1-1.33.59-.7,1.2-1.38,1.8-2.08a8.28,8.28,0,0,1,1.17-1.38,28.92,28.92,0,0,1,14.16-5.19C488.37,98.61,492.52,97.94,496.39,97.39Z"/>
        <path class="cls-1"
              aria-label="L"
              d="M699.62,458.26c-.81-1.73-1.82-3-2-4.47-.8-5.27-1.29-10.59-2-15.88-1-7.6-2.18-15.17-3.1-22.77-1.2-9.94-2.32-19.89-3.29-29.85-.91-9.33-2.23-18.69-2.19-28,.05-11.55-1.74-22.95-1.62-34.49.1-9.1-.74-18.22-1-27.33-.14-4,0-8,0-12-.06-4.82-.12-9.65-.36-14.46-.17-3.42-.8-6.81-.94-10.22-.36-9.22-.42-18.44-.87-27.65-.33-6.72-1.12-13.41-1.65-20.12-.74-9.43-1.56-18.85-2.09-28.28-.39-6.93-.24-13.88-.57-20.8-.62-13.51-1.37-27-2.16-40.5a65.78,65.78,0,0,0-1.18-10.11c-1.28-5.9,2.32-10.11,4.6-14.79a6.24,6.24,0,0,1,5.4-3.62c5.29-.44,10.59-.79,15.88-1.19,7.52-.55,15-1.13,22.55-1.66,2.71-.19,5.44-.35,8.15-.38s3.9,1.27,4.76,3.9c3.88,12,2.52,24.19,1.87,36.32-.79,14.84-1.13,29.66-.47,44.51.34,7.55.21,15.12.54,22.67.31,7,.94,14,1.47,21,.66,8.84,1.16,17.69,2.12,26.49.72,6.61,2.1,13.14,3.09,19.71,1.34,8.95,2.08,18,4,26.83,1.45,6.6,1.69,13.15,2.14,19.79.43,6.17,2,12.26,2.76,18.42.7,6,.87,12.06,1.4,18.08.59,6.55,1.14,13.12,2,19.64,1.22,8.94,2.69,17.84,4.13,26.75.85,5.24,1.81,10.47,2.81,15.69.37,2,2.93,3.4,5.33,3.47,4.44.13,8.87.5,13.3.58,3.3.05,6.73.3,9.9-.42,7.68-1.74,15.44-1.44,23.2-1.74,5.47-.21,10.92-1.1,16.39-1.59,2.79-.25,5.59-.29,8.39-.39,8.34-.29,16.68-.42,25-.87q18.78-1,37.54-2.37c12-.85,24-1.95,36-2.82a69.75,69.75,0,0,1,8,.21c2.1.09,3.15,1.22,3.24,3.36.18,3.94.28,7.9.72,11.82.62,5.38,1.42,10.76,2.33,16.1,1.42,8.28,3.33,16.48,2.52,25-.44,4.75-1.72,6.06-6.81,6.17-1.63,0-3.24.74-4.88,1-4.85.74-9.72,1.3-14.55,2.15-3.33.58-6.56,1.9-9.91,2.23-5.19.51-10.45.34-15.67.69-2.74.18-5.43,1-8.17,1.28-6.37.64-12.76,1.12-19.13,1.67-3.41.29-6.81.65-10.22.88-11.2.74-22.39,1.53-33.59,2.12-8.94.47-17.9.71-26.85,1-4.92.15-9.85.07-14.77.22-2.17.06-4.34.61-6.51.64-6.49.09-13-.13-19.47.07-8.49.27-17,1-25.46,1.23-9.65.23-19.31.25-29-.05-2.88-.08-5.81-1.35-8.56-2.46a4.4,4.4,0,0,1-2.24-3c-.64-4.45-.73-9-1.43-13.42C698.16,460.18,697.57,458.56,699.62,458.26Z"/>
        <path class="cls-1"
              aria-label="O"
              d="M1279.29,275.26c-.57,7.21-.86,13.53-1.62,19.79-1.21,10-2.48,20.05-4.21,30a159.74,159.74,0,0,1-5.27,22.52,175.17,175.17,0,0,1-14.76,33.92,198.94,198.94,0,0,1-11.25,16.65c-5.85,8.08-13.66,13.4-22.19,18-5.32,2.86-10.64,5.75-16.1,8.33a50.7,50.7,0,0,1-9.92,3.45c-9.39,2.21-18.77,4.55-28.28,6.07-10.39,1.66-20.9,2.69-31.4,3.54a93.34,93.34,0,0,1-18.08-.08c-8.4-1-16.71-2.84-25-4.33-4.32-.77-8.75-1.17-12.92-2.45-7.1-2.18-14-4.87-21-7.46-2.79-1-5.42-2.48-8.2-3.53-5.48-2.06-9.55-6-14-9.67-5.92-4.86-9.45-11.88-15.24-16.69s-9.85-11.1-14-17.21c-3.73-5.55-6.68-11.64-9.81-17.57-2.33-4.41-4.56-8.88-6.56-13.45a91.14,91.14,0,0,1-3.64-10.34c-2.1-7.12-4.22-14.24-6-21.45-1-4-1.21-8.1-1.81-12.15-.43-2.94-1-5.87-1.36-8.82-.5-4.44-.89-8.9-1.23-13.35-.39-5.33-.93-10.67-1-16,0-7.27.15-14.55.64-21.8a151.76,151.76,0,0,1,2.12-16.56c1.61-9,3.26-18,5.37-26.82,2.33-9.8,4.84-19.58,8-29.15,2.32-7.13,5.59-14,8.7-20.82a115.35,115.35,0,0,1,7.53-14.73c7.67-12,14.73-24.53,26-33.78,3-2.49,6.26-4.73,9.45-7,5.73-4.06,11.35-8.29,17.29-12A117.34,117.34,0,0,1,1090,66.8c9.45-2.67,19-5.37,28.7-6.65,7.82-1,15.78-3.18,23.81-1.36,4.26,1,8.47,2.14,12.65,3.42.68.21,1.06,1.45,1.56,2.23.24.37.33.94.65,1.13,3.14,1.83,6.4,3.46,9.46,5.42,3.63,2.31,7.2,4.76,10.61,7.39,6,4.66,12.23,9.19,17.85,14.34,6.66,6.08,14.29,11.22,19.5,18.78,4.42,6.4,8.45,13.09,13.1,19.32,4.36,5.82,9.65,11,13.91,16.84a77.77,77.77,0,0,1,7.78,14.15c3.67,8.31,7,16.8,10.2,25.29,1.14,3,1.66,6.21,2.53,9.31,2,7,4.15,14,6,21,2,8,3.94,16,5.57,24.07,1.06,5.29,1.49,10.7,2.31,16,.62,4.07,1.41,8.11,2.14,12.17C1278.64,271.84,1279.05,274,1279.29,275.26ZM1052,276.92c.44,4.07.84,9.31,1.61,14.5.52,3.44,1.59,6.79,2.39,10.19s1.52,7,2.46,10.42c.53,1.91,1,4.09,2.29,5.48,4.22,4.67,8.74,9.06,13.2,13.49,2.61,2.59,5.35,5,8,7.55,1.73,1.64,3.23,3.67,5.22,4.86a23.14,23.14,0,0,0,6.84,2.32c6.74,1.48,13.51,2.77,20.26,4.17a43.5,43.5,0,0,0,16.59.73c4.65-.82,9.49-.64,13.79-3.09,3.64-2.08,7.38-4,11-6,3.87-2.12,7.88-4,11.53-6.49,4.22-2.84,8.13-6.13,12.15-9.27,2.57-2,4.79-4.49,7.18-6.61,2.89-2.57,5.09-5,6-8.74a3.79,3.79,0,0,1,1.5-2.36c2-1,2.4-2.57,2.27-4.58a8.42,8.42,0,0,1,.37-3.12c.66-2,1.91-4,2.17-6.06s2-4,1-6.67c-.62-1.66.74-4,1-6,.77-6.19,1.34-12.4,2.18-18.58.35-2.54,1.78-5.06,1.67-7.54-.26-5.31-1.18-10.59-1.86-15.88-.46-3.6-.64-7.28-1.55-10.76-1.16-4.46-2.91-8.77-4.44-13.14-1.19-3.38-2.44-6.74-3.66-10.11a61,61,0,0,0-2.3-6.28c-1.64-3.37-3.66-6.56-5.3-9.93-4.36-9-9.94-16.94-18.55-22.3-6.09-3.79-12.34-7.31-18.58-10.84a43.42,43.42,0,0,0-6.26-2.82,14.66,14.66,0,0,0-3.59-.47c-4.34-.42-8.68-1.07-13-1.13-3-.05-6,1-9,1.11a62.27,62.27,0,0,0-28.42,7.78c-5.45,3-11.17,5.69-14.45,11.45-1.16,2-2.47,4-3.59,6.05-2.16,4-4.7,7.81-6.23,12-3,8.17-5.48,16.52-8,24.86a76.86,76.86,0,0,0-3.39,23.54c.12,6.14.52,12.28.43,18.42S1052.41,269.5,1052,276.92Z"/>
        <g aria-label="!">
            <path class="cls-1"
                  aria-label="O"
                  d="M1364.31,6.7c5.43-.21,7.66,1.18,8.61,5.35,1.27,5.56,2.26,11.18,3.17,16.81,1.54,9.52,3.21,19,4.29,28.62,1.6,14.2,2.78,28.44,1.83,42.8-.56,8.48-.53,17-.26,25.54.32,9.82,1.29,19.61,1.81,29.42.31,5.69.1,11.42.45,17.11.43,7.08,1.16,14.16,1.81,21.23.5,5.33,1,10.67,1.68,16,.48,3.62,1.49,7.17,2,10.78,1.08,7.64,2.37,15.28,2.85,23,.47,7.54-2.81,13.47-9.46,17.56a37.33,37.33,0,0,1-18.35,5.9c-5.58.17-11.36,1.33-17-.76a27.79,27.79,0,0,0-6.71-1.22c-3.35-.36-4.67-2.87-5.83-5.42s-2.06-5.3-3.06-8a7.09,7.09,0,0,1-.81-2.47c.08-1.86-.4-3-2.47-3.2-.41,0-.92-1-1.06-1.54-.59-2.54-1-5.11-1.56-7.66-.07-.34-.07-.84-.28-1-3.08-2.07-2.41-5.63-3.51-8.48s-2.79-5.3-4.08-8c-1.62-3.38-3.11-6.82-4.63-10.26s-3-6.88-4.5-10.36c-1.34-3.19-2.61-6.4-3.88-9.62-1.58-4.05-3.34-8.06-4.64-12.2-1.77-5.68-3.08-11.5-4.79-17.19-1.42-4.73-3-9.43-4.77-14-2.69-6.81-5-13.9-8.7-20.12-3.06-5.11-4.08-10.77-6.47-16-3.07-6.72-5-14-7.49-20.94-1-2.8-2.42-5.45-3.25-8.29-.89-3.06-1.19-6.29-2-9.39-.54-2.13-1.5-4.14-2.19-6.23-1.3-3.94-2.93-7.82-3.73-11.87-1-5-2.77-10-.4-15.17a14.11,14.11,0,0,1,4.25-5.39c6.43-5.14,14.24-5.63,21.72-7.34,12-2.73,24-5.45,35.94-8.29,6.92-1.65,13.74-3.79,20.7-5.24C1348.19,9.33,1356.85,8,1364.31,6.7Z"/>
            <path class="cls-1"
                  d="M1376.5,314.62,1374,313a17.87,17.87,0,0,1,3.76-1.09c5-.29,10-.6,15-.54,4.85.06,6.66,1.79,7.87,6.46a9.54,9.54,0,0,0,1.19,2.89c4.35,6.48,5.44,14.14,7.9,21.31a111.14,111.14,0,0,1,5.49,28.64,3.23,3.23,0,0,1-1.73,2.44c-1.86.73-3.94.86-5.85,1.45-6.61,2.06-13.09,4.57-19.79,6.21a140.53,140.53,0,0,1-19.15,3.14c-4.12.42-8.35-.35-12.51-.22-4.71.15-5.49-3.41-6.46-6.56-1.75-5.64-3-11.44-4.76-17.07-1.92-6.15-2.22-12.48-2.91-18.79-.36-3.31-1.2-6.57-1.78-9.87-.15-.82-.46-1.87-.11-2.49,2.36-4.18,4.17-8.62,10.3-9.11,6-.49,11.86-2.23,17.79-3.37a22.67,22.67,0,0,1,2.61,0c1.7-.13,3.39-.33,5.08-.5C1376.13,315.46,1376.32,315,1376.5,314.62Z"/>
        </g>
    </g>
</svg>