<svg xmlns="http://www.w3.org/2000/svg" viewBox="0 0 1454.24 775.97"><defs><style>.cls-1{fill:#fff;}</style></defs><g id="Layer_2" data-name="Layer 2"><g id="hello"><path d="M780.29,712.32c-28.26,2.14-56.48,4.87-84.77,6.28-60.19,3-120.44,5-180.62,8.19-13.19.7-26.18,4.78-39.3,7.05-52.13,9-104.69,16.1-156.31,27.44-77.07,16.92-154.9,14.53-232.81,14.63-13.16,0-17.94-4.67-20.17-17.64-7.29-42.42-17.61-84.36-24-126.89C33,569.27,24.65,506.93,18.47,444.44,11.79,376.74,7.68,308.77,3.22,240.87c-2-30.14-1.66-60.43-3.18-90.6-.48-9.58,3.44-13.82,11.86-15.86,28.56-6.94,55.86-17.11,87-13.73,18.57,2,38.4-7.31,57.62-11.72,6.71-1.55,13.29-3.67,19.92-5.53l-.53-.37c-27.55,17-57.58,22-89.79,23.09-26.58.87-53,8.29-79.42,12.82L9,144.1c0,11,.14,22,0,33-.21,12.23-3.23,25-.65,36.58,10.91,48.89,5.36,98.16,5.85,147.32.18,18.59-.93,38.26,4.56,55.53,21.4,67.19,12.94,138.07,27.89,205.93,9.26,42.07,17.25,84.43,25.75,126.68,2.57,12.74,8.16,20.82,23.22,20.05,61.41-3.14,123.8.07,184.06-9.81,87.1-14.28,172.9-35.52,261.63-40.51,64.45-3.62,128.62-12,193-17.38,66.61-5.53,133.31-10.12,200-14.65,14.47-1,29.12.71,43.62,0,42.84-2.2,85.78-3.64,128.43-7.9,56.59-5.66,113.06-13,169.35-21.12,18.82-2.72,36.67-11.82,55.47-15.18,30.18-5.39,60.79-8.41,91.22-12.47,3.91-.53,7.8-1.27,12.54-2,0-5.27.68-9.94-.11-14.35-6.92-38.85-12.86-77.93-21.51-116.41-11.42-50.81-19.6-101.57-15.51-153.95.92-11.82-3.21-24.08-5.3-36.09-7.37-42.35-16.41-84.49-21.64-127.11-2.65-21.58,1.6-44,2.57-66,.92-20.93,2.16-41.87,2.25-62.81.07-15.83-11.4-18.38-24.21-18.29-54.15.38-108.31,1.33-162.45.75-17.64-.19-35.18-5.15-52.88-6.58a223.41,223.41,0,0,0-41.62.11c-34.6,3.71-69.07,8.6-104.78,13.18,1.17-2.59,1.28-3.19,1.65-3.54s1.18-.38,1.53-.78c1-1.18,1.87-2.47,5.15-6.87-74.2,3.7-145.77-8.1-217,6.32H973.55c.05,1.84.11,3.68.16,5.51-112.16-1.16-224.54-8.41-336,12-.22-2.23-.45-4.47-.67-6.7,3.41-1,6.76-2.34,10.24-2.79,53.55-6.9,107-14.82,160.73-20,26.46-2.56,53.42-.2,80.15.21,27.25.42,54.49,1.45,81.74,1.73,35.34.36,71,3.16,105.92-.57,29.23-3.11,56.85-4.51,85.94,2.21,17.38,4,37-.45,55.48-2.55,33.49-3.81,66.92-8.33,100.26-13.34,10.21-1.54,20-5.87,30-8.58,32.4-8.71,45,3.31,39.78,36.3-6.27,39.28-7.4,78.4,2.16,117.72,3.78,15.52,1,32.5,3.21,48.54,5.79,42,13.37,83.67,19,125.65,8.26,61.66,15.43,123.46,23.11,185.19.57,4.61.22,10,2.54,13.62,15.49,23.93,12.88,51.51,15.9,77.78,4,34.43-3.69,42.83-37.36,48.48-24.66,4.15-48.91,11.35-73.69,14.16-32.21,3.64-64.81,6.31-97.16,5.65a277.55,277.55,0,0,0-98.77,15.64c-9.3,3.26-18.89,6.58-28.58,7.64-42.85,4.69-85.68,8.67-128.35-2.69-36.57-9.74-72.92-1.39-109.22,3.3Q830,706.21,779.85,712.81c-2.63-2.33-5.34-6.72-7.92-6.64-21.32.61-42.6,2.06-63.9,3.25l0,2.9Zm664-87.77,4.87-.09c-3.15-24.28-5.35-48.73-9.7-72.79-4.29-23.72-12.69-46.78-15.87-70.59-6.68-50-11.11-100.25-16.47-150.4C1399.79,412.2,1403.39,438.72,1444.3,624.55ZM1248.64,668c29.66,8.75,171.24-13,186.57-28.43C1369.86,627.83,1312,661.77,1248.64,668Zm-5.93-640.32c46.58,5.65,93.33-9,139.23,4.39,1.76-19-7.09-27.21-27.09-23.52-13,2.39-25.36,8-38.34,10.07C1292.17,22.45,1267.59,24.72,1242.71,27.68ZM1018.39,690.27c32.48,12.15,105.71,6.13,123.63-7.6Zm368.44-457.76,2-.3-5.94-80.12-8.47,1Q1380.6,192.81,1386.83,232.51Z"/><path d="M385,173c5.5-.68,11.7-3.35,16.38-1.7,27.83,9.82,52.17-4.85,77.51-10.62,29.27-6.65,57.91-16,86.84-24.18,5-1.42,10.15-2.52,15.22-3.81,27-6.92,37.79-1.16,46.36,24.81.73,2.21,1.55,4.4,2.25,6.62,9.7,30.93,6.14,34.63-25.71,38.94-37.12,5-74.15,11.53-110.72,19.63-29.8,6.61-29.45,8.07-27.66,38.64,1.48,25.55,3.54,51.09,4.09,76.66.29,13.58,8.63,14,17.55,12.7,30.3-4.29,60.38-10.48,90.79-13.78,56.91-6.19,51.2-9.22,60.84,38.95,1.37,6.83,3.9,13.43,6,20.11,7.61,24.48,6.06,28.2-20,31.44q-57,7.08-114.24,11.26c-26.61,1.94-29.61,4.76-24.44,31.52,2.86,14.83,6,29.68,7.75,44.66,2.46,20.75,20.69,37.08,40.23,29.55,39.61-15.25,81.23-12.48,121.78-18.64,13.15-2,26.16-5,40.81-7.79,4.38,15.67,9.43,32.19,13.51,48.95,2.43,9.93-2.17,15.65-12.84,15.75-21.39.21-42.84-.3-64.18.88-34.82,1.93-69.57,5.11-104.37,7.5-19,1.31-38,3.22-56.91,2.33-5.15-.23-12.58-8.82-14.31-14.9-6.66-23.35-11.45-47.23-16.91-70.92-7.31-31.73-16.33-63.19-21.53-95.27-10.31-63.67-18.51-127.69-27.55-191.57C389.41,205.89,387.48,191,385,173Zm9.18,6.57c-.49,2.16-1.36,3.87-1.16,5.46,8.44,68.11,14.62,136.62,26.19,204.2,10.38,60.58,26.38,120.23,40.88,180,1.54,6.33,9.05,14.73,14.94,15.79,12.88,2.32,26.54,1.09,39.82.32,38.85-2.27,77.63-5.57,116.49-7.38,23.6-1.1,47.29-.2,74.19-.2l-13.08-50.66c-27,3-52.42,5.11-77.65,8.74s-50.05,8.74-75.06,13.2c-2.87.51-5.73,1.13-8.61,1.5-24.34,3.15-41.6-10.63-44.25-34.62-1.53-13.84-3.37-27.72-6.22-41.34-7.91-37.79-2.59-42.07,36.63-43.12,37.57-1,75-6.64,112.48-10.92,7.57-.87,14.27-4.23,11-15.3-5-16.7-7.67-34.13-13.18-50.63-2-5.92-9.13-14-14.27-14.23-14.9-.78-30,1.42-45,3.32-29.87,3.79-59.64,8.45-89.53,12.12-11.17,1.38-16.43-3.35-16.56-16.15-.32-29-1.64-58.13-4.32-87-2.62-28.31-3.72-29,24.19-34.35,41.41-8,83-15.09,124.63-21.9,22.28-3.65,23.15-4.21,17.1-26.45-8.55-31.39-12.75-36.52-36.15-32.7-28,4.57-56.11,10.35-83.21,18.69-34.07,10.49-66.33,28-103.87,21.65C398.65,177.29,396.34,178.88,394.22,179.57Z"/><path d="M161.77,377.1c22.45-1.18,44.41-1.47,66.17-3.68,28.09-2.85,35.26-10.2,34.13-39-1.56-39.46-5.13-78.86-8.59-118.21-2.31-26.35-.24-30.67,24.42-40,36.76-13.89,38.34-14,41.65,25.41,7.65,91.35,25.72,180.89,44,270.43,9.07,44.36,18.67,88.61,28.25,132.86,3.05,14.05,1.48,21.73-16.49,20.57-11.72-.75-23.79,4.64-35.77,6.89-11.58,2.17-18.32-1.91-21-14.41-10.85-50.07-22.92-99.89-33.41-150-2.64-12.62-8.1-16.5-20.06-15.32-13.32,1.3-26.79,1.08-40.11,2.42-30.78,3.1-43.9,18.5-37.79,49.42,5.49,27.84,15.49,54.77,23,82.23,4.94,18,9,36.28,13.8,55.75-20,0-34.87.6-49.67-.35-4.61-.3-12.18-4.08-12.95-7.49-11.21-49.93-22.72-99.85-31.71-150.21-10.83-60.74-18.66-122-29.15-182.8-5.22-30.32-12.84-60.27-20.71-90-2.92-11-.35-16.63,8.5-23.24,16.56-12.37,31.8-26.5,51.25-43C154,224.34,157.25,300.44,161.77,377.1Zm-21.3-216.82-6.65-2.16c-13.59,11.56-27.78,22.52-40.44,35-4.29,4.22-7.52,12.89-6.44,18.61,5.4,28.4,13.82,56.26,18.57,84.75C117,365.37,126.25,434.61,138,503.43c5.16,30.31,15.06,59.79,21.1,90,8.12,40.65,7.41,40.8,47.18,41,2.65,0,5.3-.37,9.87-.72-2.21-11.57-3.35-22-6.28-31.9-7.92-26.77-17.64-53-24.55-80.06-3.38-13.17-3.88-27.71-2.5-41.31,2.05-20.21,13.3-29.74,33.44-31.11,17.94-1.22,36-1.27,53.92-2.26,11.87-.66,17.31,3.87,20,16.13,10.79,50,22.92,99.75,34.25,149.65,2.33,10.24,7.11,15.79,18.17,13.27,14-3.19,28-6.52,41.22-9.6C358,469.77,332.09,322.69,306,174c-3.33.85-9.39,2.28-15.38,4-32.5,9.07-32.74,9.11-31,43,2,38.88,6.87,77.78,6.12,116.59s-8.91,40-39.4,41.6c-19.71,1-39.39,2.78-59.1,3.91a51.72,51.72,0,0,1-10.14-.63C151.41,306.72,145.94,233.5,140.47,160.28Z"/><path d="M790,497.48c51.16-6.07,97.12-11.61,143.11-16.84,5.68-.65,11.61,1,17.33.48,14-1.26,19.92,5.53,21.75,18.71,1.59,11.5,4.59,22.81,7.15,34.16,1.85,8.22-.09,12.2-9.4,14.61-31.06,8-62,12-94.44,11.09-39.16-1.1-78.49,3.75-120.49,6.18C707.39,429.69,693.58,282,672.24,135.48c2.45-.24,3.55-.33,4.64-.45,23.24-2.66,29.06,11.67,33.13,31q17.22,81.72,37,162.88C760.57,384.68,775.35,440.18,790,497.48ZM687.67,141.38l-7.14,4.75c17.88,140,32.68,280.65,78.7,411.88,37.34-1.81,71.45-2.9,105.47-5.26,31.67-2.19,63.29-5.36,94.83-9.06,4.2-.5,10.73-6.31,11.13-10.18,3.88-37.61-9.89-50.84-47.5-47-.58.06-1.15.19-1.73.26-40.9,5-81.77,10.24-122.74,14.6-4.65.49-12.26-2.73-14.28-6.49-4.58-8.54-7.11-18.34-9.45-27.89q-28.43-115.87-56.39-231.87c-6.39-26.51-11.78-53.27-18.77-79.62C698.36,150.13,691.85,146.06,687.67,141.38Z"/><path d="M1050,374.8c2.22,12.35,4.79,25.94,7.06,39.59,2,12-3.89,16.49-15.48,17.62-49.15,4.77-98.28,9.82-147.34,15.5-17.26,2-34.22,6.53-51.44,9-12.08,1.75-19.14-3.28-21.51-16.51-14.54-81.24-29.7-162.37-44.65-243.53-6.71-36.46-13.4-72.93-20.71-112.75,15.57-1.86,33.59-4.77,51.71-5.56,3.81-.16,10.65,6.94,11.51,11.55,7,37.65,12,75.69,19.4,113.27Q856,291.93,876.21,380.26c1.21,5.28,11.21,12.05,17.27,12.2C945.9,393.7,997.39,385.89,1050,374.8Zm-7.66,9.38c-32.43,4.33-64.52,9.35-96.78,12.67a480.94,480.94,0,0,1-62.26,2c-5.13-.13-13.59-6.25-14.56-10.86-12.53-59.68-24.18-119.54-35.61-179.44C825.92,171,819.76,133.27,812.4,95.79c-.88-4.46-6.52-11.43-9.83-11.36-12.79.26-25.53,2.9-36.08,4.35,1.63,19.36,1.92,35,4.41,50.22,8.77,53.9,17.84,107.76,27.7,161.48,7.65,41.7,16.52,83.18,25.1,124.7,4.2,20.29,11.75,26,29.14,23.57,55.16-7.67,110.3-15.57,165.54-22.71,34.45-4.46,34.52-3.92,26.18-38.81C1044.44,386.71,1043.89,386.29,1042.29,384.18Z"/><path d="M889.33,214.13c.94-13.93-.42-28.55,3.44-41.62,4.3-14.52,11.35-29.28,20.88-40.93,10.88-13.3,25.47-23.72,39.08-34.61,18.08-14.48,78.21-12.61,96.72,1.42,6.12,4.64,14.71,5.85,21.67,9.55,39.07,20.77,65,53.7,80.84,93.86,9.83,24.9-11.6,81-36.17,97.81-49.73,33.95-103.38,46.31-161.13,22C912.39,303.8,888.69,263.68,889.33,214.13Zm6.69-7.79c-1.91,69.24,34.5,111.56,97.29,118.92,24.5,2.88,51.09-2.21,75.27-8.93,31-8.62,58.29-23.56,70.11-58.63,12.18-36.14,8.76-67.08-18.25-94.64a42.27,42.27,0,0,1-6.25-8.4c-19.85-34.35-55.51-47.27-89.07-58.39-52.55-17.41-102.17,22.39-121.76,64C897,173.79,898.25,190.88,896,206.34Z"/><path d="M176.42,103.43l-8.17-5.14c31.31-8,64.29-17.55,97.82-24.52,18-3.75,36.87-3.23,55.37-4.34C410,64.13,498.57,59,587.12,53.56c13.06-.8,26-3.24,39-4.92.21,1.81.43,3.61.64,5.42-18.29,1.77-36.56,3.82-54.88,5.27Q453.74,68.65,335.55,77.65c-4.06.31-8.14.42-12.21.45-26.07.16-51.2.7-76.67,11.49-21.63,9.16-47.07,9.31-70.8,13.46Z"/><path d="M22.32,404l-5.25-73.37,3.24-.2q2.42,36.71,4.82,73.41Z"/><path class="cls-1" d="M1018.39,690.27l123.63-7.6C1124.1,696.4,1050.87,702.42,1018.39,690.27Z"/><path class="cls-1" d="M780.29,712.32H708.07l0-2.9c21.3-1.19,42.58-2.64,63.9-3.25,2.58-.08,5.29,4.31,7.92,6.64Z"/><path class="cls-1" d="M394.22,179.57c2.12-.69,4.43-2.28,6.41-1.94C438.17,184,470.43,166.47,504.5,156c27.1-8.34,55.18-14.12,83.21-18.69,23.4-3.82,27.6,1.31,36.15,32.7,6,22.24,5.18,22.8-17.1,26.45-41.62,6.81-83.22,13.92-124.63,21.9-27.91,5.37-26.81,6-24.19,34.35,2.68,28.9,4,58,4.32,87,.13,12.8,5.39,17.53,16.56,16.15,29.89-3.67,59.66-8.33,89.53-12.12,14.94-1.9,30.07-4.1,45-3.32,5.14.26,12.29,8.31,14.27,14.23,5.51,16.5,8.18,33.93,13.18,50.63,3.31,11.07-3.39,14.43-11,15.3-37.44,4.28-74.91,9.92-112.48,10.92-39.22,1.05-44.54,5.33-36.63,43.12,2.85,13.62,4.69,27.5,6.22,41.34,2.65,24,19.91,37.77,44.25,34.62,2.88-.37,5.74-1,8.61-1.5,25-4.46,49.92-9.58,75.06-13.2s50.68-5.77,77.65-8.74l13.08,50.66c-26.9,0-50.59-.9-74.19.2-38.86,1.81-77.64,5.11-116.49,7.38-13.28.77-26.94,2-39.82-.32-5.89-1.06-13.4-9.46-14.94-15.79-14.5-59.82-30.5-119.47-40.88-180C407.68,321.65,401.5,253.14,393.06,185,392.86,183.44,393.73,181.73,394.22,179.57Z"/><path class="cls-1" d="M140.47,160.28c5.47,73.22,10.94,146.44,16.6,222.16a51.72,51.72,0,0,0,10.14.63c19.71-1.13,39.39-2.87,59.1-3.91,30.49-1.62,38.65-2.94,39.4-41.6S261.6,259.85,259.59,221c-1.76-33.91-1.52-33.95,31-43,6-1.68,12.05-3.11,15.38-4,26.14,148.7,52,295.78,77.79,442.46-13.18,3.08-27.18,6.41-41.22,9.6-11.06,2.52-15.84-3-18.17-13.27-11.33-49.9-23.46-99.63-34.25-149.65-2.64-12.26-8.08-16.79-20-16.13-18,1-36,1-53.92,2.26-20.14,1.37-31.39,10.9-33.44,31.11-1.38,13.6-.88,28.14,2.5,41.31,6.91,27,16.63,53.29,24.55,80.06,2.93,9.9,4.07,20.33,6.28,31.9-4.57.35-7.22.73-9.87.72-39.77-.15-39.06-.3-47.18-41-6-30.19-15.94-59.67-21.1-90-11.72-68.82-21-138.06-32.46-206.92-4.75-28.49-13.17-56.35-18.57-84.75-1.08-5.72,2.15-14.39,6.44-18.61,12.66-12.51,26.85-23.47,40.44-35Z"/><path class="cls-1" d="M687.67,141.38c4.18,4.68,10.69,8.75,12.13,14.15,7,26.35,12.38,53.11,18.77,79.62q28,116,56.39,231.87c2.34,9.55,4.87,19.35,9.45,27.89,2,3.76,9.63,7,14.28,6.49,41-4.36,81.84-9.61,122.74-14.6.58-.07,1.15-.2,1.73-.26,37.61-3.87,51.38,9.36,47.5,47-.4,3.87-6.93,9.68-11.13,10.18-31.54,3.7-63.16,6.87-94.83,9.06-34,2.36-68.13,3.45-105.47,5.26-46-131.23-60.82-271.85-78.7-411.88Z"/><path class="cls-1" d="M1042.29,384.18c1.6,2.11,2.15,2.53,2.27,3.05,8.34,34.89,8.27,34.35-26.18,38.81-55.24,7.14-110.38,15-165.54,22.71-17.39,2.42-24.94-3.28-29.14-23.57-8.58-41.52-17.45-83-25.1-124.7C788.74,246.76,779.67,192.9,770.9,139c-2.49-15.25-2.78-30.86-4.41-50.22,10.55-1.45,23.29-4.09,36.08-4.35,3.31-.07,8.95,6.9,9.83,11.36,7.36,37.48,13.52,75.2,20.68,112.72,11.43,59.9,23.08,119.76,35.61,179.44,1,4.61,9.43,10.73,14.56,10.86a480.94,480.94,0,0,0,62.26-2C977.77,393.53,1009.86,388.51,1042.29,384.18Z"/><path class="cls-1" d="M896,206.34c2.23-15.46,1-32.55,7.34-46.06,19.59-41.62,69.21-81.42,121.76-64,33.56,11.12,69.22,24,89.07,58.39a42.27,42.27,0,0,0,6.25,8.4c27,27.56,30.43,58.5,18.25,94.64-11.82,35.07-39.1,50-70.11,58.63-24.18,6.72-50.77,11.81-75.27,8.93C930.52,317.9,894.11,275.58,896,206.34Zm218.42,10.38c.55-21.94-3.2-28.28-18.7-40.26-25.15-19.46-52.23-33.2-83.67-41-51.63-12.75-103.55,34.93-90.3,86.76,4.45,17.4,8.33,35.66,25.8,47.9,37.91,26.55,77.71,23.21,118.13,10.22C1096.76,270.39,1115.91,249.85,1114.44,216.72Z"/><path d="M1114.44,216.72c1.47,33.13-17.68,53.67-48.74,63.65-40.42,13-80.22,16.33-118.13-10.22-17.47-12.24-21.35-30.5-25.8-47.9-13.25-51.83,38.67-99.51,90.3-86.76,31.44,7.77,58.52,21.51,83.67,41C1111.24,188.44,1115,194.78,1114.44,216.72Zm-2.86-2.15c-4.64-9.27-7.26-20.6-14.27-27.44-28.28-27.64-62.59-43.88-102.38-46.5-42.48-2.8-77.75,41.24-65,82.24,4.42,14.26,5.77,30,20.88,40.75,36.19,25.83,74.22,23.3,113,10.72C1090.84,265.55,1107.51,246.81,1111.58,214.57Z"/></g></g></svg>